<?xml version="1.0" encoding="UTF-8"?>
<svg xmlns="http://www.w3.org/2000/svg" viewBox="0 0 1200 1600">
  <defs>
    <style>
      .lw {
        stroke-width: .45px;
      }

      .lw, .lx, .ly, .lz, .ma, .mb, .mc, .md, .me, .mf, .mg, .mh, .mi, .mj, .mk {
        stroke: #000;
      }

      .lw, .lx, .ly, .lz, .ma, .mb, .mc, .me, .mf, .mg, .mh, .mi, .mj, .mk {
        fill: none;
      }

      .lw, .lx, .ly, .lz, .ma, .mb, .mc, .me, .mf, .mh, .mi, .mj, .mk {
        stroke-miterlimit: 10;
      }

      .lx, .md {
        stroke-width: .5px;
      }

      .lz, .mb, .mh, .mk {
        stroke-width: .2px;
      }

      .ml {
        fill: #d6d6d6;
        fill-rule: evenodd;
      }

      .ma {
        stroke-width: .75px;
      }

      .mb {
        stroke-dasharray: 1.93 .97;
      }

      .mc {
        stroke-dasharray: 1.95 .97;
      }

      .mc, .mj {
        stroke-width: .3px;
      }

      .me {
        stroke-width: .4px;
      }

      .mf {
        stroke-width: .35px;
      }

      .mg {
        stroke-linecap: round;
        stroke-linejoin: round;
        stroke-width: .25px;
      }

      .mh {
        stroke-dasharray: 2.07 1.04;
      }

      .mi {
        stroke-width: 2px;
      }

      .mk {
        stroke-dasharray: 1.97 .98;
      }
    </style>
  </defs>
  <g id="ar" data-name="SEC B">
    <g id="as" data-name="HATCH">
      <path class="ml" d="M875.24,983.92h-501.73v22.68h12.76v-14.17h476.22v14.17h12.76v-22.68M875.24,881.03h-501.73v19.84h8.5v-14.17h94.68v14.17h8.5v-14.17h77.39v14.17h8.5v-14.17h77.39v14.17h8.5v-14.17h206.36v14.17h11.91v-19.84M875.24,792.02h-496.06v-5.66l-5.67-.02v25.52h8.5v-14.17h94.68v14.17h8.5v-14.17h77.39v14.17h8.5v-14.17h77.39v14.17h8.5v-14.17h206.36v14.17h11.91v-19.84M871.84,703.01h-8.5v19.84h8.5v-19.84M656.98,690.82h-5.67v12.19h-261.64v-12.19h-5.67v17.86h23.81v14.17h8.5v-14.17h60.38v14.17h8.5v-14.17h77.39v14.17h8.5v-14.17h77.39v14.17h8.5v-32.03M407.24,755.17h-20.41v6.52h20.41v-6.52M386.83,761.69h-2.83v-34.02h2.83v34.02Z"/>
    </g>
    <g id="at" data-name="HATCH">
      <path class="mg" d="M407.81,723.43l.57-.57M407.81,725.97l2.83-2.83M407.81,728.52l2.83-2.83M407.81,731.06l2.83-2.83M413.48,725.39l2.54-2.54M407.81,733.61l2.83-2.83M413.48,727.94l2.83-2.83M407.81,736.15l2.83-2.83M413.48,730.49l2.83-2.83M407.81,738.7l2.83-2.83M413.48,733.03l2.83-2.83M407.81,741.25l2.83-2.83M413.48,735.58l2.83-2.83M407.81,743.79l2.83-2.83M413.48,738.12l2.83-2.83M407.81,746.34l2.83-2.83M413.48,740.67l2.83-2.83M407.81,748.88l2.83-2.83M413.48,743.21l2.83-2.83M407.81,751.43l2.83-2.83M413.48,745.76l2.83-2.83M407.81,753.97l2.83-2.83M413.48,748.3l2.83-2.83M407.81,756.52l2.83-2.83M413.48,750.85l2.83-2.83M407.81,759.07l2.83-2.83M413.48,753.4l2.83-2.83M407.81,761.61l2.83-2.83M413.48,755.94l2.83-2.83M407.81,764.16l2.83-2.83M413.48,758.49l2.83-2.83M407.81,766.7l2.83-2.83M413.48,761.03l2.83-2.83M407.81,769.25l2.83-2.83M413.48,763.58l2.83-2.83M407.81,771.79l2.83-2.83M413.48,766.12l2.83-2.83M407.81,774.34l2.83-2.83M413.48,768.67l2.83-2.83M407.81,776.88l2.83-2.83M413.48,771.21l2.83-2.83M407.81,779.43l2.83-2.83M413.48,773.76l2.83-2.83M407.81,781.98l2.83-2.83M413.48,776.31l2.83-2.83M407.81,784.52l2.83-2.83M413.48,778.85l2.83-2.83M407.81,787.07l2.83-2.83M413.48,781.4l2.83-2.83M407.81,789.61l2.83-2.83M413.48,783.94l2.83-2.83M407.95,792.02l2.69-2.69M413.48,786.49l2.83-2.83M410.5,792.02l.15-.15M413.48,789.03l2.83-2.83M413.48,791.58l2.83-2.83M415.59,792.02l.73-.73M863.34,723.56l.71-.71M863.34,726.1l2.83-2.83M863.47,728.52l2.83-2.83M869.01,722.98l.13-.13M866.01,728.52l2.83-2.83M869.01,725.53l2.67-2.67M868.56,728.52l3.28-3.28M871.1,728.52l.74-.74M863.34,771.93l1.45-1.45M863.34,774.47l4-4M863.34,777.02l2.83-2.83M867.05,773.31l2.83-2.83M863.34,779.56l2.83-2.83M869.01,773.89l2.83-2.83M863.34,782.11l2.83-2.83M869.01,776.44l2.83-2.83M863.34,784.65l2.83-2.83M869.01,778.98l2.83-2.83M863.34,787.2l2.83-2.83M869.01,781.53l2.83-2.83M863.34,789.74l2.83-2.83M869.01,784.07l2.83-2.83M863.61,792.02l2.56-2.56M869.01,786.62l2.83-2.83M866.16,792.02l.02-.02M869.01,789.17l2.83-2.83M869.01,791.71l2.83-2.83M871.25,792.02l.6-.6M863.34,855.93l2.12-2.12M863.34,858.47l4.66-4.66M863.34,861.02l2.83-2.83M867.71,856.65l2.83-2.83M863.34,863.57l2.83-2.83M869.01,857.9l2.83-2.83M863.34,866.11l2.83-2.83M869.01,860.44l2.83-2.83M863.34,868.66l2.83-2.83M869.01,862.99l2.83-2.83M863.34,871.2l2.83-2.83M869.01,865.53l2.83-2.83M863.34,873.75l2.83-2.83M869.01,868.08l2.83-2.83M863.34,876.29l2.83-2.83M869.01,870.62l2.83-2.83M863.34,878.84l2.83-2.83M869.01,873.17l2.83-2.83M863.7,881.03l2.48-2.48M869.01,875.72l2.83-2.83M869.01,878.26l2.83-2.83M869.01,880.81l2.83-2.83M871.33,881.03l.51-.51M863.34,937.39l2.5-2.5M863.34,939.93l5.05-5.05M863.34,942.48l2.83-2.83M868.1,937.72l2.83-2.83M863.34,945.02l2.83-2.83M869.01,939.36l2.83-2.83M863.34,947.57l2.83-2.83M869.01,941.9l2.83-2.83M863.34,950.12l2.83-2.83M869.01,944.45l2.83-2.83M863.34,952.66l2.83-2.83M869.01,946.99l2.83-2.83M863.34,955.21l2.83-2.83M869.01,949.54l2.83-2.83M863.34,957.75l2.83-2.83M869.01,952.08l2.83-2.83M863.34,960.3l2.83-2.83M869.01,954.63l2.83-2.83M863.34,962.84l2.83-2.83M869.01,957.17l2.83-2.83M863.34,965.39l2.83-2.83M869.01,959.72l2.83-2.83M863.34,967.94l2.83-2.83M869.01,962.27l2.83-2.83M863.34,970.48l2.83-2.83M869.01,964.81l2.83-2.83M863.34,973.03l2.83-2.83M869.01,967.36l2.83-2.83M863.34,975.57l2.83-2.83M869.01,969.9l2.83-2.83M863.34,978.12l2.83-2.83M869.01,972.45l2.83-2.83M863.34,980.66l2.83-2.83M869.01,974.99l2.83-2.83M863.34,983.21l2.83-2.83M869.01,977.54l2.83-2.83M865.17,983.92l1-1M869.01,980.08l2.83-2.83M869.01,982.63l2.83-2.83M870.26,983.92l1.58-1.58"/>
    </g>
    <g id="au" data-name="LINE">
      <line class="lz" x1="431.34" y1="902" x2="431.34" y2="979.39"/>
    </g>
    <g id="av" data-name="LINE">
      <line class="lz" x1="431.62" y1="902" x2="431.62" y2="979.39"/>
    </g>
    <g id="aw" data-name="LINE">
      <line class="lz" x1="607.94" y1="902" x2="607.94" y2="979.39"/>
    </g>
    <g id="ax" data-name="LINE">
      <line class="lz" x1="608.22" y1="902" x2="608.22" y2="979.39"/>
    </g>
    <g id="ay" data-name="LINE">
      <line class="lz" x1="431.34" y1="812.99" x2="431.34" y2="876.49"/>
    </g>
    <g id="az" data-name="LINE">
      <line class="lz" x1="431.62" y1="812.99" x2="431.62" y2="876.49"/>
    </g>
    <g id="ba" data-name="LINE">
      <line class="lz" x1="607.94" y1="812.99" x2="607.94" y2="876.49"/>
    </g>
    <g id="bb" data-name="LINE">
      <line class="lz" x1="608.22" y1="812.99" x2="608.22" y2="876.49"/>
    </g>
    <g id="bc" data-name="LINE">
      <line class="lz" x1="523.75" y1="812.99" x2="523.75" y2="876.49"/>
    </g>
    <g id="bd" data-name="LINE">
      <line class="lz" x1="524.03" y1="812.99" x2="524.03" y2="876.49"/>
    </g>
    <g id="be" data-name="LINE">
      <line class="lz" x1="686.74" y1="788.62" x2="686.74" y2="722.85"/>
    </g>
    <g id="bf" data-name="LWPOLYLINE">
      <rect class="lz" x="383.15" y="902" width="92.41" height="77.39"/>
    </g>
    <g id="bg" data-name="LWPOLYLINE">
      <rect class="lz" x="572.22" y="902" width="75.12" height="77.39"/>
    </g>
    <g id="bh" data-name="LWPOLYLINE">
      <rect class="lz" x="572.22" y="812.99" width="75.12" height="63.5"/>
    </g>
    <g id="bi" data-name="LWPOLYLINE">
      <rect class="lz" x="486.33" y="812.99" width="75.12" height="63.5"/>
    </g>
    <g id="bj" data-name="LWPOLYLINE">
      <rect class="lz" x="383.15" y="812.99" width="92.41" height="63.5"/>
    </g>
    <g id="bk" data-name="LWPOLYLINE">
      <rect class="lz" x="689.01" y="759.28" width=".57" height="11.34"/>
    </g>
    <g id="bl" data-name="LWPOLYLINE">
      <rect class="lz" x="683.91" y="759.28" width=".57" height="11.34"/>
    </g>
    <g id="bm" data-name="LINE">
      <line class="lz" x1="376.63" y1="727.88" x2="376.66" y2="786.35"/>
    </g>
    <g id="bn" data-name="LINE">
      <line class="lz" x1="401.86" y1="645.68" x2="401.86" y2="703.01"/>
    </g>
    <g id="bo" data-name="LINE">
      <line class="lz" x1="394.77" y1="645.68" x2="394.77" y2="703.01"/>
    </g>
    <g id="bp" data-name="LINE">
      <line class="lz" x1="376.63" y1="645.68" x2="376.63" y2="722.21"/>
    </g>
    <g id="bq" data-name="LINE">
      <line class="lz" x1="384" y1="719.38" x2="376.63" y2="719.38"/>
    </g>
    <g id="br" data-name="LINE">
      <line class="lz" x1="384" y1="710.88" x2="376.63" y2="710.88"/>
    </g>
    <g id="bs" data-name="LWPOLYLINE">
      <rect class="lz" x="520.49" y="929.33" width=".85" height="51.02"/>
    </g>
    <g id="bt" data-name="LWPOLYLINE">
      <rect class="lz" x="526.44" y="929.33" width=".85" height="51.02"/>
    </g>
    <g id="bu" data-name="LINE">
      <line class="lz" x1="861.92" y1="714.21" x2="656.98" y2="714.21"/>
    </g>
    <g id="bv" data-name="LINE">
      <line class="lz" x1="656.98" y1="720.73" x2="861.92" y2="720.73"/>
    </g>
    <g id="bw" data-name="LINE">
      <line class="lz" x1="861.92" y1="722.85" x2="656.98" y2="722.85"/>
    </g>
    <g id="bx" data-name="LWPOLYLINE">
      <line class="lz" x1="657.87" y1="714.21" x2="668.04" y2="720.73"/>
    </g>
    <g id="by" data-name="LWPOLYLINE">
      <polyline class="lz" points="669.1 720.73 678.75 714.54 688.4 720.73"/>
    </g>
    <g id="bz" data-name="LWPOLYLINE">
      <polyline class="lz" points="689.45 720.73 699.1 714.54 708.75 720.73"/>
    </g>
    <g id="ca" data-name="LWPOLYLINE">
      <polyline class="lz" points="709.8 720.73 719.45 714.54 729.1 720.73"/>
    </g>
    <g id="cb" data-name="LWPOLYLINE">
      <polyline class="lz" points="730.15 720.73 739.8 714.54 749.46 720.73"/>
    </g>
    <g id="cc" data-name="LWPOLYLINE">
      <polyline class="lz" points="750.51 720.73 760.16 714.54 769.81 720.73"/>
    </g>
    <g id="cd" data-name="LWPOLYLINE">
      <polyline class="lz" points="770.86 720.73 780.51 714.54 790.16 720.73"/>
    </g>
    <g id="ce" data-name="LWPOLYLINE">
      <polyline class="lz" points="791.21 720.73 800.86 714.54 810.51 720.73"/>
    </g>
    <g id="cf" data-name="LWPOLYLINE">
      <polyline class="lz" points="811.56 720.73 821.22 714.54 830.87 720.73"/>
    </g>
    <g id="cg" data-name="LWPOLYLINE">
      <polyline class="lz" points="831.92 720.73 841.57 714.54 851.22 720.73"/>
    </g>
    <g id="ch" data-name="LWPOLYLINE">
      <line class="lz" x1="852.27" y1="720.73" x2="861.92" y2="714.54"/>
    </g>
    <g id="ci" data-name="LWPOLYLINE">
      <polyline class="lz" points="658.92 714.21 668.57 720.39 678.22 714.21"/>
    </g>
    <g id="cj" data-name="LWPOLYLINE">
      <polyline class="lz" points="679.27 714.21 688.92 720.39 698.57 714.21"/>
    </g>
    <g id="ck" data-name="LWPOLYLINE">
      <polyline class="lz" points="699.62 714.21 709.28 720.39 718.93 714.21"/>
    </g>
    <g id="cl" data-name="LWPOLYLINE">
      <polyline class="lz" points="719.98 714.21 729.63 720.39 739.28 714.21"/>
    </g>
    <g id="cm" data-name="LWPOLYLINE">
      <polyline class="lz" points="740.33 714.21 749.98 720.39 759.63 714.21"/>
    </g>
    <g id="cn" data-name="LWPOLYLINE">
      <polyline class="lz" points="760.68 714.21 770.33 720.39 779.98 714.21"/>
    </g>
    <g id="co" data-name="LWPOLYLINE">
      <polyline class="lz" points="781.04 714.21 790.69 720.39 800.34 714.21"/>
    </g>
    <g id="cp" data-name="LWPOLYLINE">
      <polyline class="lz" points="801.39 714.21 811.04 720.39 820.69 714.21"/>
    </g>
    <g id="cq" data-name="LWPOLYLINE">
      <polyline class="lz" points="821.74 714.21 831.39 720.39 841.04 714.21"/>
    </g>
    <g id="cr" data-name="LWPOLYLINE">
      <polyline class="lz" points="842.09 714.21 851.74 720.39 861.4 714.21"/>
    </g>
    <g id="cs" data-name="LWPOLYLINE">
      <polyline class="mj" points="656.98 976.27 696.66 976.27 696.66 980.52"/>
    </g>
    <g id="ct" data-name="LINE">
      <line class="lz" x1="696.66" y1="976.27" x2="696.66" y2="900.87"/>
    </g>
    <g id="cu" data-name="LINE">
      <line class="lz" x1="723.59" y1="900.87" x2="723.59" y2="980.52"/>
    </g>
    <g id="cv" data-name="LINE">
      <line class="lz" x1="750.52" y1="900.87" x2="750.52" y2="980.52"/>
    </g>
    <g id="cw" data-name="LINE">
      <line class="lz" x1="777.45" y1="900.87" x2="777.45" y2="980.52"/>
    </g>
    <g id="cx" data-name="LINE">
      <line class="lz" x1="804.38" y1="900.87" x2="804.38" y2="980.52"/>
    </g>
    <g id="cy" data-name="LINE">
      <line class="lz" x1="833.86" y1="900.87" x2="833.86" y2="980.52"/>
    </g>
    <g id="cz" data-name="LINE">
      <line class="lz" x1="696.66" y1="877.62" x2="696.66" y2="811.86"/>
    </g>
    <g id="da" data-name="LINE">
      <line class="lz" x1="723.59" y1="811.86" x2="723.59" y2="877.62"/>
    </g>
    <g id="db" data-name="LINE">
      <line class="lz" x1="750.52" y1="811.86" x2="750.52" y2="877.62"/>
    </g>
    <g id="dc" data-name="LINE">
      <line class="lz" x1="777.45" y1="811.86" x2="777.45" y2="877.62"/>
    </g>
    <g id="dd" data-name="LINE">
      <line class="lz" x1="804.38" y1="811.86" x2="804.38" y2="877.62"/>
    </g>
    <g id="de" data-name="LINE">
      <line class="lz" x1="833.86" y1="811.86" x2="833.86" y2="877.62"/>
    </g>
    <g id="df" data-name="LINE">
      <line class="lz" x1="696.66" y1="788.62" x2="696.66" y2="722.85"/>
    </g>
    <g id="dg" data-name="LINE">
      <line class="mj" x1="859.37" y1="900.87" x2="859.37" y2="980.52"/>
    </g>
    <g id="dh" data-name="LINE">
      <line class="lz" x1="859.37" y1="918.07" x2="696.66" y2="918.07"/>
    </g>
    <g id="di" data-name="LINE">
      <line class="lz" x1="859.37" y1="815.18" x2="696.66" y2="815.18"/>
    </g>
    <g id="dj" data-name="LINE">
      <line class="mj" x1="859.37" y1="811.86" x2="859.37" y2="877.62"/>
    </g>
    <g id="dk" data-name="LINE">
      <line class="lz" x1="723.59" y1="788.62" x2="723.59" y2="722.85"/>
    </g>
    <g id="dl" data-name="LINE">
      <line class="lz" x1="750.52" y1="788.62" x2="750.52" y2="722.85"/>
    </g>
    <g id="dm" data-name="LINE">
      <line class="lz" x1="777.45" y1="788.62" x2="777.45" y2="722.85"/>
    </g>
    <g id="dn" data-name="LINE">
      <line class="lz" x1="804.38" y1="788.62" x2="804.38" y2="722.85"/>
    </g>
    <g id="do" data-name="LINE">
      <line class="lz" x1="833.86" y1="788.62" x2="833.86" y2="722.85"/>
    </g>
    <g id="dp" data-name="LINE">
      <line class="mj" x1="859.37" y1="788.62" x2="859.37" y2="722.85"/>
    </g>
    <g id="dq" data-name="LWPOLYLINE">
      <line class="mj" x1="656.98" y1="712.65" x2="861.92" y2="712.65"/>
    </g>
    <g id="dr" data-name="LWPOLYLINE">
      <line class="mj" x1="656.98" y1="712.08" x2="861.92" y2="712.08"/>
    </g>
    <g id="ds" data-name="LWPOLYLINE">
      <polyline class="mj" points="417.73 725.69 656.98 725.69 656.98 722.85"/>
    </g>
    <g id="dt" data-name="LWPOLYLINE">
      <polyline class="mj" points="417.73 725.12 656.41 725.12 656.41 722.85"/>
    </g>
    <g id="du" data-name="LINE">
      <line class="me" x1="476.69" y1="900.87" x2="476.69" y2="980.52"/>
    </g>
    <g id="dv" data-name="LINE">
      <line class="me" x1="485.2" y1="900.87" x2="485.2" y2="980.52"/>
    </g>
    <g id="dw" data-name="LINE">
      <line class="me" x1="562.58" y1="900.87" x2="562.58" y2="980.52"/>
    </g>
    <g id="dx" data-name="LINE">
      <line class="me" x1="571.09" y1="900.87" x2="571.09" y2="980.52"/>
    </g>
    <g id="dy" data-name="LWPOLYLINE">
      <rect class="me" x="486.61" y="902.29" width="35.86" height="76.82"/>
    </g>
    <g id="dz" data-name="LWPOLYLINE">
      <rect class="me" x="525.31" y="902.29" width="35.86" height="76.82"/>
    </g>
    <g id="ea" data-name="LINE">
      <line class="me" x1="523.89" y1="900.87" x2="523.89" y2="980.52"/>
    </g>
    <g id="eb" data-name="LINE">
      <line class="me" x1="373.51" y1="900.87" x2="373.51" y2="980.79"/>
    </g>
    <g id="ec" data-name="LINE">
      <line class="me" x1="476.69" y1="811.86" x2="476.69" y2="877.62"/>
    </g>
    <g id="ed" data-name="LINE">
      <line class="me" x1="485.2" y1="811.86" x2="485.2" y2="877.62"/>
    </g>
    <g id="ee" data-name="LINE">
      <line class="me" x1="562.58" y1="811.86" x2="562.58" y2="877.62"/>
    </g>
    <g id="ef" data-name="LINE">
      <line class="me" x1="571.09" y1="811.86" x2="571.09" y2="877.62"/>
    </g>
    <g id="eg" data-name="LINE">
      <line class="me" x1="382.02" y1="812.99" x2="382.02" y2="877.62"/>
    </g>
    <g id="eh" data-name="LINE">
      <line class="me" x1="373.51" y1="811.86" x2="373.51" y2="881.03"/>
    </g>
    <g id="ei" data-name="LWPOLYLINE">
      <line class="me" x1="407.24" y1="755.17" x2="407.24" y2="708.68"/>
    </g>
    <g id="ej" data-name="LWPOLYLINE">
      <polyline class="me" points="467.76 725.69 467.76 767.64 425.24 767.64 425.24 725.69"/>
    </g>
    <g id="ek" data-name="LWPOLYLINE">
      <rect class="me" x="426.66" y="727.1" width="39.69" height="39.12"/>
    </g>
    <g id="el" data-name="LWPOLYLINE">
      <polyline class="me" points="549.4 725.69 549.4 767.64 498.38 767.64 498.38 725.69"/>
    </g>
    <g id="em" data-name="LWPOLYLINE">
      <rect class="me" x="499.8" y="727.1" width="48.19" height="39.12"/>
    </g>
    <g id="en" data-name="LWPOLYLINE">
      <polyline class="me" points="633.59 725.69 633.59 767.64 582.57 767.64 582.57 725.69"/>
    </g>
    <g id="eo" data-name="LWPOLYLINE">
      <rect class="me" x="583.98" y="727.1" width="48.19" height="39.12"/>
    </g>
    <g id="ep" data-name="LWPOLYLINE">
      <line class="me" x1="386.83" y1="748.65" x2="407.24" y2="748.65"/>
    </g>
    <g id="eq" data-name="LWPOLYLINE">
      <line class="me" x1="386.83" y1="742.13" x2="407.24" y2="742.13"/>
    </g>
    <g id="er" data-name="LWPOLYLINE">
      <line class="me" x1="386.83" y1="735.61" x2="407.24" y2="735.61"/>
    </g>
    <g id="es" data-name="LWPOLYLINE">
      <line class="me" x1="386.83" y1="729.09" x2="407.24" y2="729.09"/>
    </g>
    <g id="et" data-name="LWPOLYLINE">
      <line class="me" x1="386.83" y1="722.57" x2="407.24" y2="722.57"/>
    </g>
    <g id="eu" data-name="LWPOLYLINE">
      <line class="me" x1="386.83" y1="716.05" x2="407.24" y2="716.05"/>
    </g>
    <g id="ev" data-name="LWPOLYLINE">
      <line class="me" x1="386.83" y1="709.53" x2="407.24" y2="709.53"/>
    </g>
    <g id="ew" data-name="LINE">
      <line class="me" x1="386.83" y1="727.67" x2="386.83" y2="708.68"/>
    </g>
    <g id="ex" data-name="LINE">
      <line class="me" x1="384" y1="727.67" x2="384" y2="708.68"/>
    </g>
    <g id="ey" data-name="LINE">
      <line class="me" x1="382.02" y1="902" x2="382.02" y2="980.52"/>
    </g>
    <g id="ez" data-name="LWPOLYLINE">
      <polygon class="ly" points="373.51 983.92 875.24 983.92 875.24 1006.6 862.49 1006.6 862.49 992.43 386.27 992.43 386.27 1006.6 373.51 1006.6 373.51 983.92"/>
    </g>
    <g id="fa" data-name="LWPOLYLINE">
      <polygon class="ly" points="562.58 886.69 485.2 886.69 485.2 900.87 476.69 900.87 476.69 886.69 382.02 886.69 382.02 900.87 373.51 900.87 373.51 881.03 875.24 881.03 875.24 900.87 863.34 900.87 863.34 886.69 656.98 886.69 656.98 900.87 648.47 900.87 648.47 886.69 571.09 886.69 571.09 900.87 562.58 900.87 562.58 886.69"/>
    </g>
    <g id="fb" data-name="LWPOLYLINE">
      <polyline class="ly" points="379.18 792.02 875.24 792.02 875.24 811.86 863.34 811.86 863.34 797.69 656.98 797.69 656.98 811.86 648.47 811.86 648.47 797.69 571.09 797.69 571.09 811.86 562.58 811.86 562.58 797.69 485.2 797.69 485.2 811.86 476.69 811.86 476.69 797.69 382.02 797.69 382.02 811.86 373.51 811.86 373.51 786.34 379.18 786.36 379.18 792.03"/>
    </g>
    <g id="fc" data-name="LWPOLYLINE">
      <rect class="ly" x="863.34" y="703.01" width="8.5" height="19.84"/>
    </g>
    <g id="fd" data-name="LWPOLYLINE">
      <polyline class="ly" points="386.83 761.69 407.24 761.69 407.24 755.17 386.83 755.17"/>
    </g>
    <g id="fe" data-name="LWPOLYLINE">
      <rect class="ly" x="384" y="727.67" width="2.83" height="34.02"/>
    </g>
    <g id="ff" data-name="LWPOLYLINE">
      <polygon class="ly" points="651.31 703.01 651.31 690.82 656.98 690.82 656.98 722.85 648.47 722.85 648.47 708.68 571.09 708.68 571.09 722.85 562.58 722.85 562.58 708.68 485.2 708.68 485.2 722.85 476.69 722.85 476.69 708.68 416.31 708.68 416.31 722.85 407.81 722.85 407.81 708.68 384 708.68 384 690.82 389.67 690.82 389.67 703.01 651.31 703.01"/>
    </g>
    <g id="fg" data-name="LINE">
      <line class="lz" x1="864.76" y1="902.29" x2="864.76" y2="933.47"/>
    </g>
    <g id="fh" data-name="LINE">
      <line class="lz" x1="381.45" y1="902" x2="381.45" y2="980.52"/>
    </g>
    <g id="fi" data-name="LINE">
      <line class="lz" x1="380.6" y1="902" x2="380.6" y2="980.52"/>
    </g>
    <g id="fj" data-name="LINE">
      <line class="lz" x1="864.76" y1="813.28" x2="864.76" y2="852.4"/>
    </g>
    <g id="fk" data-name="LINE">
      <line class="lz" x1="381.45" y1="812.99" x2="381.45" y2="877.62"/>
    </g>
    <g id="fl" data-name="LINE">
      <line class="lz" x1="380.6" y1="812.99" x2="380.6" y2="877.62"/>
    </g>
    <g id="fm" data-name="LINE">
      <line class="lz" x1="864.76" y1="729.94" x2="864.76" y2="769.06"/>
    </g>
    <g id="fn" data-name="LINE">
      <line class="lz" x1="367.73" y1="640.58" x2="367.73" y2="724.91"/>
    </g>
    <g id="fo" data-name="LINE">
      <line class="lz" x1="368.01" y1="640.58" x2="368.01" y2="724.91"/>
    </g>
    <g id="fp" data-name="LINE">
      <line class="lz" x1="367.73" y1="725.19" x2="367.73" y2="807.75"/>
    </g>
    <g id="fq" data-name="LINE">
      <line class="lz" x1="368.01" y1="725.19" x2="368.01" y2="807.75"/>
    </g>
    <g id="fr" data-name="LINE">
      <line class="mj" x1="863.34" y1="902.29" x2="863.34" y2="933.47"/>
    </g>
    <g id="fs" data-name="LINE">
      <line class="mj" x1="866.17" y1="902.29" x2="866.17" y2="933.47"/>
    </g>
    <g id="ft" data-name="LINE">
      <line class="mj" x1="863.34" y1="813.28" x2="863.34" y2="852.4"/>
    </g>
    <g id="fu" data-name="LINE">
      <line class="mj" x1="866.17" y1="813.28" x2="866.17" y2="852.4"/>
    </g>
    <g id="fv" data-name="LINE">
      <line class="mj" x1="863.34" y1="729.94" x2="863.34" y2="769.06"/>
    </g>
    <g id="fw" data-name="LINE">
      <line class="mj" x1="866.17" y1="729.94" x2="866.17" y2="769.06"/>
    </g>
    <g id="fx" data-name="LWPOLYLINE">
      <g>
        <line class="mj" x1="523.89" y1="900.87" x2="523.19" y2="901.59"/>
        <line class="mc" x1="522.51" y1="902.28" x2="486.23" y2="939.63"/>
        <polyline class="mj" points="485.89 939.98 485.2 940.69 485.89 941.41"/>
        <line class="mc" x1="486.57" y1="942.11" x2="522.85" y2="979.46"/>
        <polyline class="mj" points="523.19 979.8 523.89 980.52 524.59 979.8"/>
        <line class="mc" x1="525.26" y1="979.11" x2="561.55" y2="941.76"/>
        <polyline class="mj" points="561.89 941.41 562.58 940.69 561.89 939.98"/>
        <line class="mc" x1="561.21" y1="939.28" x2="524.93" y2="901.93"/>
        <line class="mj" x1="524.59" y1="901.59" x2="523.89" y2="900.87"/>
      </g>
    </g>
    <g id="fy" data-name="LWPOLYLINE">
      <g>
        <line class="lz" x1="833.86" y1="918.07" x2="834.49" y2="918.85"/>
        <line class="mh" x1="835.15" y1="919.65" x2="858.41" y2="948.12"/>
        <polyline class="lz" points="858.74 948.52 859.37 949.3 858.74 950.07"/>
        <line class="mh" x1="858.08" y1="950.87" x2="834.82" y2="979.35"/>
        <line class="lz" x1="834.49" y1="979.75" x2="833.86" y2="980.52"/>
      </g>
    </g>
    <g id="fz" data-name="LWPOLYLINE">
      <g>
        <line class="lz" x1="833.86" y1="815.18" x2="834.49" y2="815.95"/>
        <line class="mh" x1="835.15" y1="816.75" x2="858.41" y2="845.23"/>
        <polyline class="lz" points="858.74 845.63 859.37 846.4 858.74 847.17"/>
        <line class="mh" x1="858.08" y1="847.98" x2="834.82" y2="876.45"/>
        <line class="lz" x1="834.49" y1="876.85" x2="833.86" y2="877.62"/>
      </g>
    </g>
    <g id="ga" data-name="LWPOLYLINE">
      <g>
        <line class="lz" x1="833.86" y1="725.69" x2="834.49" y2="726.47"/>
        <line class="mb" x1="835.09" y1="727.22" x2="858.44" y2="756.24"/>
        <polyline class="lz" points="858.74 756.61 859.37 757.39 858.74 758.17"/>
        <line class="mh" x1="858.08" y1="758.97" x2="834.82" y2="787.44"/>
        <line class="lz" x1="834.49" y1="787.84" x2="833.86" y2="788.62"/>
      </g>
    </g>
    <g id="gb" data-name="LWPOLYLINE">
      <g>
        <line class="lz" x1="686.74" y1="722.85" x2="686.07" y2="723.59"/>
        <line class="mk" x1="685.41" y1="724.32" x2="657.98" y2="754.63"/>
        <polyline class="lz" points="657.65 754.99 656.98 755.73 657.65 756.48"/>
        <line class="mk" x1="658.31" y1="757.21" x2="685.74" y2="787.51"/>
        <line class="lz" x1="686.07" y1="787.87" x2="686.74" y2="788.62"/>
      </g>
    </g>
    <g id="gc" data-name="LWPOLYLINE">
      <polyline class="mj" points="416.31 722.85 420.57 722.85 420.57 712.93 472.44 712.93 472.44 722.85 476.69 722.85"/>
    </g>
    <g id="gd" data-name="LWPOLYLINE">
      <polyline class="mj" points="485.2 722.85 489.45 722.85 489.45 712.93 558.33 712.93 558.33 722.85 562.58 722.85"/>
    </g>
    <g id="ge" data-name="LWPOLYLINE">
      <polyline class="mj" points="571.09 722.85 575.34 722.85 575.34 712.93 644.22 712.93 644.22 722.85 648.47 722.85"/>
    </g>
    <g id="gf" data-name="LINE">
      <line class="mf" x1="861.92" y1="900.87" x2="656.98" y2="900.87"/>
    </g>
    <g id="gg" data-name="LINE">
      <line class="mf" x1="648.47" y1="900.87" x2="571.09" y2="900.87"/>
    </g>
    <g id="gh" data-name="LINE">
      <line class="mf" x1="562.58" y1="900.87" x2="485.2" y2="900.87"/>
    </g>
    <g id="gi" data-name="LINE">
      <line class="mf" x1="476.69" y1="900.87" x2="382.02" y2="900.87"/>
    </g>
    <g id="gj" data-name="LINE">
      <line class="mf" x1="861.92" y1="811.86" x2="656.98" y2="811.86"/>
    </g>
    <g id="gk" data-name="LINE">
      <line class="mf" x1="648.47" y1="811.86" x2="571.09" y2="811.86"/>
    </g>
    <g id="gl" data-name="LINE">
      <line class="mf" x1="562.58" y1="811.86" x2="485.2" y2="811.86"/>
    </g>
    <g id="gm" data-name="LINE">
      <line class="mf" x1="476.69" y1="811.86" x2="382.02" y2="811.86"/>
    </g>
    <g id="gn" data-name="LINE">
      <line class="mf" x1="644.22" y1="722.85" x2="575.34" y2="722.85"/>
    </g>
    <g id="go" data-name="LINE">
      <line class="mf" x1="558.33" y1="722.85" x2="489.45" y2="722.85"/>
    </g>
    <g id="gp" data-name="LINE">
      <line class="mf" x1="472.44" y1="722.85" x2="420.57" y2="722.85"/>
    </g>
    <g id="gq" data-name="LINE">
      <line class="mf" x1="407.81" y1="786.35" x2="379.18" y2="786.35"/>
    </g>
    <g id="gr" data-name="LWPOLYLINE">
      <rect class="me" x="863.34" y="900.87" width="2.83" height="1.42"/>
    </g>
    <g id="gs" data-name="LWPOLYLINE">
      <rect class="me" x="863.34" y="933.47" width="2.83" height="1.42"/>
    </g>
    <g id="gt" data-name="LWPOLYLINE">
      <rect class="me" x="863.34" y="811.86" width="2.83" height="1.42"/>
    </g>
    <g id="gu" data-name="LWPOLYLINE">
      <rect class="me" x="863.34" y="852.4" width="2.83" height="1.42"/>
    </g>
    <g id="gv" data-name="LWPOLYLINE">
      <rect class="me" x="863.34" y="728.52" width="2.83" height="1.42"/>
    </g>
    <g id="gw" data-name="LWPOLYLINE">
      <rect class="me" x="863.34" y="769.06" width="2.83" height="1.42"/>
    </g>
    <g id="gx" data-name="LWPOLYLINE">
      <rect class="me" x="380.6" y="811.86" width="1.42" height="1.13"/>
    </g>
    <g id="gy" data-name="LWPOLYLINE">
      <rect class="me" x="380.6" y="877.62" width="1.42" height="1.13"/>
    </g>
    <g id="gz" data-name="LWPOLYLINE">
      <rect class="me" x="380.6" y="900.87" width="1.42" height="1.13"/>
    </g>
    <g id="ha" data-name="LWPOLYLINE">
      <rect class="me" x="380.6" y="980.52" width="1.42" height="1.13"/>
    </g>
    <g id="hb" data-name="LWPOLYLINE">
      <rect class="me" x="368.13" y="640.01" width="1.42" height=".85"/>
    </g>
    <g id="hc" data-name="LINE">
      <line class="me" x1="368.13" y1="640.58" x2="367.73" y2="640.58"/>
    </g>
    <g id="hd" data-name="LINE">
      <line class="me" x1="368.13" y1="640.29" x2="367.73" y2="640.29"/>
    </g>
    <g id="he" data-name="LWPOLYLINE">
      <rect class="me" x="368.13" y="724.34" width="1.42" height="1.42"/>
    </g>
    <g id="hf" data-name="LINE">
      <line class="me" x1="368.13" y1="725.19" x2="367.73" y2="725.19"/>
    </g>
    <g id="hg" data-name="LINE">
      <line class="me" x1="368.13" y1="724.91" x2="367.73" y2="724.91"/>
    </g>
    <g id="hh" data-name="LWPOLYLINE">
      <rect class="me" x="368.13" y="807.47" width="1.42" height=".85"/>
    </g>
    <g id="hi" data-name="LINE">
      <line class="me" x1="368.13" y1="808.03" x2="367.73" y2="808.03"/>
    </g>
    <g id="hj" data-name="LINE">
      <line class="me" x1="368.13" y1="807.75" x2="367.73" y2="807.75"/>
    </g>
    <g id="hk" data-name="LINE">
      <line class="lw" x1="871.84" y1="934.88" x2="871.84" y2="900.87"/>
    </g>
    <g id="hl" data-name="LINE">
      <line class="lw" x1="861.92" y1="934.18" x2="861.92" y2="901.58"/>
    </g>
    <g id="hm" data-name="LINE">
      <line class="lw" x1="656.98" y1="900.87" x2="656.98" y2="980.52"/>
    </g>
    <g id="hn" data-name="LINE">
      <line class="lw" x1="648.47" y1="900.87" x2="648.47" y2="980.52"/>
    </g>
    <g id="ho" data-name="LINE">
      <line class="lw" x1="871.84" y1="853.81" x2="871.84" y2="811.86"/>
    </g>
    <g id="hp" data-name="LINE">
      <line class="lw" x1="861.92" y1="853.1" x2="861.92" y2="812.57"/>
    </g>
    <g id="hq" data-name="LINE">
      <line class="lw" x1="656.98" y1="811.86" x2="656.98" y2="877.62"/>
    </g>
    <g id="hr" data-name="LINE">
      <line class="lw" x1="648.47" y1="811.86" x2="648.47" y2="877.62"/>
    </g>
    <g id="hs" data-name="LINE">
      <line class="lw" x1="871.84" y1="770.47" x2="871.84" y2="728.52"/>
    </g>
    <g id="ht" data-name="LINE">
      <line class="lw" x1="861.92" y1="769.77" x2="861.92" y2="729.23"/>
    </g>
    <g id="hu" data-name="LINE">
      <line class="lw" x1="656.98" y1="725.69" x2="656.98" y2="788.62"/>
    </g>
    <g id="hv" data-name="LINE">
      <line class="lw" x1="648.47" y1="722.85" x2="648.47" y2="788.62"/>
    </g>
    <g id="hw" data-name="LWPOLYLINE">
      <polyline class="lw" points="411.5 703.01 411.5 691.67 407.24 691.67 407.24 703.01"/>
    </g>
    <g id="hx" data-name="LWPOLYLINE">
      <polyline class="lw" points="367.42 989.59 367.42 981.09 380.6 980.52 380.6 983.92"/>
    </g>
    <g id="hy" data-name="LWPOLYLINE">
      <polyline class="lw" points="390.38 691.39 390.38 690.54 383.29 690.11 383.29 691.39"/>
    </g>
    <g>
      <g id="hz" data-name="LWPOLYLINE">
        <polyline class="lw" points="656.93 690.64 665.53 689.11 674.12 687.44 682.82 686.44 691.37 684.59 700 683.22 708.59 681.6 717.16 679.88 725.71 678.04 734.38 676.79 743 675.36 751.6 673.77 760.16 671.61 768.77 673.23 777.29 675.04 785.86 676.56 794.36 678.48 802.94 679.94 811.51 681.5 820.11 682.86 828.65 684.55 837.25 685.94 845.75 687.91 854.36 689.24 862.95 690.73"/>
      </g>
      <g id="ia" data-name="LWPOLYLINE">
        <polyline class="lw" points="656.95 695.96 665.61 694.72 674.2 693.11 682.8 691.52 691.4 689.97 699.94 688.04 708.51 686.32 717.15 684.98 725.76 683.49 734.37 681.94 742.98 680.4 751.59 678.88 760.16 676.88 769.37 679.02 778.64 680.6 787.92 682.13 797.2 683.68 806.4 685.64 815.62 687.5 824.95 688.74 834.16 690.67 843.39 692.53 852.64 694.24 861.95 695.69"/>
      </g>
      <g id="ib" data-name="LWPOLYLINE">
        <polyline class="lw" points="750.53 678.72 744.48 683.12 738.33 687.38 732.23 691.73 726.08 695.99 719.86 700.16 713.81 704.58 707.69 708.99 702.93 702.51 698.32 695.98 693.76 689.41"/>
      </g>
      <g id="ic" data-name="LWPOLYLINE">
        <polyline class="lw" points="758.04 678.86 752.15 683.07 746.12 687.06 740.1 691.08 734.23 695.32 728.42 699.63 722.48 703.77 716.56 707.95 710.62 712.09"/>
      </g>
      <g id="id" data-name="LWPOLYLINE">
        <polyline class="lw" points="704.65 712.15 700.96 706.58 697.15 701.1 693.14 695.74 689.56 690.09"/>
      </g>
      <g id="ie" data-name="LWPOLYLINE">
        <polyline class="lw" points="769.71 678.83 775.93 683 781.9 687.51 787.94 691.94 794.24 695.98 800.18 700.56 806.48 704.62 812.66 709.14 817.17 702.36 821.75 695.8 826.39 689.29"/>
      </g>
      <g id="if" data-name="LWPOLYLINE">
        <polyline class="lw" points="762.22 678.94 768.19 683.03 773.97 687.39 780.17 691.15 786.12 695.27 791.78 699.8 797.88 703.71 803.72 708 809.67 712.13"/>
      </g>
      <g id="ig" data-name="LWPOLYLINE">
        <polyline class="lw" points="815.52 712.03 819.26 706.47 823.16 701.02 826.92 695.47 830.87 690.05"/>
      </g>
      <g id="ih" data-name="LINE">
        <polyline class="lw" points="762.01 677.48 762.07 684.4 762.02 691.31 762.15 698.23 762.1 705.16 762.42 712.08"/>
      </g>
      <g id="ii" data-name="LINE">
        <polyline class="lw" points="757.91 677.48 758.01 684.4 757.78 691.31 757.85 698.23 758.19 705.16 757.87 712.08"/>
      </g>
    </g>
    <g id="ij" data-name="LINE">
      <line class="lx" x1="382.02" y1="980.52" x2="861.92" y2="980.52"/>
    </g>
    <g id="ik" data-name="LWPOLYLINE">
      <polyline class="lx" points="861.92 983.92 861.92 934.18 863.34 934.18"/>
    </g>
    <g id="il" data-name="LWPOLYLINE">
      <polyline class="lx" points="863.34 901.58 861.92 901.58 861.92 886.69"/>
    </g>
    <g id="im" data-name="LINE">
      <line class="lx" x1="382.02" y1="877.62" x2="861.92" y2="877.62"/>
    </g>
    <g id="in" data-name="LWPOLYLINE">
      <polyline class="lx" points="861.92 881.03 861.92 853.1 863.34 853.1"/>
    </g>
    <g id="io" data-name="LWPOLYLINE">
      <polyline class="lx" points="863.34 812.57 861.92 812.57 861.92 797.69"/>
    </g>
    <g id="ip" data-name="LINE">
      <line class="lx" x1="417.73" y1="788.62" x2="861.92" y2="788.62"/>
    </g>
    <g id="iq" data-name="LWPOLYLINE">
      <polyline class="lx" points="861.92 792.02 861.92 769.77 863.34 769.77"/>
    </g>
    <g id="ir" data-name="LWPOLYLINE">
      <line class="lx" x1="417.73" y1="722.85" x2="417.73" y2="792.02"/>
    </g>
    <g id="is" data-name="LWPOLYLINE">
      <polyline class="lx" points="651.31 690.82 645.64 690.82 645.64 703.01"/>
    </g>
    <g id="it" data-name="LWPOLYLINE">
      <polyline class="lx" points="863.34 729.23 861.92 729.23 861.92 690.82 874.68 690.82 874.68 722.85 871.84 722.85"/>
    </g>
    <g id="iu" data-name="LWPOLYLINE">
      <path class="lx" d="M662.71,688.33l-.06-.35c-.03-.15.07-.3.23-.33l.7-.13c.15-.03.3.07.33.23l.28,1.53c.03.15-.07.3-.23.33l-.7.13c-.15.03-.3-.07-.33-.23l-.06-.35"/>
    </g>
    <g id="iv" data-name="LWPOLYLINE">
      <path class="lx" d="M675.26,686.02l-.06-.35c-.03-.15.07-.3.23-.33l.7-.13c.15-.03.3.07.33.23l.28,1.53c.03.15-.07.3-.23.33l-.7.13c-.15.03-.3-.07-.33-.23l-.06-.35"/>
    </g>
    <g id="iw" data-name="LWPOLYLINE">
      <path class="lx" d="M687.8,683.71l-.06-.35c-.03-.15.07-.3.23-.33l.7-.13c.15-.03.3.07.33.23l.28,1.53c.03.15-.07.3-.23.33l-.7.13c-.15.03-.3-.07-.33-.23l-.06-.35"/>
    </g>
    <g id="ix" data-name="LWPOLYLINE">
      <path class="lx" d="M700.35,681.4l-.06-.35c-.03-.15.07-.3.23-.33l.7-.13c.15-.03.3.07.33.23l.28,1.53c.03.15-.07.3-.23.33l-.7.13c-.15.03-.3-.07-.33-.23l-.06-.35"/>
    </g>
    <g id="iy" data-name="LWPOLYLINE">
      <path class="lx" d="M712.89,679.09l-.06-.35c-.03-.15.07-.3.23-.33l.7-.13c.15-.03.3.07.33.23l.28,1.53c.03.15-.07.3-.23.33l-.7.13c-.15.03-.3-.07-.33-.23l-.06-.35"/>
    </g>
    <g id="iz" data-name="LWPOLYLINE">
      <path class="lx" d="M725.44,676.78l-.06-.35c-.03-.15.07-.3.23-.33l.7-.13c.15-.03.3.07.33.23l.28,1.53c.03.15-.07.3-.23.33l-.7.13c-.15.03-.3-.07-.33-.23l-.06-.35"/>
    </g>
    <g id="ja" data-name="LWPOLYLINE">
      <path class="lx" d="M737.98,674.47l-.06-.35c-.03-.15.07-.3.23-.33l.7-.13c.15-.03.3.07.33.23l.28,1.53c.03.15-.07.3-.23.33l-.7.13c-.15.03-.3-.07-.33-.23l-.06-.35"/>
    </g>
    <g id="jb" data-name="LWPOLYLINE">
      <path class="lx" d="M750.53,672.16l-.06-.35c-.03-.15.07-.3.23-.33l.7-.13c.15-.03.3.07.33.23l.28,1.53c.03.15-.07.3-.23.33l-.7.13c-.15.03-.3-.07-.33-.23l-.06-.35"/>
    </g>
    <g id="jc" data-name="LWPOLYLINE">
      <path class="lx" d="M663.14,710.59v-.35c0-.16.13-.28.28-.28h.71c.16,0,.28.13.28.28v1.56c0,.16-.13.28-.28.28h-.71c-.16,0-.28-.13-.28-.28v-.35"/>
    </g>
    <g id="jd" data-name="LWPOLYLINE">
      <path class="lx" d="M675.9,710.59v-.35c0-.16.13-.28.28-.28h.71c.16,0,.28.13.28.28v1.56c0,.16-.13.28-.28.28h-.71c-.16,0-.28-.13-.28-.28v-.35"/>
    </g>
    <g id="je" data-name="LWPOLYLINE">
      <path class="lx" d="M688.65,710.59v-.35c0-.16.13-.28.28-.28h.71c.16,0,.28.13.28.28v1.56c0,.16-.13.28-.28.28h-.71c-.16,0-.28-.13-.28-.28v-.35"/>
    </g>
    <g id="jf" data-name="LWPOLYLINE">
      <path class="lx" d="M701.41,710.59v-.35c0-.16.13-.28.28-.28h.71c.16,0,.28.13.28.28v1.56c0,.16-.13.28-.28.28h-.71c-.16,0-.28-.13-.28-.28v-.35"/>
    </g>
    <g id="jg" data-name="LWPOLYLINE">
      <path class="lx" d="M714.17,710.59v-.35c0-.16.13-.28.28-.28h.71c.16,0,.28.13.28.28v1.56c0,.16-.13.28-.28.28h-.71c-.16,0-.28-.13-.28-.28v-.35"/>
    </g>
    <g id="jh" data-name="LWPOLYLINE">
      <path class="lx" d="M726.92,710.59v-.35c0-.16.13-.28.28-.28h.71c.16,0,.28.13.28.28v1.56c0,.16-.13.28-.28.28h-.71c-.16,0-.28-.13-.28-.28v-.35"/>
    </g>
    <g id="ji" data-name="LWPOLYLINE">
      <path class="lx" d="M739.68,710.59v-.35c0-.16.13-.28.28-.28h.71c.16,0,.28.13.28.28v1.56c0,.16-.13.28-.28.28h-.71c-.16,0-.28-.13-.28-.28v-.35"/>
    </g>
    <g id="jj" data-name="LWPOLYLINE">
      <path class="lx" d="M752.43,710.59v-.35c0-.16.13-.28.28-.28h.71c.16,0,.28.13.28.28v1.56c0,.16-.13.28-.28.28h-.71c-.16,0-.28-.13-.28-.28v-.35"/>
    </g>
    <g id="jk" data-name="LWPOLYLINE">
      <path class="lx" d="M765.19,710.59v-.35c0-.16.13-.28.28-.28h.71c.16,0,.28.13.28.28v1.56c0,.16-.13.28-.28.28h-.71c-.16,0-.28-.13-.28-.28v-.35"/>
    </g>
    <g id="jl" data-name="LWPOLYLINE">
      <path class="lx" d="M777.94,710.59v-.35c0-.16.13-.28.28-.28h.71c.16,0,.28.13.28.28v1.56c0,.16-.13.28-.28.28h-.71c-.16,0-.28-.13-.28-.28v-.35"/>
    </g>
    <g id="jm" data-name="LWPOLYLINE">
      <path class="lx" d="M790.7,710.59v-.35c0-.16.13-.28.28-.28h.71c.16,0,.28.13.28.28v1.56c0,.16-.13.28-.28.28h-.71c-.16,0-.28-.13-.28-.28v-.35"/>
    </g>
    <g id="jn" data-name="LWPOLYLINE">
      <path class="lx" d="M803.46,710.59v-.35c0-.16.13-.28.28-.28h.71c.16,0,.28.13.28.28v1.56c0,.16-.13.28-.28.28h-.71c-.16,0-.28-.13-.28-.28v-.35"/>
    </g>
    <g id="jo" data-name="LWPOLYLINE">
      <path class="lx" d="M816.21,710.59v-.35c0-.16.13-.28.28-.28h.71c.16,0,.28.13.28.28v1.56c0,.16-.13.28-.28.28h-.71c-.16,0-.28-.13-.28-.28v-.35"/>
    </g>
    <g id="jp" data-name="LWPOLYLINE">
      <path class="lx" d="M828.97,710.59v-.35c0-.16.13-.28.28-.28h.71c.16,0,.28.13.28.28v1.56c0,.16-.13.28-.28.28h-.71c-.16,0-.28-.13-.28-.28v-.35"/>
    </g>
    <g id="jq" data-name="LWPOLYLINE">
      <path class="lx" d="M841.72,710.59v-.35c0-.16.13-.28.28-.28h.71c.16,0,.28.13.28.28v1.56c0,.16-.13.28-.28.28h-.71c-.16,0-.28-.13-.28-.28v-.35"/>
    </g>
    <g id="jr" data-name="LWPOLYLINE">
      <path class="lx" d="M854.48,710.59v-.35c0-.16.13-.28.28-.28h.71c.16,0,.28.13.28.28v1.56c0,.16-.13.28-.28.28h-.71c-.16,0-.28-.13-.28-.28v-.35"/>
    </g>
    <g id="js" data-name="LINE">
      <line class="lx" x1="380.6" y1="878.76" x2="380.6" y2="881.03"/>
    </g>
    <g id="jt" data-name="LWPOLYLINE">
      <path class="lx" d="M857.6,688.33l.06-.35c.03-.15-.07-.3-.23-.33l-.7-.13c-.15-.03-.3.07-.33.23l-.28,1.53c-.03.15.07.3.23.33l.7.13c.15.03.3-.07.33-.23l.06-.35"/>
    </g>
    <g id="ju" data-name="LWPOLYLINE">
      <path class="lx" d="M845.06,686.02l.06-.35c.03-.15-.07-.3-.23-.33l-.7-.13c-.15-.03-.3.07-.33.23l-.28,1.53c-.03.15.07.3.23.33l.7.13c.15.03.3-.07.33-.23l.06-.35"/>
    </g>
    <g id="jv" data-name="LWPOLYLINE">
      <path class="lx" d="M832.51,683.71l.06-.35c.03-.15-.07-.3-.23-.33l-.7-.13c-.15-.03-.3.07-.33.23l-.28,1.53c-.03.15.07.3.23.33l.7.13c.15.03.3-.07.33-.23l.06-.35"/>
    </g>
    <g id="jw" data-name="LWPOLYLINE">
      <path class="lx" d="M819.97,681.4l.06-.35c.03-.15-.07-.3-.23-.33l-.7-.13c-.15-.03-.3.07-.33.23l-.28,1.53c-.03.15.07.3.23.33l.7.13c.15.03.3-.07.33-.23l.06-.35"/>
    </g>
    <g id="jx" data-name="LWPOLYLINE">
      <path class="lx" d="M807.42,679.09l.06-.35c.03-.15-.07-.3-.23-.33l-.7-.13c-.15-.03-.3.07-.33.23l-.28,1.53c-.03.15.07.3.23.33l.7.13c.15.03.3-.07.33-.23l.06-.35"/>
    </g>
    <g id="jy" data-name="LWPOLYLINE">
      <path class="lx" d="M794.88,676.78l.06-.35c.03-.15-.07-.3-.23-.33l-.7-.13c-.15-.03-.3.07-.33.23l-.28,1.53c-.03.15.07.3.23.33l.7.13c.15.03.3-.07.33-.23l.06-.35"/>
    </g>
    <g id="jz" data-name="LWPOLYLINE">
      <path class="lx" d="M782.33,674.47l.06-.35c.03-.15-.07-.3-.23-.33l-.7-.13c-.15-.03-.3.07-.33.23l-.28,1.53c-.03.15.07.3.23.33l.7.13c.15.03.3-.07.33-.23l.06-.35"/>
    </g>
    <g id="ka" data-name="LWPOLYLINE">
      <path class="lx" d="M769.79,672.16l.06-.35c.03-.15-.07-.3-.23-.33l-.7-.13c-.15-.03-.3.07-.33.23l-.28,1.53c-.03.15.07.3.23.33l.7.13c.15.03.3-.07.33-.23l.06-.35"/>
    </g>
    <g id="kb" data-name="LWPOLYLINE">
      <polyline class="ma" points="871.84 983.92 871.84 934.88 863.34 934.88 863.34 983.92"/>
    </g>
    <g id="kc" data-name="LWPOLYLINE">
      <polyline class="ma" points="869.01 983.92 869.01 937.72 866.17 937.72 866.17 983.92"/>
    </g>
    <g id="kd" data-name="LWPOLYLINE">
      <polyline class="ma" points="871.84 881.03 871.84 853.81 863.34 853.81 863.34 881.03"/>
    </g>
    <g id="ke" data-name="LWPOLYLINE">
      <polyline class="ma" points="869.01 881.03 869.01 856.65 866.17 856.65 866.17 881.03"/>
    </g>
    <g id="kf" data-name="LWPOLYLINE">
      <polyline class="ma" points="871.84 792.02 871.84 770.47 863.34 770.47 863.34 792.02"/>
    </g>
    <g id="kg" data-name="LWPOLYLINE">
      <polyline class="ma" points="869.01 792.02 869.01 773.31 866.17 773.31 866.17 792.02"/>
    </g>
    <g id="kh" data-name="LWPOLYLINE">
      <line class="ma" x1="413.48" y1="792.03" x2="413.48" y2="722.85"/>
    </g>
    <g id="ki" data-name="LWPOLYLINE">
      <line class="ma" x1="410.65" y1="792.03" x2="410.65" y2="722.85"/>
    </g>
    <g id="kj" data-name="LWPOLYLINE">
      <line class="ma" x1="407.81" y1="792.03" x2="407.81" y2="722.85"/>
    </g>
    <g id="kk" data-name="LWPOLYLINE">
      <line class="ma" x1="416.31" y1="722.85" x2="416.31" y2="792.03"/>
    </g>
    <g id="kl" data-name="LWPOLYLINE">
      <polyline class="ma" points="863.34 722.85 863.34 728.52 871.84 728.52 871.84 722.85"/>
    </g>
    <g id="km" data-name="LWPOLYLINE">
      <polyline class="ma" points="866.17 722.85 866.17 725.69 869.01 725.69 869.01 722.85"/>
    </g>
    <g id="kn" data-name="LINE">
      <line class="ma" x1="372.38" y1="722.21" x2="384" y2="722.21"/>
    </g>
    <g id="ko" data-name="LINE">
      <line class="ma" x1="372.38" y1="727.88" x2="384" y2="727.88"/>
    </g>
    <g id="kp" data-name="LINE">
      <line class="ma" x1="372.38" y1="640.01" x2="399.02" y2="640.01"/>
    </g>
    <g id="kq" data-name="LINE">
      <line class="ma" x1="372.38" y1="645.68" x2="399.02" y2="645.68"/>
    </g>
    <g id="kr" data-name="LINE">
      <line class="ma" x1="372.38" y1="645.68" x2="372.38" y2="722.21"/>
    </g>
    <g id="ks" data-name="LINE">
      <line class="ma" x1="372.38" y1="727.88" x2="372.38" y2="802.65"/>
    </g>
    <g id="kt" data-name="LINE">
      <line class="ma" x1="369.54" y1="727.88" x2="369.54" y2="802.65"/>
    </g>
    <g id="ku" data-name="LINE">
      <line class="ma" x1="369.54" y1="645.68" x2="369.54" y2="722.21"/>
    </g>
    <g id="kv" data-name="LINE">
      <line class="ma" x1="372.38" y1="802.65" x2="373.51" y2="802.65"/>
    </g>
    <g id="kw" data-name="LINE">
      <line class="ma" x1="372.38" y1="808.32" x2="373.51" y2="808.32"/>
    </g>
    <g id="kx" data-name="LWPOLYLINE">
      <rect class="ma" x="369.54" y="802.65" width="2.83" height="5.67"/>
    </g>
    <g id="ky" data-name="LWPOLYLINE">
      <rect class="ma" x="369.8" y="802.9" width="2.32" height="5.16"/>
    </g>
    <g id="kz" data-name="LWPOLYLINE">
      <rect class="ma" x="369.54" y="722.21" width="2.83" height="5.67"/>
    </g>
    <g id="la" data-name="LWPOLYLINE">
      <rect class="ma" x="369.8" y="722.47" width="2.32" height="5.16"/>
    </g>
    <g id="lb" data-name="LWPOLYLINE">
      <rect class="ma" x="369.54" y="640.01" width="2.83" height="5.67"/>
    </g>
    <g id="lc" data-name="LWPOLYLINE">
      <rect class="ma" x="369.8" y="640.26" width="2.32" height="5.16"/>
    </g>
    <g id="ld" data-name="LWPOLYLINE">
      <rect class="ma" x="399.02" y="640.01" width="2.83" height="5.67"/>
    </g>
    <g id="le" data-name="LWPOLYLINE">
      <rect class="ma" x="399.28" y="640.26" width="2.32" height="5.16"/>
    </g>
    <g id="lf" data-name="LWPOLYLINE">
      <polygon class="ma" points="642.48 687.08 760.16 665.42 877.83 687.08 877.06 691.26 760.16 669.74 643.25 691.26 642.48 687.08"/>
    </g>
    <g id="lg" data-name="LWPOLYLINE">
      <polyline class="ma" points="874.68 690.82 874.68 694.99 880.35 694.99 880.35 690.82"/>
    </g>
    <g id="lh" data-name="LINE">
      <line class="mi" y1="989.59" x2="373.51" y2="989.59"/>
    </g>
    <g id="li" data-name="LINE">
      <line class="mi" x1="875.24" y1="989.59" x2="1200" y2="989.59"/>
    </g>
  </g>
  <g id="lp" data-name="SCALE">
    <g>
      <g id="lq" data-name="MTEXT">
        <path class="md" d="M84.76,1545.39h-1.79v-13.44l-2.47,1.6-.9-1.43,3.39-2.15h1.77v15.42Z"/>
      </g>
      <g id="lr" data-name="MTEXT">
        <g>
          <path class="md" d="M326.19,1545.39h-1.79v-13.44l-2.47,1.6-.9-1.43,3.39-2.15h1.77v15.42Z"/>
          <path class="md" d="M332.13,1544.54c-.85-.67-1.51-1.6-1.98-2.79-.48-1.19-.71-2.55-.71-4.07s.24-2.86.71-4.05c.48-1.19,1.14-2.13,1.98-2.79.85-.67,1.81-1,2.89-1s2.04.33,2.89,1,1.51,1.6,1.98,2.79c.48,1.19.71,2.55.71,4.05s-.24,2.88-.71,4.06-1.14,2.12-1.98,2.79c-.85.68-1.81,1.01-2.89,1.01s-2.04-.33-2.89-1ZM337,1543.15c.58-.54,1.03-1.28,1.35-2.23.32-.95.48-2.03.48-3.25s-.16-2.31-.48-3.26c-.32-.95-.77-1.7-1.35-2.23-.58-.53-1.24-.8-1.98-.8s-1.4.27-1.97.8c-.58.53-1.03,1.28-1.35,2.23-.33.95-.49,2.03-.49,3.24s.16,2.33.49,3.27c.33.95.78,1.69,1.35,2.23.58.54,1.23.81,1.97.81s1.4-.27,1.98-.81Z"/>
          <path class="md" d="M355.51,1537.74c-.39-.45-.89-.67-1.5-.67-.47,0-.89.1-1.25.29-.36.19-.65.46-.86.8s-.32.73-.32,1.17v6.1h-1.77v-5.93c0-.73-.19-1.31-.58-1.76-.38-.45-.88-.67-1.49-.67-.46,0-.87.12-1.25.35-.38.23-.67.55-.87.96s-.31.84-.31,1.31v5.74h-1.77v-9.94h1.77v1.75l-.19-.06c.3-.5.7-.9,1.19-1.22.5-.31,1-.47,1.51-.47.61,0,1.2.17,1.76.51.56.34.98.78,1.27,1.32.33-.54.79-.98,1.39-1.32s1.2-.51,1.81-.51c.74,0,1.4.17,1.98.5.58.33,1.04.79,1.37,1.37.33.58.49,1.24.49,1.99v6.08h-1.79v-5.93c0-.73-.2-1.31-.59-1.76Z"/>
        </g>
      </g>
      <g id="ls" data-name="MTEXT">
        <path class="md" d="M194.51,1535.8c.73-.33,1.44-.5,2.12-.5,1.02,0,1.94.22,2.74.65.8.43,1.43,1.03,1.88,1.8.45.77.67,1.65.67,2.65s-.22,1.91-.66,2.69c-.44.78-1.06,1.4-1.87,1.85-.8.45-1.72.67-2.76.67-.8,0-1.55-.17-2.25-.5s-1.3-.8-1.79-1.4-.82-1.27-.99-2.03l1.73-.41c.17.78.57,1.42,1.18,1.91s1.33.74,2.12.74c.67,0,1.27-.15,1.8-.45.53-.3.95-.72,1.26-1.26.31-.54.46-1.14.46-1.81s-.15-1.26-.46-1.78c-.31-.52-.73-.92-1.26-1.22s-1.13-.44-1.8-.44c-.44,0-.9.12-1.39.35-.48.23-.88.54-1.19.91l-1.32-1.15c.46-.51,1.05-.94,1.78-1.27ZM192.28,1537.97l.49-8.04h7.89v1.58h-6.19l-.43,6.72-1.77-.26Z"/>
      </g>
      <g id="lt" data-name="MTEXT">
        <path class="md" d="M108.54,1542.96c.25-.23.57-.51.95-.85,1.24-1.14,2.23-2.09,2.99-2.87.75-.77,1.39-1.56,1.92-2.37.53-.8.79-1.55.79-2.23,0-.64-.12-1.21-.37-1.7-.25-.49-.59-.87-1.03-1.15s-.95-.42-1.54-.42c-.63,0-1.23.21-1.82.64-.59.43-1.03.97-1.33,1.64l-1.6-.68c.4-.94,1.05-1.71,1.94-2.3s1.83-.9,2.82-.9c.92,0,1.75.21,2.46.62.72.41,1.28.98,1.67,1.72.4.73.6,1.58.6,2.53s-.3,1.87-.9,2.85c-.6.97-1.31,1.88-2.13,2.72-.83.84-1.9,1.85-3.22,3.03-.65.6-1.27,1.17-1.86,1.73l-1.26-1.13c.37-.35.68-.65.93-.87ZM107.61,1543.83h9.62v1.58h-9.39l-.23-1.58Z"/>
      </g>
      <g id="lu" data-name="MTEXT">
        <path class="md" d="M53.81,1544.54c-.85-.67-1.51-1.6-1.98-2.79-.48-1.19-.71-2.55-.71-4.07s.24-2.86.71-4.05c.48-1.19,1.14-2.13,1.98-2.79.85-.67,1.81-1,2.89-1s2.04.33,2.89,1,1.51,1.6,1.98,2.79c.48,1.19.71,2.55.71,4.05s-.24,2.88-.71,4.06-1.14,2.12-1.98,2.79c-.85.68-1.81,1.01-2.89,1.01s-2.04-.33-2.89-1ZM58.68,1543.15c.58-.54,1.03-1.28,1.35-2.23.32-.95.48-2.03.48-3.25s-.16-2.31-.48-3.26c-.32-.95-.77-1.7-1.35-2.23-.58-.53-1.24-.8-1.98-.8s-1.4.27-1.97.8c-.58.53-1.03,1.28-1.35,2.23-.33.95-.49,2.03-.49,3.24s.16,2.33.49,3.27c.33.95.78,1.69,1.35,2.23.58.54,1.23.81,1.97.81s1.4-.27,1.98-.81Z"/>
      </g>
      <g id="lv" data-name="LWPOLYLINE">
        <polyline class="lx" points="55.81 1524.52 55.81 1501.84 84.15 1501.84 84.15 1524.52 112.5 1524.52 112.5 1501.84 197.54 1501.84 197.54 1524.52 339.27 1524.52 339.27 1501.84"/>
      </g>
    </g>
  </g>
</svg>