<?xml version="1.0" encoding="UTF-8"?>
<svg xmlns="http://www.w3.org/2000/svg" viewBox="0 0 1200 1600">
  <defs>
    <style>
      .fq, .fr, .fs, .ft, .fu, .fv, .fw {
        stroke: #000;
      }

      .fq, .fr, .fs, .fu, .fv {
        fill: none;
      }

      .fq, .fr, .fs, .fu, .fv, .fw {
        stroke-miterlimit: 10;
      }

      .fq, .ft, .fw {
        stroke-width: .5px;
      }

      .fr {
        stroke-width: .65px;
      }

      .fs {
        stroke-width: .15px;
      }

      .fu {
        stroke-width: .35px;
      }

      .fv {
        stroke-width: .25px;
      }

      .fw {
        fill: #060001;
        fill-rule: evenodd;
      }
    </style>
  </defs>
  <g id="at" data-name="RF">
    <g id="au" data-name="HATCH">
      <path class="fs" d="M359.37,754.93v-112.25M359.37,637.01v-112.25M364.77,754.93v-112.25M364.77,637.01v-112.25M370.17,754.93v-112.25M370.17,637.01v-112.25M375.57,754.93v-112.25M375.57,637.01v-112.25M380.97,754.93v-112.25M380.97,637.01v-112.25M386.37,754.93v-112.25M386.37,637.01v-112.25M391.77,754.93v-112.25M391.77,637.01v-112.25M397.17,754.93v-112.25M397.17,637.01v-112.25M402.57,754.93v-112.25M402.57,637.01v-112.25M407.97,754.93v-112.25M407.97,637.01v-112.25M413.37,754.93v-112.25M413.37,637.01v-112.25M418.77,754.93v-112.25M418.77,637.01v-112.25M424.17,754.93v-112.25M424.17,637.01v-112.25M429.57,754.93v-112.25M429.57,637.01v-112.25M434.97,754.93v-112.25M434.97,637.01v-112.25M440.37,754.93v-112.25M440.37,637.01v-112.25M445.77,754.93v-112.25M445.77,637.01v-112.25M451.17,754.93v-112.25M451.17,637.01v-112.25M456.57,754.93v-112.25M456.57,637.01v-112.25M461.97,754.93v-112.25M461.97,637.01v-112.25M467.37,754.93v-112.25M467.37,637.01v-112.25M472.77,754.93v-112.25M472.77,637.01v-112.25M478.17,754.93v-112.25M478.17,637.01v-112.25M483.57,754.93v-112.25M483.57,637.01v-112.25M488.97,754.93v-112.25M488.97,637.01v-112.25M494.37,754.93v-112.25M494.37,637.01v-112.25M499.77,754.93v-112.25M499.77,637.01v-112.25M505.17,754.93v-112.25M505.17,637.01v-112.25M510.57,754.93v-112.25M510.57,637.01v-112.25M515.97,754.93v-112.25M515.97,637.01v-112.25M521.37,754.93v-112.25M521.37,637.01v-112.25M526.77,754.93v-112.25M526.77,637.01v-112.25M532.17,754.93v-112.25M532.17,637.01v-112.25M537.57,754.93v-112.25M537.57,637.01v-112.25M542.97,754.93v-112.25M542.97,637.01v-112.25M548.37,754.93v-112.25M548.37,637.01v-112.25M553.77,754.93v-112.25M553.77,637.01v-112.25M559.17,754.93v-112.25M559.17,637.01v-112.25M564.57,754.93v-112.25M564.57,637.01v-112.25M569.97,754.93v-112.25M569.97,637.01v-112.25M575.37,754.93v-112.25M575.37,637.01v-112.25M580.77,754.93v-112.25M580.77,637.01v-112.25M586.17,754.93v-112.25M586.17,637.01v-112.25M591.57,754.93v-112.25M591.57,637.01v-112.25M596.97,754.93v-112.25M596.97,637.01v-112.25M602.37,754.93v-112.25M602.37,637.01v-112.25M607.77,754.93v-112.25M607.77,637.01v-112.25M613.17,754.93v-112.25M613.17,637.01v-112.25M618.57,754.93v-112.25M618.57,637.01v-112.25M623.97,754.93v-112.25M623.97,637.01v-112.25M629.37,754.93v-112.25M629.37,637.01v-112.25M634.77,754.93v-112.25M634.77,637.01v-112.25M640.17,754.93v-112.25M640.17,637.01v-112.25M645.57,754.93v-112.25M645.57,637.01v-112.25M650.97,754.93v-112.25M650.97,637.01v-112.25M656.37,754.93v-112.25M656.37,637.01v-112.25M661.77,754.93v-112.25M661.77,637.01v-112.25M667.17,754.93v-112.25M667.17,637.01v-112.25M672.57,754.93v-112.25M672.57,637.01v-112.25M677.97,754.93v-112.25M677.97,637.01v-112.25M683.37,754.93v-112.25M683.37,637.01v-112.25M688.77,754.93v-112.25M688.77,637.01v-112.25M694.17,754.93v-112.25M694.17,637.01v-112.25M699.57,754.93v-112.25M699.57,637.01v-112.25M704.97,754.93v-112.25M704.97,637.01v-112.25M710.37,754.93v-112.25M710.37,637.01v-112.25M715.77,754.93v-112.25M715.77,637.01v-112.25M721.17,754.93v-112.25M721.17,637.01v-112.25M726.57,754.93v-112.25M726.57,637.01v-112.25M731.97,754.93v-112.25M731.97,637.01v-112.25M737.37,754.93v-112.25M737.37,637.01v-112.25M742.77,754.93v-112.25M742.77,637.01v-112.25M748.17,754.93v-112.25M748.17,637.01v-112.25M753.57,754.93v-112.25M753.57,637.01v-112.25M758.97,754.93v-112.25M758.97,637.01v-112.25M764.37,754.93v-112.25M764.37,637.01v-112.25M769.77,754.93v-112.25M769.77,637.01v-112.25M775.17,754.93v-112.25M775.17,637.01v-112.25M780.57,754.93v-112.25M780.57,637.01v-112.25M785.97,754.93v-112.25M785.97,637.01v-112.25M791.37,754.93v-112.25M791.37,637.01v-112.25M796.77,754.93v-112.25M796.77,637.01v-112.25M802.17,754.93v-112.25M802.17,637.01v-112.25M807.57,754.93v-112.25M807.57,637.01v-112.25M812.97,754.93v-112.25M812.97,637.01v-112.25M818.37,754.93v-112.25M818.37,637.01v-112.25M823.77,754.93v-112.25M823.77,637.01v-112.25M829.17,754.93v-112.25M829.17,637.01v-112.25M834.57,754.93v-112.25M834.57,637.01v-112.25M839.97,754.93v-112.25M839.97,637.01v-112.25M845.37,754.93v-112.25M845.37,637.01v-112.25M850.77,754.93v-112.25M850.77,637.01v-112.25M856.17,754.93v-112.25M856.17,637.01v-112.25M861.57,754.93v-112.25M861.57,637.01v-112.25M866.97,754.93v-112.25M866.97,637.01v-112.25M872.37,754.93v-112.25M872.37,637.01v-112.25M877.77,754.93v-112.25M877.77,637.01v-112.25M355.77,754.93v-112.25M355.77,637.01v-112.25M361.17,754.93v-112.25M361.17,637.01v-112.25M366.57,754.93v-112.25M366.57,637.01v-112.25M371.97,754.93v-112.25M371.97,637.01v-112.25M377.37,754.93v-112.25M377.37,637.01v-112.25M382.77,754.93v-112.25M382.77,637.01v-112.25M388.17,754.93v-112.25M388.17,637.01v-112.25M393.57,754.93v-112.25M393.57,637.01v-112.25M398.97,754.93v-112.25M398.97,637.01v-112.25M404.37,754.93v-112.25M404.37,637.01v-112.25M409.77,754.93v-112.25M409.77,637.01v-112.25M415.17,754.93v-112.25M415.17,637.01v-112.25M420.57,754.93v-112.25M420.57,637.01v-112.25M425.97,754.93v-112.25M425.97,637.01v-112.25M431.37,754.93v-112.25M431.37,637.01v-112.25M436.77,754.93v-112.25M436.77,637.01v-112.25M442.17,754.93v-112.25M442.17,637.01v-112.25M447.57,754.93v-112.25M447.57,637.01v-112.25M452.97,754.93v-112.25M452.97,637.01v-112.25M458.37,754.93v-112.25M458.37,637.01v-112.25M463.77,754.93v-112.25M463.77,637.01v-112.25M469.17,754.93v-112.25M469.17,637.01v-112.25M474.57,754.93v-112.25M474.57,637.01v-112.25M479.97,754.93v-112.25M479.97,637.01v-112.25M485.37,754.93v-112.25M485.37,637.01v-112.25M490.77,754.93v-112.25M490.77,637.01v-112.25M496.17,754.93v-112.25M496.17,637.01v-112.25M501.57,754.93v-112.25M501.57,637.01v-112.25M506.97,754.93v-112.25M506.97,637.01v-112.25M512.37,754.93v-112.25M512.37,637.01v-112.25M517.77,754.93v-112.25M517.77,637.01v-112.25M523.17,754.93v-112.25M523.17,637.01v-112.25M528.57,754.93v-112.25M528.57,637.01v-112.25M533.97,754.93v-112.25M533.97,637.01v-112.25M539.37,754.93v-112.25M539.37,637.01v-112.25M544.77,754.93v-112.25M544.77,637.01v-112.25M550.17,754.93v-112.25M550.17,637.01v-112.25M555.57,754.93v-112.25M555.57,637.01v-112.25M560.97,754.93v-112.25M560.97,637.01v-112.25M566.37,754.93v-112.25M566.37,637.01v-112.25M571.77,754.93v-112.25M571.77,637.01v-112.25M577.17,754.93v-112.25M577.17,637.01v-112.25M582.57,754.93v-112.25M582.57,637.01v-112.25M587.97,754.93v-112.25M587.97,637.01v-112.25M593.37,754.93v-112.25M593.37,637.01v-112.25M598.77,754.93v-112.25M598.77,637.01v-112.25M604.17,754.93v-112.25M604.17,637.01v-112.25M609.57,754.93v-112.25M609.57,637.01v-112.25M614.97,754.93v-112.25M614.97,637.01v-112.25M620.37,754.93v-112.25M620.37,637.01v-112.25M625.77,754.93v-112.25M625.77,637.01v-112.25M631.17,754.93v-112.25M631.17,637.01v-112.25M636.57,754.93v-112.25M636.57,637.01v-112.25M641.97,754.93v-112.25M641.97,637.01v-112.25M647.37,754.93v-112.25M647.37,637.01v-112.25M652.77,754.93v-112.25M652.77,637.01v-112.25M658.17,754.93v-112.25M658.17,637.01v-112.25M663.57,754.93v-112.25M663.57,637.01v-112.25M668.97,754.93v-112.25M668.97,637.01v-112.25M674.37,754.93v-112.25M674.37,637.01v-112.25M679.77,754.93v-112.25M679.77,637.01v-112.25M685.17,754.93v-112.25M685.17,637.01v-112.25M690.57,754.93v-112.25M690.57,637.01v-112.25M695.97,754.93v-112.25M695.97,637.01v-112.25M701.37,754.93v-112.25M701.37,637.01v-112.25M706.77,754.93v-112.25M706.77,637.01v-112.25M712.17,754.93v-112.25M712.17,637.01v-112.25M717.57,754.93v-112.25M717.57,637.01v-112.25M722.97,754.93v-112.25M722.97,637.01v-112.25M728.37,754.93v-112.25M728.37,637.01v-112.25M733.77,754.93v-112.25M733.77,637.01v-112.25M739.17,754.93v-112.25M739.17,637.01v-112.25M744.57,754.93v-112.25M744.57,637.01v-112.25M749.97,754.93v-112.25M749.97,637.01v-112.25M755.37,754.93v-112.25M755.37,637.01v-112.25M760.77,754.93v-112.25M760.77,637.01v-112.25M766.17,754.93v-112.25M766.17,637.01v-112.25M771.57,754.93v-112.25M771.57,637.01v-112.25M776.97,754.93v-112.25M776.97,637.01v-112.25M782.37,754.93v-112.25M782.37,637.01v-112.25M787.77,754.93v-112.25M787.77,637.01v-112.25M793.17,754.93v-112.25M793.17,637.01v-112.25M798.57,754.93v-112.25M798.57,637.01v-112.25M803.97,754.93v-112.25M803.97,637.01v-112.25M809.37,754.93v-112.25M809.37,637.01v-112.25M814.77,754.93v-112.25M814.77,637.01v-112.25M820.17,754.93v-112.25M820.17,637.01v-112.25M825.57,754.93v-112.25M825.57,637.01v-112.25M830.97,754.93v-112.25M830.97,637.01v-112.25M836.37,754.93v-112.25M836.37,637.01v-112.25M841.77,754.93v-112.25M841.77,637.01v-112.25M847.17,754.93v-112.25M847.17,637.01v-112.25M852.57,754.93v-112.25M852.57,637.01v-112.25M857.97,754.93v-112.25M857.97,637.01v-112.25M863.37,754.93v-112.25M863.37,637.01v-112.25M868.77,754.93v-112.25M868.77,637.01v-112.25M874.17,754.93v-112.25M874.17,637.01v-112.25M879.57,754.93v-112.25M879.57,637.01v-112.25"/>
    </g>
    <g id="av" data-name="LINE">
      <line class="fu" x1="351.54" y1="767.12" x2="351.54" y2="998.14"/>
    </g>
    <g id="aw" data-name="LINE">
      <line class="fu" x1="344.46" y1="998.14" x2="344.46" y2="767.12"/>
    </g>
    <g id="ax" data-name="LWPOLYLINE">
      <line class="fv" x1="804.65" y1="1013.45" x2="804.65" y2="1000.98"/>
    </g>
    <g id="ay" data-name="LWPOLYLINE">
      <line class="fv" x1="804.65" y1="998.14" x2="804.65" y2="992.76"/>
    </g>
    <g id="az" data-name="LWPOLYLINE">
      <line class="fv" x1="798.13" y1="1013.45" x2="798.13" y2="1000.98"/>
    </g>
    <g id="ba" data-name="LWPOLYLINE">
      <line class="fv" x1="798.13" y1="998.14" x2="798.13" y2="992.76"/>
    </g>
    <g id="bb" data-name="LWPOLYLINE">
      <line class="fv" x1="791.61" y1="1013.45" x2="791.61" y2="1000.98"/>
    </g>
    <g id="bc" data-name="LWPOLYLINE">
      <line class="fv" x1="791.61" y1="998.14" x2="791.61" y2="992.76"/>
    </g>
    <g id="bd" data-name="LWPOLYLINE">
      <line class="fv" x1="785.09" y1="1013.45" x2="785.09" y2="1000.98"/>
    </g>
    <g id="be" data-name="LWPOLYLINE">
      <line class="fv" x1="785.09" y1="998.14" x2="785.09" y2="992.76"/>
    </g>
    <g id="bf" data-name="LWPOLYLINE">
      <line class="fv" x1="778.57" y1="1013.45" x2="778.57" y2="1000.98"/>
    </g>
    <g id="bg" data-name="LWPOLYLINE">
      <line class="fv" x1="778.57" y1="998.14" x2="778.57" y2="992.76"/>
    </g>
    <g id="bh" data-name="LWPOLYLINE">
      <line class="fv" x1="772.05" y1="1013.45" x2="772.05" y2="1000.98"/>
    </g>
    <g id="bi" data-name="LWPOLYLINE">
      <line class="fv" x1="772.05" y1="998.14" x2="772.05" y2="992.76"/>
    </g>
    <g id="bj" data-name="LWPOLYLINE">
      <line class="fv" x1="765.54" y1="998.14" x2="765.54" y2="992.19"/>
    </g>
    <g id="bk" data-name="LWPOLYLINE">
      <line class="fv" x1="820.6" y1="1013.45" x2="820.6" y2="1000.98"/>
    </g>
    <g id="bl" data-name="LWPOLYLINE">
      <polyline class="fv" points="820.6 998.14 820.6 992.76 765.54 992.76 765.54 988.5 824.85 988.5 824.85 998.14"/>
    </g>
    <g id="bm" data-name="LWPOLYLINE">
      <line class="fv" x1="817.69" y1="1013.45" x2="817.69" y2="1000.98"/>
    </g>
    <g id="bn" data-name="LWPOLYLINE">
      <line class="fv" x1="817.69" y1="998.14" x2="817.69" y2="992.76"/>
    </g>
    <g id="bo" data-name="LWPOLYLINE">
      <line class="fv" x1="811.17" y1="1013.45" x2="811.17" y2="1000.98"/>
    </g>
    <g id="bp" data-name="LWPOLYLINE">
      <line class="fv" x1="811.17" y1="998.14" x2="811.17" y2="992.76"/>
    </g>
    <g id="bq" data-name="LINE">
      <line class="fv" x1="345.02" y1="1032.27" x2="409.8" y2="1032.27"/>
    </g>
    <g id="br" data-name="LINE">
      <line class="fv" x1="345.02" y1="1031.99" x2="409.8" y2="1031.99"/>
    </g>
    <g id="bs" data-name="LINE">
      <line class="fv" x1="345.02" y1="1031.87" x2="345.02" y2="1032.27"/>
    </g>
    <g id="bt" data-name="LINE">
      <line class="fv" x1="344.74" y1="1031.87" x2="344.74" y2="1032.27"/>
    </g>
    <g id="bu" data-name="LINE">
      <line class="fv" x1="410.08" y1="1031.87" x2="410.08" y2="1032.27"/>
    </g>
    <g id="bv" data-name="LINE">
      <line class="fv" x1="409.8" y1="1031.87" x2="409.8" y2="1032.27"/>
    </g>
    <g id="bw" data-name="LINE">
      <line class="fv" x1="468.47" y1="1031.87" x2="468.47" y2="1032.27"/>
    </g>
    <g id="bx" data-name="LINE">
      <line class="fv" x1="468.19" y1="1031.87" x2="468.19" y2="1032.27"/>
    </g>
    <g id="by" data-name="LINE">
      <line class="fv" x1="526.87" y1="1031.87" x2="526.87" y2="1032.27"/>
    </g>
    <g id="bz" data-name="LINE">
      <line class="fv" x1="526.58" y1="1031.87" x2="526.58" y2="1032.27"/>
    </g>
    <g id="ca" data-name="LINE">
      <line class="fv" x1="585.26" y1="1031.87" x2="585.26" y2="1032.27"/>
    </g>
    <g id="cb" data-name="LINE">
      <line class="fv" x1="584.98" y1="1031.87" x2="584.98" y2="1032.27"/>
    </g>
    <g id="cc" data-name="LINE">
      <line class="fv" x1="410.08" y1="1032.27" x2="468.19" y2="1032.27"/>
    </g>
    <g id="cd" data-name="LINE">
      <line class="fv" x1="410.08" y1="1031.99" x2="468.19" y2="1031.99"/>
    </g>
    <g id="ce" data-name="LINE">
      <line class="fv" x1="468.47" y1="1032.27" x2="526.58" y2="1032.27"/>
    </g>
    <g id="cf" data-name="LINE">
      <line class="fv" x1="468.47" y1="1031.99" x2="526.58" y2="1031.99"/>
    </g>
    <g id="cg" data-name="LINE">
      <line class="fv" x1="526.87" y1="1032.27" x2="584.98" y2="1032.27"/>
    </g>
    <g id="ch" data-name="LINE">
      <line class="fv" x1="526.87" y1="1031.99" x2="584.98" y2="1031.99"/>
    </g>
    <g id="ci" data-name="LINE">
      <line class="fv" x1="651.17" y1="1031.87" x2="651.17" y2="1032.27"/>
    </g>
    <g id="cj" data-name="LINE">
      <line class="fv" x1="650.88" y1="1031.87" x2="650.88" y2="1032.27"/>
    </g>
    <g id="ck" data-name="LINE">
      <line class="fv" x1="585.26" y1="1032.27" x2="650.88" y2="1032.27"/>
    </g>
    <g id="cl" data-name="LINE">
      <line class="fv" x1="585.26" y1="1031.99" x2="650.88" y2="1031.99"/>
    </g>
    <g id="cm" data-name="LINE">
      <line class="fv" x1="710.02" y1="1031.87" x2="710.02" y2="1032.27"/>
    </g>
    <g id="cn" data-name="LINE">
      <line class="fv" x1="709.74" y1="1031.87" x2="709.74" y2="1032.27"/>
    </g>
    <g id="co" data-name="LINE">
      <line class="fv" x1="651.17" y1="1032.27" x2="709.74" y2="1032.27"/>
    </g>
    <g id="cp" data-name="LINE">
      <line class="fv" x1="651.17" y1="1031.99" x2="709.74" y2="1031.99"/>
    </g>
    <g id="cq" data-name="LINE">
      <line class="fv" x1="766.46" y1="1031.87" x2="766.46" y2="1032.27"/>
    </g>
    <g id="cr" data-name="LINE">
      <line class="fv" x1="766.18" y1="1031.87" x2="766.18" y2="1032.27"/>
    </g>
    <g id="cs" data-name="LINE">
      <line class="fv" x1="710.02" y1="1032.27" x2="766.18" y2="1032.27"/>
    </g>
    <g id="ct" data-name="LINE">
      <line class="fv" x1="710.02" y1="1031.99" x2="766.18" y2="1031.99"/>
    </g>
    <g id="cu" data-name="LINE">
      <line class="fv" x1="825.74" y1="1031.87" x2="825.74" y2="1032.27"/>
    </g>
    <g id="cv" data-name="LINE">
      <line class="fv" x1="825.46" y1="1031.87" x2="825.46" y2="1032.27"/>
    </g>
    <g id="cw" data-name="LINE">
      <line class="fv" x1="766.46" y1="1032.27" x2="825.46" y2="1032.27"/>
    </g>
    <g id="cx" data-name="LINE">
      <line class="fv" x1="766.46" y1="1031.99" x2="825.46" y2="1031.99"/>
    </g>
    <g id="cy" data-name="LINE">
      <line class="fv" x1="881.76" y1="1031.87" x2="881.76" y2="1032.27"/>
    </g>
    <g id="cz" data-name="LINE">
      <line class="fv" x1="881.48" y1="1031.87" x2="881.48" y2="1032.27"/>
    </g>
    <g id="da" data-name="LINE">
      <line class="fv" x1="825.74" y1="1032.27" x2="881.48" y2="1032.27"/>
    </g>
    <g id="db" data-name="LINE">
      <line class="fv" x1="825.74" y1="1031.99" x2="881.48" y2="1031.99"/>
    </g>
    <g id="dc" data-name="LWPOLYLINE">
      <rect class="fv" x="344.46" y="1030.46" width=".85" height="1.42"/>
    </g>
    <g id="dd" data-name="LWPOLYLINE">
      <rect class="fv" x="409.51" y="1030.46" width=".85" height="1.42"/>
    </g>
    <g id="de" data-name="LWPOLYLINE">
      <rect class="fv" x="467.91" y="1030.46" width=".85" height="1.42"/>
    </g>
    <g id="df" data-name="LWPOLYLINE">
      <rect class="fv" x="526.3" y="1030.46" width=".85" height="1.42"/>
    </g>
    <g id="dg" data-name="LWPOLYLINE">
      <rect class="fv" x="584.69" y="1030.46" width=".85" height="1.42"/>
    </g>
    <g id="dh" data-name="LWPOLYLINE">
      <rect class="fv" x="650.6" y="1030.46" width=".85" height="1.42"/>
    </g>
    <g id="di" data-name="LWPOLYLINE">
      <rect class="fv" x="709.45" y="1030.46" width=".85" height="1.42"/>
    </g>
    <g id="dj" data-name="LWPOLYLINE">
      <rect class="fv" x="765.9" y="1030.46" width=".85" height="1.42"/>
    </g>
    <g id="dk" data-name="LWPOLYLINE">
      <rect class="fv" x="825.18" y="1030.46" width=".85" height="1.42"/>
    </g>
    <g id="dl" data-name="LWPOLYLINE">
      <rect class="fv" x="881.2" y="1030.46" width=".85" height="1.42"/>
    </g>
    <g id="dm" data-name="LWPOLYLINE">
      <polyline class="fq" points="354.24 524.76 341.48 524.76 341.48 767.12 639.97 767.12"/>
    </g>
    <g id="dn" data-name="LWPOLYLINE">
      <line class="fq" x1="639.97" y1="754.93" x2="639.97" y2="998.14"/>
    </g>
    <g id="do" data-name="LWPOLYLINE">
      <polyline class="fq" points="639.97 1005.23 639.97 1016.85 643.51 1016.85"/>
    </g>
    <g id="dp" data-name="LWPOLYLINE">
      <polyline class="fq" points="642.8 1005.23 642.8 1014.02 643.51 1014.02"/>
    </g>
    <g id="dq" data-name="LWPOLYLINE">
      <line class="fq" x1="653.43" y1="1016.28" x2="709.17" y2="1016.28"/>
    </g>
    <g id="dr" data-name="LWPOLYLINE">
      <line class="fq" x1="710.59" y1="1016.28" x2="765.61" y2="1016.28"/>
    </g>
    <g id="ds" data-name="LWPOLYLINE">
      <line class="fq" x1="767.03" y1="1016.28" x2="824.89" y2="1016.28"/>
    </g>
    <g id="dt" data-name="LWPOLYLINE">
      <line class="fq" x1="826.31" y1="1016.28" x2="879.21" y2="1016.28"/>
    </g>
    <g id="du" data-name="LWPOLYLINE">
      <line class="fq" x1="642.8" y1="754.93" x2="642.8" y2="998.14"/>
    </g>
    <g id="dv" data-name="LWPOLYLINE">
      <line class="fq" x1="653.43" y1="1013.45" x2="709.17" y2="1013.45"/>
    </g>
    <g id="dw" data-name="LWPOLYLINE">
      <line class="fq" x1="710.59" y1="1013.45" x2="765.61" y2="1013.45"/>
    </g>
    <g id="dx" data-name="LWPOLYLINE">
      <line class="fq" x1="767.03" y1="1013.45" x2="824.89" y2="1013.45"/>
    </g>
    <g id="dy" data-name="LWPOLYLINE">
      <line class="fq" x1="882.05" y1="998.14" x2="882.05" y2="754.93"/>
    </g>
    <g id="dz" data-name="LWPOLYLINE">
      <polyline class="fq" points="826.31 1013.45 876.38 1013.45 876.38 1000.98"/>
    </g>
    <g id="ea" data-name="LWPOLYLINE">
      <line class="fq" x1="876.38" y1="998.14" x2="876.38" y2="754.93"/>
    </g>
    <g id="eb" data-name="LWPOLYLINE">
      <line class="fr" x1="411.35" y1="1023.37" x2="411.35" y2="1005.23"/>
    </g>
    <g id="ec" data-name="LWPOLYLINE">
      <line class="fr" x1="408.52" y1="1023.37" x2="408.52" y2="1005.23"/>
    </g>
    <g id="ed" data-name="LWPOLYLINE">
      <line class="fr" x1="469.75" y1="1023.37" x2="469.75" y2="1005.23"/>
    </g>
    <g id="ee" data-name="LWPOLYLINE">
      <line class="fr" x1="466.91" y1="1023.37" x2="466.91" y2="1005.23"/>
    </g>
    <g id="ef" data-name="LWPOLYLINE">
      <line class="fr" x1="528.14" y1="1023.37" x2="528.14" y2="1005.23"/>
    </g>
    <g id="eg" data-name="LWPOLYLINE">
      <line class="fr" x1="525.31" y1="1023.37" x2="525.31" y2="1005.23"/>
    </g>
    <g id="eh" data-name="LWPOLYLINE">
      <line class="fr" x1="586.54" y1="1023.37" x2="586.54" y2="1005.23"/>
    </g>
    <g id="ei" data-name="LWPOLYLINE">
      <line class="fr" x1="583.7" y1="1023.37" x2="583.7" y2="1005.23"/>
    </g>
    <g id="ej" data-name="LINE">
      <line class="fr" x1="710.59" y1="1027.62" x2="710.59" y2="1000.98"/>
    </g>
    <g id="ek" data-name="LINE">
      <line class="fr" x1="709.17" y1="1027.62" x2="709.17" y2="1000.98"/>
    </g>
    <g id="el" data-name="LINE">
      <line class="fr" x1="767.03" y1="1027.62" x2="767.03" y2="1000.98"/>
    </g>
    <g id="em" data-name="LINE">
      <line class="fr" x1="765.61" y1="1027.62" x2="765.61" y2="1000.98"/>
    </g>
    <g id="en" data-name="LINE">
      <line class="fr" x1="826.31" y1="1027.62" x2="826.31" y2="1000.98"/>
    </g>
    <g id="eo" data-name="LINE">
      <line class="fr" x1="824.89" y1="1027.62" x2="824.89" y2="1000.98"/>
    </g>
    <g id="ep" data-name="LWPOLYLINE">
      <rect class="fr" x="650.6" y="998.14" width="231.45" height="32.31"/>
    </g>
    <g id="eq" data-name="LWPOLYLINE">
      <rect class="fr" x="653.43" y="1000.98" width="225.78" height="26.65"/>
    </g>
    <g id="er" data-name="LWPOLYLINE">
      <polyline class="fr" points="650.6 1030.46 344.46 1030.46 344.46 998.14 650.6 998.14"/>
    </g>
    <g id="es" data-name="LWPOLYLINE">
      <rect class="fr" x="351.54" y="1005.23" width="291.97" height="18.14"/>
    </g>
    <g id="et" data-name="LWPOLYLINE">
      <rect class="fr" x="354.24" y="524.76" width="527.81" height="230.17"/>
    </g>
    <g id="eu" data-name="LINE">
      <line class="fr" x1="882.05" y1="639.84" x2="354.24" y2="639.84"/>
    </g>
    <g id="ev" data-name="LINE">
      <line class="fr" x1="882.05" y1="642.68" x2="354.24" y2="642.68"/>
    </g>
    <g id="ew" data-name="LINE">
      <line class="fr" x1="882.05" y1="637.01" x2="354.24" y2="637.01"/>
    </g>
  </g>
  <g id="fb" data-name="SCALE">
    <g>
      <g id="fc" data-name="CIRCLE">
        <circle class="fq" cx="75.65" cy="1448.67" r="19.84"/>
      </g>
      <g id="fd" data-name="TEXT">
        <path class="ft" d="M88.47,1427.97l-1.15-.46-1.69-10.73-3.49,8.63-1.12-.45,4.37-10.8,1.16.47,1.69,10.69,3.48-8.6,1.12.45-4.37,10.8Z"/>
      </g>
      <g id="fe" data-name="HATCH">
        <path class="fw" d="M83.09,1430.27c-.31-.12-.62-.24-.93-.35l-7.43,18.37.92.37,7.44-18.39Z"/>
      </g>
      <g id="ff" data-name="HATCH">
        <path class="fw" d="M84,1430.67c-.3-.14-.61-.27-.91-.4l-7.44,18.39.92.37,7.43-18.37Z"/>
      </g>
      <g id="fg" data-name="LINE">
        <line class="fq" x1="82.16" y1="1429.92" x2="74.72" y2="1448.29"/>
      </g>
      <g id="fh" data-name="LINE">
        <line class="fq" x1="84" y1="1430.67" x2="76.57" y2="1449.04"/>
      </g>
      <g id="fi" data-name="LINE">
        <line class="fq" x1="75.65" y1="1448.67" x2="83.09" y2="1430.27"/>
      </g>
      <g id="fj" data-name="MTEXT">
        <path class="ft" d="M84.76,1545.39h-1.79v-13.44l-2.47,1.6-.9-1.43,3.39-2.15h1.77v15.42Z"/>
      </g>
      <g id="fk" data-name="MTEXT">
        <g>
          <path class="ft" d="M326.19,1545.39h-1.79v-13.44l-2.47,1.6-.9-1.43,3.39-2.15h1.77v15.42Z"/>
          <path class="ft" d="M332.13,1544.54c-.85-.67-1.51-1.6-1.98-2.79-.48-1.19-.71-2.55-.71-4.07s.24-2.86.71-4.05c.48-1.19,1.14-2.13,1.98-2.79.85-.67,1.81-1,2.89-1s2.04.33,2.89,1,1.51,1.6,1.98,2.79c.48,1.19.71,2.55.71,4.05s-.24,2.88-.71,4.06-1.14,2.12-1.98,2.79c-.85.68-1.81,1.01-2.89,1.01s-2.04-.33-2.89-1ZM337,1543.15c.58-.54,1.03-1.28,1.35-2.23.32-.95.48-2.03.48-3.25s-.16-2.31-.48-3.26c-.32-.95-.77-1.7-1.35-2.23-.58-.53-1.24-.8-1.98-.8s-1.4.27-1.97.8c-.58.53-1.03,1.28-1.35,2.23-.33.95-.49,2.03-.49,3.24s.16,2.33.49,3.27c.33.95.78,1.69,1.35,2.23.58.54,1.23.81,1.97.81s1.4-.27,1.98-.81Z"/>
          <path class="ft" d="M355.51,1537.74c-.39-.45-.89-.67-1.5-.67-.47,0-.89.1-1.25.29-.36.19-.65.46-.86.8s-.32.73-.32,1.17v6.1h-1.77v-5.93c0-.73-.19-1.31-.58-1.76-.38-.45-.88-.67-1.49-.67-.46,0-.87.12-1.25.35-.38.23-.67.55-.87.96s-.31.84-.31,1.31v5.74h-1.77v-9.94h1.77v1.75l-.19-.06c.3-.5.7-.9,1.19-1.22.5-.31,1-.47,1.51-.47.61,0,1.2.17,1.76.51.56.34.98.78,1.27,1.32.33-.54.79-.98,1.39-1.32s1.2-.51,1.81-.51c.74,0,1.4.17,1.98.5.58.33,1.04.79,1.37,1.37.33.58.49,1.24.49,1.99v6.08h-1.79v-5.93c0-.73-.2-1.31-.59-1.76Z"/>
        </g>
      </g>
      <g id="fl" data-name="MTEXT">
        <path class="ft" d="M194.51,1535.8c.73-.33,1.44-.5,2.12-.5,1.02,0,1.94.22,2.74.65.8.43,1.43,1.03,1.88,1.8.45.77.67,1.65.67,2.65s-.22,1.91-.66,2.69c-.44.78-1.06,1.4-1.87,1.85-.8.45-1.72.67-2.76.67-.8,0-1.55-.17-2.25-.5s-1.3-.8-1.79-1.4-.82-1.27-.99-2.03l1.73-.41c.17.78.57,1.42,1.18,1.91s1.33.74,2.12.74c.67,0,1.27-.15,1.8-.45.53-.3.95-.72,1.26-1.26.31-.54.46-1.14.46-1.81s-.15-1.26-.46-1.78c-.31-.52-.73-.92-1.26-1.22s-1.13-.44-1.8-.44c-.44,0-.9.12-1.39.35-.48.23-.88.54-1.19.91l-1.32-1.15c.46-.51,1.05-.94,1.78-1.27ZM192.28,1537.97l.49-8.04h7.89v1.58h-6.19l-.43,6.72-1.77-.26Z"/>
      </g>
      <g id="fm" data-name="MTEXT">
        <path class="ft" d="M108.54,1542.96c.25-.23.57-.51.95-.85,1.24-1.14,2.23-2.09,2.99-2.87.75-.77,1.39-1.56,1.92-2.37.53-.8.79-1.55.79-2.23,0-.64-.12-1.21-.37-1.7-.25-.49-.59-.87-1.03-1.15s-.95-.42-1.54-.42c-.63,0-1.23.21-1.82.64-.59.43-1.03.97-1.33,1.64l-1.6-.68c.4-.94,1.05-1.71,1.94-2.3s1.83-.9,2.82-.9c.92,0,1.75.21,2.46.62.72.41,1.28.98,1.67,1.72.4.73.6,1.58.6,2.53s-.3,1.87-.9,2.85c-.6.97-1.31,1.88-2.13,2.72-.83.84-1.9,1.85-3.22,3.03-.65.6-1.27,1.17-1.86,1.73l-1.26-1.13c.37-.35.68-.65.93-.87ZM107.61,1543.83h9.62v1.58h-9.39l-.23-1.58Z"/>
      </g>
      <g id="fn" data-name="MTEXT">
        <path class="ft" d="M53.81,1544.54c-.85-.67-1.51-1.6-1.98-2.79-.48-1.19-.71-2.55-.71-4.07s.24-2.86.71-4.05c.48-1.19,1.14-2.13,1.98-2.79.85-.67,1.81-1,2.89-1s2.04.33,2.89,1,1.51,1.6,1.98,2.79c.48,1.19.71,2.55.71,4.05s-.24,2.88-.71,4.06-1.14,2.12-1.98,2.79c-.85.68-1.81,1.01-2.89,1.01s-2.04-.33-2.89-1ZM58.68,1543.15c.58-.54,1.03-1.28,1.35-2.23.32-.95.48-2.03.48-3.25s-.16-2.31-.48-3.26c-.32-.95-.77-1.7-1.35-2.23-.58-.53-1.24-.8-1.98-.8s-1.4.27-1.97.8c-.58.53-1.03,1.28-1.35,2.23-.33.95-.49,2.03-.49,3.24s.16,2.33.49,3.27c.33.95.78,1.69,1.35,2.23.58.54,1.23.81,1.97.81s1.4-.27,1.98-.81Z"/>
      </g>
      <g id="fo" data-name="LWPOLYLINE">
        <polyline class="fq" points="55.81 1524.52 55.81 1501.84 84.15 1501.84 84.15 1524.52 112.5 1524.52 112.5 1501.84 197.54 1501.84 197.54 1524.52 339.27 1524.52 339.27 1501.84"/>
      </g>
    </g>
  </g>
</svg>