<?xml version="1.0" encoding="UTF-8"?>
<svg xmlns="http://www.w3.org/2000/svg" viewBox="0 0 2000 1250">
  <defs>
    <style>
      .fp {
        stroke-width: .45px;
      }

      .fp, .fq, .fr, .fs, .ft, .fu, .fv, .fw, .fx {
        stroke: #000;
      }

      .fp, .fr, .fs, .ft, .fu, .fv {
        fill: none;
      }

      .fp, .fr, .fs, .ft, .fu, .fv, .fw {
        stroke-miterlimit: 10;
      }

      .fq {
        fill: #040000;
      }

      .fq, .fr, .fw, .fx {
        stroke-width: .5px;
      }

      .fs {
        stroke-width: .75px;
      }

      .ft {
        stroke-width: .15px;
      }

      .fu {
        stroke-width: .35px;
      }

      .fv {
        stroke-width: .25px;
      }

      .fw {
        fill: #060001;
        fill-rule: evenodd;
      }

      .fx {
        fill: #040000;
      }
    </style>
  </defs>
  <g id="at" data-name="RF">
    <g id="au" data-name="HATCH">
      <path class="ft" d="M759.37,579.93v-112.25M759.37,462.01v-112.25M764.77,579.93v-112.25M764.77,462.01v-112.25M770.17,579.93v-112.25M770.17,462.01v-112.25M775.57,579.93v-112.25M775.57,462.01v-112.25M780.97,579.93v-112.25M780.97,462.01v-112.25M786.37,579.93v-112.25M786.37,462.01v-112.25M791.77,579.93v-112.25M791.77,462.01v-112.25M797.17,579.93v-112.25M797.17,462.01v-112.25M802.57,579.93v-112.25M802.57,462.01v-112.25M807.97,579.93v-112.25M807.97,462.01v-112.25M813.37,579.93v-112.25M813.37,462.01v-112.25M818.77,579.93v-112.25M818.77,462.01v-112.25M824.17,579.93v-112.25M824.17,462.01v-112.25M829.57,579.93v-112.25M829.57,462.01v-112.25M834.97,579.93v-112.25M834.97,462.01v-112.25M840.37,579.93v-112.25M840.37,462.01v-112.25M845.77,579.93v-112.25M845.77,462.01v-112.25M851.17,579.93v-112.25M851.17,462.01v-112.25M856.57,579.93v-112.25M856.57,462.01v-112.25M861.97,579.93v-112.25M861.97,462.01v-112.25M867.37,579.93v-112.25M867.37,462.01v-112.25M872.77,579.93v-112.25M872.77,462.01v-112.25M878.17,579.93v-112.25M878.17,462.01v-112.25M883.57,579.93v-112.25M883.57,462.01v-112.25M888.97,579.93v-112.25M888.97,462.01v-112.25M894.37,579.93v-112.25M894.37,462.01v-112.25M899.77,579.93v-112.25M899.77,462.01v-112.25M905.17,579.93v-112.25M905.17,462.01v-112.25M910.57,579.93v-112.25M910.57,462.01v-112.25M915.97,579.93v-112.25M915.97,462.01v-112.25M921.37,579.93v-112.25M921.37,462.01v-112.25M926.77,579.93v-112.25M926.77,462.01v-112.25M932.17,579.93v-112.25M932.17,462.01v-112.25M937.57,579.93v-112.25M937.57,462.01v-112.25M942.97,579.93v-112.25M942.97,462.01v-112.25M948.37,579.93v-112.25M948.37,462.01v-112.25M953.77,579.93v-112.25M953.77,462.01v-112.25M959.17,579.93v-112.25M959.17,462.01v-112.25M964.57,579.93v-112.25M964.57,462.01v-112.25M969.97,579.93v-112.25M969.97,462.01v-112.25M975.37,579.93v-112.25M975.37,462.01v-112.25M980.77,579.93v-112.25M980.77,462.01v-112.25M986.17,579.93v-112.25M986.17,462.01v-112.25M991.57,579.93v-112.25M991.57,462.01v-112.25M996.97,579.93v-112.25M996.97,462.01v-112.25M1002.37,579.93v-112.25M1002.37,462.01v-112.25M1007.77,579.93v-112.25M1007.77,462.01v-112.25M1013.17,579.93v-112.25M1013.17,462.01v-112.25M1018.57,579.93v-112.25M1018.57,462.01v-112.25M1023.97,579.93v-112.25M1023.97,462.01v-112.25M1029.37,579.93v-112.25M1029.37,462.01v-112.25M1034.77,579.93v-112.25M1034.77,462.01v-112.25M1040.17,579.93v-112.25M1040.17,462.01v-112.25M1045.57,579.93v-112.25M1045.57,462.01v-112.25M1050.97,579.93v-112.25M1050.97,462.01v-112.25M1056.37,579.93v-112.25M1056.37,462.01v-112.25M1061.77,579.93v-112.25M1061.77,462.01v-112.25M1067.17,579.93v-112.25M1067.17,462.01v-112.25M1072.57,579.93v-112.25M1072.57,462.01v-112.25M1077.97,579.93v-112.25M1077.97,462.01v-112.25M1083.37,579.93v-112.25M1083.37,462.01v-112.25M1088.77,579.93v-112.25M1088.77,462.01v-112.25M1094.17,579.93v-112.25M1094.17,462.01v-112.25M1099.57,579.93v-112.25M1099.57,462.01v-112.25M1104.97,579.93v-112.25M1104.97,462.01v-112.25M1110.37,579.93v-112.25M1110.37,462.01v-112.25M1115.77,579.93v-112.25M1115.77,462.01v-112.25M1121.17,579.93v-112.25M1121.17,462.01v-112.25M1126.57,579.93v-112.25M1126.57,462.01v-112.25M1131.97,579.93v-112.25M1131.97,462.01v-112.25M1137.37,579.93v-112.25M1137.37,462.01v-112.25M1142.77,579.93v-112.25M1142.77,462.01v-112.25M1148.17,579.93v-112.25M1148.17,462.01v-112.25M1153.57,579.93v-112.25M1153.57,462.01v-112.25M1158.97,579.93v-112.25M1158.97,462.01v-112.25M1164.37,579.93v-112.25M1164.37,462.01v-112.25M1169.77,579.93v-112.25M1169.77,462.01v-112.25M1175.17,579.93v-112.25M1175.17,462.01v-112.25M1180.57,579.93v-112.25M1180.57,462.01v-112.25M1185.97,579.93v-112.25M1185.97,462.01v-112.25M1191.37,579.93v-112.25M1191.37,462.01v-112.25M1196.77,579.93v-112.25M1196.77,462.01v-112.25M1202.17,579.93v-112.25M1202.17,462.01v-112.25M1207.57,579.93v-112.25M1207.57,462.01v-112.25M1212.97,579.93v-112.25M1212.97,462.01v-112.25M1218.37,579.93v-112.25M1218.37,462.01v-112.25M1223.77,579.93v-112.25M1223.77,462.01v-112.25M1229.17,579.93v-112.25M1229.17,462.01v-112.25M1234.57,579.93v-112.25M1234.57,462.01v-112.25M1239.97,579.93v-112.25M1239.97,462.01v-112.25M1245.37,579.93v-112.25M1245.37,462.01v-112.25M1250.77,579.93v-112.25M1250.77,462.01v-112.25M1256.17,579.93v-112.25M1256.17,462.01v-112.25M1261.57,579.93v-112.25M1261.57,462.01v-112.25M1266.97,579.93v-112.25M1266.97,462.01v-112.25M1272.37,579.93v-112.25M1272.37,462.01v-112.25M1277.77,579.93v-112.25M1277.77,462.01v-112.25M755.77,579.93v-112.25M755.77,462.01v-112.25M761.17,579.93v-112.25M761.17,462.01v-112.25M766.57,579.93v-112.25M766.57,462.01v-112.25M771.97,579.93v-112.25M771.97,462.01v-112.25M777.37,579.93v-112.25M777.37,462.01v-112.25M782.77,579.93v-112.25M782.77,462.01v-112.25M788.17,579.93v-112.25M788.17,462.01v-112.25M793.57,579.93v-112.25M793.57,462.01v-112.25M798.97,579.93v-112.25M798.97,462.01v-112.25M804.37,579.93v-112.25M804.37,462.01v-112.25M809.77,579.93v-112.25M809.77,462.01v-112.25M815.17,579.93v-112.25M815.17,462.01v-112.25M820.57,579.93v-112.25M820.57,462.01v-112.25M825.97,579.93v-112.25M825.97,462.01v-112.25M831.37,579.93v-112.25M831.37,462.01v-112.25M836.77,579.93v-112.25M836.77,462.01v-112.25M842.17,579.93v-112.25M842.17,462.01v-112.25M847.57,579.93v-112.25M847.57,462.01v-112.25M852.97,579.93v-112.25M852.97,462.01v-112.25M858.37,579.93v-112.25M858.37,462.01v-112.25M863.77,579.93v-112.25M863.77,462.01v-112.25M869.17,579.93v-112.25M869.17,462.01v-112.25M874.57,579.93v-112.25M874.57,462.01v-112.25M879.97,579.93v-112.25M879.97,462.01v-112.25M885.37,579.93v-112.25M885.37,462.01v-112.25M890.77,579.93v-112.25M890.77,462.01v-112.25M896.17,579.93v-112.25M896.17,462.01v-112.25M901.57,579.93v-112.25M901.57,462.01v-112.25M906.97,579.93v-112.25M906.97,462.01v-112.25M912.37,579.93v-112.25M912.37,462.01v-112.25M917.77,579.93v-112.25M917.77,462.01v-112.25M923.17,579.93v-112.25M923.17,462.01v-112.25M928.57,579.93v-112.25M928.57,462.01v-112.25M933.97,579.93v-112.25M933.97,462.01v-112.25M939.37,579.93v-112.25M939.37,462.01v-112.25M944.77,579.93v-112.25M944.77,462.01v-112.25M950.17,579.93v-112.25M950.17,462.01v-112.25M955.57,579.93v-112.25M955.57,462.01v-112.25M960.97,579.93v-112.25M960.97,462.01v-112.25M966.37,579.93v-112.25M966.37,462.01v-112.25M971.77,579.93v-112.25M971.77,462.01v-112.25M977.17,579.93v-112.25M977.17,462.01v-112.25M982.57,579.93v-112.25M982.57,462.01v-112.25M987.97,579.93v-112.25M987.97,462.01v-112.25M993.37,579.93v-112.25M993.37,462.01v-112.25M998.77,579.93v-112.25M998.77,462.01v-112.25M1004.17,579.93v-112.25M1004.17,462.01v-112.25M1009.57,579.93v-112.25M1009.57,462.01v-112.25M1014.97,579.93v-112.25M1014.97,462.01v-112.25M1020.37,579.93v-112.25M1020.37,462.01v-112.25M1025.77,579.93v-112.25M1025.77,462.01v-112.25M1031.17,579.93v-112.25M1031.17,462.01v-112.25M1036.57,579.93v-112.25M1036.57,462.01v-112.25M1041.97,579.93v-112.25M1041.97,462.01v-112.25M1047.37,579.93v-112.25M1047.37,462.01v-112.25M1052.77,579.93v-112.25M1052.77,462.01v-112.25M1058.17,579.93v-112.25M1058.17,462.01v-112.25M1063.57,579.93v-112.25M1063.57,462.01v-112.25M1068.97,579.93v-112.25M1068.97,462.01v-112.25M1074.37,579.93v-112.25M1074.37,462.01v-112.25M1079.77,579.93v-112.25M1079.77,462.01v-112.25M1085.17,579.93v-112.25M1085.17,462.01v-112.25M1090.57,579.93v-112.25M1090.57,462.01v-112.25M1095.97,579.93v-112.25M1095.97,462.01v-112.25M1101.37,579.93v-112.25M1101.37,462.01v-112.25M1106.77,579.93v-112.25M1106.77,462.01v-112.25M1112.17,579.93v-112.25M1112.17,462.01v-112.25M1117.57,579.93v-112.25M1117.57,462.01v-112.25M1122.97,579.93v-112.25M1122.97,462.01v-112.25M1128.37,579.93v-112.25M1128.37,462.01v-112.25M1133.77,579.93v-112.25M1133.77,462.01v-112.25M1139.17,579.93v-112.25M1139.17,462.01v-112.25M1144.57,579.93v-112.25M1144.57,462.01v-112.25M1149.97,579.93v-112.25M1149.97,462.01v-112.25M1155.37,579.93v-112.25M1155.37,462.01v-112.25M1160.77,579.93v-112.25M1160.77,462.01v-112.25M1166.17,579.93v-112.25M1166.17,462.01v-112.25M1171.57,579.93v-112.25M1171.57,462.01v-112.25M1176.97,579.93v-112.25M1176.97,462.01v-112.25M1182.37,579.93v-112.25M1182.37,462.01v-112.25M1187.77,579.93v-112.25M1187.77,462.01v-112.25M1193.17,579.93v-112.25M1193.17,462.01v-112.25M1198.57,579.93v-112.25M1198.57,462.01v-112.25M1203.97,579.93v-112.25M1203.97,462.01v-112.25M1209.37,579.93v-112.25M1209.37,462.01v-112.25M1214.77,579.93v-112.25M1214.77,462.01v-112.25M1220.17,579.93v-112.25M1220.17,462.01v-112.25M1225.57,579.93v-112.25M1225.57,462.01v-112.25M1230.97,579.93v-112.25M1230.97,462.01v-112.25M1236.37,579.93v-112.25M1236.37,462.01v-112.25M1241.77,579.93v-112.25M1241.77,462.01v-112.25M1247.17,579.93v-112.25M1247.17,462.01v-112.25M1252.57,579.93v-112.25M1252.57,462.01v-112.25M1257.97,579.93v-112.25M1257.97,462.01v-112.25M1263.37,579.93v-112.25M1263.37,462.01v-112.25M1268.77,579.93v-112.25M1268.77,462.01v-112.25M1274.17,579.93v-112.25M1274.17,462.01v-112.25M1279.57,579.93v-112.25M1279.57,462.01v-112.25"/>
    </g>
    <g id="av" data-name="LINE">
      <line class="fv" x1="751.54" y1="592.12" x2="751.54" y2="823.14"/>
    </g>
    <g id="aw" data-name="LINE">
      <line class="fv" x1="744.46" y1="823.14" x2="744.46" y2="592.12"/>
    </g>
    <g id="ax" data-name="LWPOLYLINE">
      <line class="fv" x1="1204.65" y1="838.45" x2="1204.65" y2="825.98"/>
    </g>
    <g id="ay" data-name="LWPOLYLINE">
      <line class="fv" x1="1204.65" y1="823.14" x2="1204.65" y2="817.76"/>
    </g>
    <g id="az" data-name="LWPOLYLINE">
      <line class="fv" x1="1198.13" y1="838.45" x2="1198.13" y2="825.98"/>
    </g>
    <g id="ba" data-name="LWPOLYLINE">
      <line class="fv" x1="1198.13" y1="823.14" x2="1198.13" y2="817.76"/>
    </g>
    <g id="bb" data-name="LWPOLYLINE">
      <line class="fv" x1="1191.61" y1="838.45" x2="1191.61" y2="825.98"/>
    </g>
    <g id="bc" data-name="LWPOLYLINE">
      <line class="fv" x1="1191.61" y1="823.14" x2="1191.61" y2="817.76"/>
    </g>
    <g id="bd" data-name="LWPOLYLINE">
      <line class="fv" x1="1185.09" y1="838.45" x2="1185.09" y2="825.98"/>
    </g>
    <g id="be" data-name="LWPOLYLINE">
      <line class="fv" x1="1185.09" y1="823.14" x2="1185.09" y2="817.76"/>
    </g>
    <g id="bf" data-name="LWPOLYLINE">
      <line class="fv" x1="1178.57" y1="838.45" x2="1178.57" y2="825.98"/>
    </g>
    <g id="bg" data-name="LWPOLYLINE">
      <line class="fv" x1="1178.57" y1="823.14" x2="1178.57" y2="817.76"/>
    </g>
    <g id="bh" data-name="LWPOLYLINE">
      <line class="fv" x1="1172.05" y1="838.45" x2="1172.05" y2="825.98"/>
    </g>
    <g id="bi" data-name="LWPOLYLINE">
      <line class="fv" x1="1172.05" y1="823.14" x2="1172.05" y2="817.76"/>
    </g>
    <g id="bj" data-name="LWPOLYLINE">
      <line class="fv" x1="1165.54" y1="823.14" x2="1165.54" y2="817.19"/>
    </g>
    <g id="bk" data-name="LWPOLYLINE">
      <line class="fv" x1="1220.6" y1="838.45" x2="1220.6" y2="825.98"/>
    </g>
    <g id="bl" data-name="LWPOLYLINE">
      <polyline class="fv" points="1220.6 823.14 1220.6 817.76 1165.54 817.76 1165.54 813.5 1224.85 813.5 1224.85 823.14"/>
    </g>
    <g id="bm" data-name="LWPOLYLINE">
      <line class="fv" x1="1217.69" y1="838.45" x2="1217.69" y2="825.98"/>
    </g>
    <g id="bn" data-name="LWPOLYLINE">
      <line class="fv" x1="1217.69" y1="823.14" x2="1217.69" y2="817.76"/>
    </g>
    <g id="bo" data-name="LWPOLYLINE">
      <line class="fv" x1="1211.17" y1="838.45" x2="1211.17" y2="825.98"/>
    </g>
    <g id="bp" data-name="LWPOLYLINE">
      <line class="fv" x1="1211.17" y1="823.14" x2="1211.17" y2="817.76"/>
    </g>
    <g id="bq" data-name="LINE">
      <line class="fv" x1="745.02" y1="857.27" x2="809.8" y2="857.27"/>
    </g>
    <g id="br" data-name="LINE">
      <line class="fv" x1="745.02" y1="856.99" x2="809.8" y2="856.99"/>
    </g>
    <g id="bs" data-name="LINE">
      <line class="fv" x1="745.02" y1="856.87" x2="745.02" y2="857.27"/>
    </g>
    <g id="bt" data-name="LINE">
      <line class="fv" x1="744.74" y1="856.87" x2="744.74" y2="857.27"/>
    </g>
    <g id="bu" data-name="LINE">
      <line class="fv" x1="810.08" y1="856.87" x2="810.08" y2="857.27"/>
    </g>
    <g id="bv" data-name="LINE">
      <line class="fv" x1="809.8" y1="856.87" x2="809.8" y2="857.27"/>
    </g>
    <g id="bw" data-name="LINE">
      <line class="fv" x1="868.47" y1="856.87" x2="868.47" y2="857.27"/>
    </g>
    <g id="bx" data-name="LINE">
      <line class="fv" x1="868.19" y1="856.87" x2="868.19" y2="857.27"/>
    </g>
    <g id="by" data-name="LINE">
      <line class="fv" x1="926.87" y1="856.87" x2="926.87" y2="857.27"/>
    </g>
    <g id="bz" data-name="LINE">
      <line class="fv" x1="926.58" y1="856.87" x2="926.58" y2="857.27"/>
    </g>
    <g id="ca" data-name="LINE">
      <line class="fv" x1="985.26" y1="856.87" x2="985.26" y2="857.27"/>
    </g>
    <g id="cb" data-name="LINE">
      <line class="fv" x1="984.98" y1="856.87" x2="984.98" y2="857.27"/>
    </g>
    <g id="cc" data-name="LINE">
      <line class="fv" x1="810.08" y1="857.27" x2="868.19" y2="857.27"/>
    </g>
    <g id="cd" data-name="LINE">
      <line class="fv" x1="810.08" y1="856.99" x2="868.19" y2="856.99"/>
    </g>
    <g id="ce" data-name="LINE">
      <line class="fv" x1="868.47" y1="857.27" x2="926.58" y2="857.27"/>
    </g>
    <g id="cf" data-name="LINE">
      <line class="fv" x1="868.47" y1="856.99" x2="926.58" y2="856.99"/>
    </g>
    <g id="cg" data-name="LINE">
      <line class="fv" x1="926.87" y1="857.27" x2="984.98" y2="857.27"/>
    </g>
    <g id="ch" data-name="LINE">
      <line class="fv" x1="926.87" y1="856.99" x2="984.98" y2="856.99"/>
    </g>
    <g id="ci" data-name="LINE">
      <line class="fv" x1="1051.17" y1="856.87" x2="1051.17" y2="857.27"/>
    </g>
    <g id="cj" data-name="LINE">
      <line class="fv" x1="1050.88" y1="856.87" x2="1050.88" y2="857.27"/>
    </g>
    <g id="ck" data-name="LINE">
      <line class="fv" x1="985.26" y1="857.27" x2="1050.88" y2="857.27"/>
    </g>
    <g id="cl" data-name="LINE">
      <line class="fv" x1="985.26" y1="856.99" x2="1050.88" y2="856.99"/>
    </g>
    <g id="cm" data-name="LINE">
      <line class="fv" x1="1110.02" y1="856.87" x2="1110.02" y2="857.27"/>
    </g>
    <g id="cn" data-name="LINE">
      <line class="fv" x1="1109.74" y1="856.87" x2="1109.74" y2="857.27"/>
    </g>
    <g id="co" data-name="LINE">
      <line class="fv" x1="1051.17" y1="857.27" x2="1109.74" y2="857.27"/>
    </g>
    <g id="cp" data-name="LINE">
      <line class="fv" x1="1051.17" y1="856.99" x2="1109.74" y2="856.99"/>
    </g>
    <g id="cq" data-name="LINE">
      <line class="fv" x1="1166.46" y1="856.87" x2="1166.46" y2="857.27"/>
    </g>
    <g id="cr" data-name="LINE">
      <line class="fv" x1="1166.18" y1="856.87" x2="1166.18" y2="857.27"/>
    </g>
    <g id="cs" data-name="LINE">
      <line class="fv" x1="1110.02" y1="857.27" x2="1166.18" y2="857.27"/>
    </g>
    <g id="ct" data-name="LINE">
      <line class="fv" x1="1110.02" y1="856.99" x2="1166.18" y2="856.99"/>
    </g>
    <g id="cu" data-name="LINE">
      <line class="fv" x1="1225.74" y1="856.87" x2="1225.74" y2="857.27"/>
    </g>
    <g id="cv" data-name="LINE">
      <line class="fv" x1="1225.46" y1="856.87" x2="1225.46" y2="857.27"/>
    </g>
    <g id="cw" data-name="LINE">
      <line class="fv" x1="1166.46" y1="857.27" x2="1225.46" y2="857.27"/>
    </g>
    <g id="cx" data-name="LINE">
      <line class="fv" x1="1166.46" y1="856.99" x2="1225.46" y2="856.99"/>
    </g>
    <g id="cy" data-name="LINE">
      <line class="fv" x1="1281.76" y1="856.87" x2="1281.76" y2="857.27"/>
    </g>
    <g id="cz" data-name="LINE">
      <line class="fv" x1="1281.48" y1="856.87" x2="1281.48" y2="857.27"/>
    </g>
    <g id="da" data-name="LINE">
      <line class="fv" x1="1225.74" y1="857.27" x2="1281.48" y2="857.27"/>
    </g>
    <g id="db" data-name="LINE">
      <line class="fv" x1="1225.74" y1="856.99" x2="1281.48" y2="856.99"/>
    </g>
    <g id="dc" data-name="LWPOLYLINE">
      <rect class="fv" x="744.46" y="855.46" width=".85" height="1.42"/>
    </g>
    <g id="dd" data-name="LWPOLYLINE">
      <rect class="fv" x="809.51" y="855.46" width=".85" height="1.42"/>
    </g>
    <g id="de" data-name="LWPOLYLINE">
      <rect class="fv" x="867.91" y="855.46" width=".85" height="1.42"/>
    </g>
    <g id="df" data-name="LWPOLYLINE">
      <rect class="fv" x="926.3" y="855.46" width=".85" height="1.42"/>
    </g>
    <g id="dg" data-name="LWPOLYLINE">
      <rect class="fv" x="984.69" y="855.46" width=".85" height="1.42"/>
    </g>
    <g id="dh" data-name="LWPOLYLINE">
      <rect class="fv" x="1050.6" y="855.46" width=".85" height="1.42"/>
    </g>
    <g id="di" data-name="LWPOLYLINE">
      <rect class="fv" x="1109.45" y="855.46" width=".85" height="1.42"/>
    </g>
    <g id="dj" data-name="LWPOLYLINE">
      <rect class="fv" x="1165.9" y="855.46" width=".85" height="1.42"/>
    </g>
    <g id="dk" data-name="LWPOLYLINE">
      <rect class="fv" x="1225.18" y="855.46" width=".85" height="1.42"/>
    </g>
    <g id="dl" data-name="LWPOLYLINE">
      <rect class="fv" x="1281.2" y="855.46" width=".85" height="1.42"/>
    </g>
    <g id="dm" data-name="LWPOLYLINE">
      <polyline class="fv" points="754.24 349.76 741.48 349.76 741.48 592.12 1039.97 592.12"/>
    </g>
    <g id="dn" data-name="LWPOLYLINE">
      <line class="fu" x1="1039.97" y1="579.93" x2="1039.97" y2="823.14"/>
    </g>
    <g id="do" data-name="LWPOLYLINE">
      <polyline class="fu" points="1039.97 830.23 1039.97 841.85 1043.51 841.85"/>
    </g>
    <g id="dp" data-name="LWPOLYLINE">
      <polyline class="fu" points="1042.8 830.23 1042.8 839.02 1043.51 839.02"/>
    </g>
    <g id="dq" data-name="LWPOLYLINE">
      <line class="fu" x1="1053.43" y1="841.28" x2="1109.17" y2="841.28"/>
    </g>
    <g id="dr" data-name="LWPOLYLINE">
      <line class="fu" x1="1110.59" y1="841.28" x2="1165.61" y2="841.28"/>
    </g>
    <g id="ds" data-name="LWPOLYLINE">
      <line class="fu" x1="1167.03" y1="841.28" x2="1224.89" y2="841.28"/>
    </g>
    <g id="dt" data-name="LWPOLYLINE">
      <line class="fu" x1="1226.31" y1="841.28" x2="1279.21" y2="841.28"/>
    </g>
    <g id="du" data-name="LWPOLYLINE">
      <line class="fu" x1="1042.8" y1="579.93" x2="1042.8" y2="823.14"/>
    </g>
    <g id="dv" data-name="LWPOLYLINE">
      <line class="fu" x1="1053.43" y1="838.45" x2="1109.17" y2="838.45"/>
    </g>
    <g id="dw" data-name="LWPOLYLINE">
      <line class="fu" x1="1110.59" y1="838.45" x2="1165.61" y2="838.45"/>
    </g>
    <g id="dx" data-name="LWPOLYLINE">
      <line class="fu" x1="1167.03" y1="838.45" x2="1224.89" y2="838.45"/>
    </g>
    <g id="dy" data-name="LWPOLYLINE">
      <line class="fu" x1="1282.05" y1="823.14" x2="1282.05" y2="579.93"/>
    </g>
    <g id="dz" data-name="LWPOLYLINE">
      <polyline class="fu" points="1226.31 838.45 1276.38 838.45 1276.38 825.98"/>
    </g>
    <g id="ea" data-name="LWPOLYLINE">
      <line class="fu" x1="1276.38" y1="823.14" x2="1276.38" y2="579.93"/>
    </g>
    <g id="eb" data-name="LWPOLYLINE">
      <line class="fp" x1="811.35" y1="848.37" x2="811.35" y2="830.23"/>
    </g>
    <g id="ec" data-name="LWPOLYLINE">
      <line class="fp" x1="808.52" y1="848.37" x2="808.52" y2="830.23"/>
    </g>
    <g id="ed" data-name="LWPOLYLINE">
      <line class="fp" x1="869.75" y1="848.37" x2="869.75" y2="830.23"/>
    </g>
    <g id="ee" data-name="LWPOLYLINE">
      <line class="fp" x1="866.91" y1="848.37" x2="866.91" y2="830.23"/>
    </g>
    <g id="ef" data-name="LWPOLYLINE">
      <line class="fp" x1="928.14" y1="848.37" x2="928.14" y2="830.23"/>
    </g>
    <g id="eg" data-name="LWPOLYLINE">
      <line class="fp" x1="925.31" y1="848.37" x2="925.31" y2="830.23"/>
    </g>
    <g id="eh" data-name="LWPOLYLINE">
      <line class="fp" x1="986.54" y1="848.37" x2="986.54" y2="830.23"/>
    </g>
    <g id="ei" data-name="LWPOLYLINE">
      <line class="fp" x1="983.7" y1="848.37" x2="983.7" y2="830.23"/>
    </g>
    <g id="ej" data-name="LINE">
      <line class="fp" x1="1110.59" y1="852.62" x2="1110.59" y2="825.98"/>
    </g>
    <g id="ek" data-name="LINE">
      <line class="fp" x1="1109.17" y1="852.62" x2="1109.17" y2="825.98"/>
    </g>
    <g id="el" data-name="LINE">
      <line class="fp" x1="1167.03" y1="852.62" x2="1167.03" y2="825.98"/>
    </g>
    <g id="em" data-name="LINE">
      <line class="fp" x1="1165.61" y1="852.62" x2="1165.61" y2="825.98"/>
    </g>
    <g id="en" data-name="LINE">
      <line class="fp" x1="1226.31" y1="852.62" x2="1226.31" y2="825.98"/>
    </g>
    <g id="eo" data-name="LINE">
      <line class="fp" x1="1224.89" y1="852.62" x2="1224.89" y2="825.98"/>
    </g>
    <g id="ep" data-name="LWPOLYLINE">
      <rect class="fp" x="1050.6" y="823.14" width="231.45" height="32.31"/>
    </g>
    <g id="eq" data-name="LWPOLYLINE">
      <rect class="fp" x="1053.43" y="825.98" width="225.78" height="26.65"/>
    </g>
    <g id="er" data-name="LWPOLYLINE">
      <polyline class="fp" points="1050.6 855.46 744.46 855.46 744.46 823.14 1050.6 823.14"/>
    </g>
    <g id="es" data-name="LWPOLYLINE">
      <rect class="fp" x="751.54" y="830.23" width="291.97" height="18.14"/>
    </g>
    <g id="et" data-name="LWPOLYLINE">
      <rect class="fs" x="754.24" y="349.76" width="527.81" height="230.17"/>
    </g>
    <g id="eu" data-name="LINE">
      <line class="fs" x1="1282.05" y1="464.84" x2="754.24" y2="464.84"/>
    </g>
    <g id="ev" data-name="LINE">
      <line class="fs" x1="1282.05" y1="467.68" x2="754.24" y2="467.68"/>
    </g>
    <g id="ew" data-name="LINE">
      <line class="fs" x1="1282.05" y1="462.01" x2="754.24" y2="462.01"/>
    </g>
  </g>
  <g id="fb" data-name="SCALE">
    <g>
      <g id="fc" data-name="MTEXT">
        <path class="fx" d="M281.36,1108.4c-.64-.5-1.13-1.2-1.49-2.1-.36-.9-.54-1.92-.54-3.06s.18-2.15.54-3.04c.36-.9.85-1.6,1.49-2.1.63-.5,1.36-.75,2.17-.75s1.53.25,2.17.75c.63.5,1.13,1.2,1.49,2.1.36.9.54,1.91.54,3.04s-.18,2.16-.54,3.05c-.36.89-.85,1.59-1.49,2.1-.64.51-1.36.76-2.17.76s-1.54-.25-2.17-.75ZM285.02,1107.36c.44-.41.78-.96,1.02-1.67s.36-1.52.36-2.44-.12-1.74-.36-2.45c-.24-.72-.58-1.27-1.02-1.67-.44-.4-.93-.6-1.49-.6s-1.05.2-1.48.6c-.43.4-.77.96-1.02,1.67-.25.71-.37,1.53-.37,2.43s.12,1.75.37,2.46c.25.71.58,1.27,1.02,1.67.43.41.93.61,1.48.61s1.05-.2,1.49-.61Z"/>
      </g>
      <g id="fd" data-name="MTEXT">
        <path class="fx" d="M336.68,1107.21c.19-.17.42-.38.71-.64.93-.85,1.68-1.57,2.24-2.15.57-.58,1.05-1.17,1.44-1.78.39-.6.59-1.16.59-1.67,0-.48-.09-.9-.28-1.27-.19-.37-.45-.66-.78-.86s-.71-.31-1.15-.31c-.47,0-.93.16-1.37.48s-.78.73-1,1.23l-1.2-.51c.3-.71.79-1.28,1.46-1.73.67-.45,1.38-.67,2.11-.67.69,0,1.31.16,1.85.46s.96.74,1.26,1.29.45,1.18.45,1.9-.22,1.41-.67,2.14c-.45.73-.98,1.41-1.6,2.04-.62.63-1.42,1.39-2.42,2.27-.49.45-.96.88-1.39,1.3l-.94-.85c.28-.27.51-.49.7-.66ZM335.99,1107.87h7.22v1.19h-7.05l-.18-1.19Z"/>
      </g>
      <g id="fe" data-name="MTEXT">
        <path class="fx" d="M423.16,1101.84c.55-.25,1.08-.38,1.59-.38.77,0,1.45.16,2.06.49.6.33,1.07.78,1.41,1.35.34.58.5,1.24.5,1.99s-.17,1.43-.5,2.02c-.33.59-.8,1.05-1.4,1.39-.6.34-1.29.5-2.07.5-.6,0-1.16-.12-1.69-.38-.53-.25-.98-.6-1.35-1.05-.37-.45-.62-.96-.74-1.52l1.3-.3c.13.59.42,1.07.89,1.43s1,.55,1.59.55c.5,0,.95-.11,1.35-.34.4-.22.72-.54.94-.94.23-.41.34-.86.34-1.36s-.11-.95-.34-1.34-.54-.69-.94-.91-.85-.33-1.35-.33c-.33,0-.68.09-1.04.26-.36.18-.66.4-.9.68l-.99-.86c.34-.38.79-.7,1.34-.95ZM421.48,1103.47l.37-6.04h5.93v1.18h-4.64l-.32,5.04-1.33-.19Z"/>
      </g>
      <g id="ff" data-name="MTEXT">
        <path class="fx" d="M312,1109.04h-1.35v-10.09l-1.86,1.2-.67-1.07,2.55-1.62h1.33v11.58Z"/>
      </g>
      <g id="fg" data-name="MTEXT">
        <g>
          <path class="fx" d="M561.37,1109.04h-1.35v-10.09l-1.86,1.2-.67-1.07,2.55-1.62h1.33v11.58Z"/>
          <path class="fx" d="M565.83,1108.4c-.64-.5-1.13-1.2-1.49-2.1s-.54-1.92-.54-3.06.18-2.15.54-3.04.85-1.6,1.49-2.1c.63-.5,1.36-.75,2.17-.75s1.53.25,2.17.75,1.13,1.2,1.49,2.1.54,1.91.54,3.04-.18,2.16-.54,3.05-.85,1.59-1.49,2.1c-.64.51-1.36.76-2.17.76s-1.54-.25-2.17-.75ZM569.49,1107.36c.44-.41.78-.96,1.02-1.67s.36-1.52.36-2.44-.12-1.74-.36-2.45c-.24-.72-.58-1.27-1.02-1.67-.44-.4-.93-.6-1.49-.6s-1.05.2-1.48.6c-.43.4-.77.96-1.02,1.67-.25.71-.37,1.53-.37,2.43s.12,1.75.37,2.46.58,1.27,1.02,1.67c.43.41.93.61,1.48.61s1.05-.2,1.49-.61Z"/>
          <path class="fx" d="M583.38,1103.3c-.29-.34-.67-.5-1.13-.5-.35,0-.66.07-.94.22-.27.14-.49.34-.65.6s-.24.55-.24.88v4.58h-1.33v-4.45c0-.54-.14-.98-.43-1.32-.29-.34-.66-.5-1.12-.5-.34,0-.65.09-.94.26-.28.18-.5.42-.66.72-.15.3-.23.63-.23.99v4.31h-1.33v-7.46h1.33v1.31l-.14-.05c.22-.37.52-.68.9-.91.37-.23.75-.35,1.14-.35.46,0,.9.13,1.32.38.42.26.74.59.95.99.25-.41.59-.74,1.04-.99.45-.26.9-.38,1.36-.38.56,0,1.05.13,1.49.38s.78.59,1.02,1.02.37.93.37,1.5v4.56h-1.35v-4.45c0-.54-.15-.98-.44-1.32Z"/>
        </g>
      </g>
      <g id="fh" data-name="LWPOLYLINE">
        <polyline class="fr" points="566.32 1076.38 566.32 1093.39 424.59 1093.39 424.59 1076.38 339.55 1076.38 339.55 1093.39 311.2 1093.39 311.2 1076.38 282.85 1076.38 282.85 1093.39"/>
      </g>
      <g id="fi" data-name="CIRCLE">
        <circle class="fr" cx="214.88" cy="1092.92" r="14.88"/>
      </g>
      <g id="fj" data-name="TEXT">
        <path class="fq" d="M224.5,1077.4l-.86-.35-1.26-8.05-2.62,6.47-.84-.34,3.28-8.1.87.35,1.26,8.02,2.61-6.45.84.34-3.28,8.1Z"/>
      </g>
      <g id="fk" data-name="HATCH">
        <path class="fw" d="M220.46,1079.13c-.23-.09-.46-.18-.7-.26l-5.57,13.78.69.28,5.58-13.8Z"/>
      </g>
      <g id="fl" data-name="HATCH">
        <path class="fw" d="M221.15,1079.42c-.23-.1-.45-.2-.69-.3l-5.58,13.8.69.28,5.57-13.78Z"/>
      </g>
      <g id="fm" data-name="LINE">
        <line class="fr" x1="219.76" y1="1078.86" x2="214.19" y2="1092.64"/>
      </g>
      <g id="fn" data-name="LINE">
        <line class="fr" x1="221.15" y1="1079.42" x2="215.57" y2="1093.2"/>
      </g>
      <g id="fo" data-name="LINE">
        <line class="fr" x1="214.88" y1="1092.92" x2="220.46" y2="1079.13"/>
      </g>
    </g>
  </g>
</svg>