<?xml version="1.0" encoding="UTF-8"?>
<svg xmlns="http://www.w3.org/2000/svg" viewBox="0 0 2000 1250">
  <defs>
    <style>
      .lx {
        stroke-width: .45px;
      }

      .lx, .ly, .lz, .ma, .mb, .mc, .md, .me, .mf, .mg, .mh, .mi, .mj, .mk, .ml, .mm, .mn, .mo {
        stroke: #000;
      }

      .lx, .ly, .lz, .ma, .mb, .mc, .md, .me, .mh, .mi, .mj, .mk, .ml, .mm, .mn {
        fill: none;
      }

      .lx, .ly, .lz, .ma, .mb, .mc, .md, .me, .mi, .mj, .mk, .ml, .mm, .mn {
        stroke-miterlimit: 10;
      }

      .ly, .mo {
        stroke-width: .5px;
      }

      .ma, .mc, .mi, .mm {
        stroke-width: .2px;
      }

      .mp {
        fill: #d6d6d6;
        fill-rule: evenodd;
      }

      .mb {
        stroke-width: .75px;
      }

      .mc {
        stroke-dasharray: 1.93 .97;
      }

      .md {
        stroke-width: .4px;
      }

      .me {
        stroke-width: .35px;
      }

      .mf {
        stroke-width: .34px;
      }

      .mf, .mg {
        fill: #040000;
      }

      .mg {
        font-family: SUITVariable-ExtraLight, 'SUIT Variable';
        font-size: 14px;
        font-variation-settings: 'wght' 200;
        font-weight: 200;
        stroke-width: .34px;
      }

      .mh {
        stroke-linecap: round;
        stroke-linejoin: round;
      }

      .mh, .mk, .mn {
        stroke-width: .25px;
      }

      .mi {
        stroke-dasharray: 2.07 1.04;
      }

      .mj {
        stroke-width: 2px;
      }

      .ml {
        stroke-width: .3px;
      }

      .mm {
        stroke-dasharray: 1.97 .98;
      }

      .mn {
        stroke-dasharray: 1.95 .97;
      }

      .mo {
        fill: #040000;
      }
    </style>
  </defs>
  <g id="ar" data-name="SEC B">
    <g id="as" data-name="HATCH">
      <path class="mp" d="M1275.24,808.92h-501.73v22.68h12.76v-14.17h476.22v14.17h12.76v-22.68M1275.24,706.03h-501.73v19.84h8.5v-14.17h94.68v14.17h8.5v-14.17h77.39v14.17h8.5v-14.17h77.39v14.17h8.5v-14.17h206.36v14.17h11.91v-19.84M1275.24,617.02h-496.06v-5.66l-5.67-.02v25.52h8.5v-14.17h94.68v14.17h8.5v-14.17h77.39v14.17h8.5v-14.17h77.39v14.17h8.5v-14.17h206.36v14.17h11.91v-19.84M1271.84,528.01h-8.5v19.84h8.5v-19.84M1056.98,515.82h-5.67v12.19h-261.64v-12.19h-5.67v17.86h23.81v14.17h8.5v-14.17h60.38v14.17h8.5v-14.17h77.39v14.17h8.5v-14.17h77.39v14.17h8.5v-32.03M807.24,580.17h-20.41v6.52h20.41v-6.52M786.83,586.69h-2.83v-34.02h2.83v34.02Z"/>
    </g>
    <g id="at" data-name="HATCH">
      <path class="mh" d="M807.81,548.43l.57-.57M807.81,550.97l2.83-2.83M807.81,553.52l2.83-2.83M807.81,556.06l2.83-2.83M813.48,550.39l2.54-2.54M807.81,558.61l2.83-2.83M813.48,552.94l2.83-2.83M807.81,561.15l2.83-2.83M813.48,555.49l2.83-2.83M807.81,563.7l2.83-2.83M813.48,558.03l2.83-2.83M807.81,566.25l2.83-2.83M813.48,560.58l2.83-2.83M807.81,568.79l2.83-2.83M813.48,563.12l2.83-2.83M807.81,571.34l2.83-2.83M813.48,565.67l2.83-2.83M807.81,573.88l2.83-2.83M813.48,568.21l2.83-2.83M807.81,576.43l2.83-2.83M813.48,570.76l2.83-2.83M807.81,578.97l2.83-2.83M813.48,573.3l2.83-2.83M807.81,581.52l2.83-2.83M813.48,575.85l2.83-2.83M807.81,584.07l2.83-2.83M813.48,578.4l2.83-2.83M807.81,586.61l2.83-2.83M813.48,580.94l2.83-2.83M807.81,589.16l2.83-2.83M813.48,583.49l2.83-2.83M807.81,591.7l2.83-2.83M813.48,586.03l2.83-2.83M807.81,594.25l2.83-2.83M813.48,588.58l2.83-2.83M807.81,596.79l2.83-2.83M813.48,591.12l2.83-2.83M807.81,599.34l2.83-2.83M813.48,593.67l2.83-2.83M807.81,601.88l2.83-2.83M813.48,596.21l2.83-2.83M807.81,604.43l2.83-2.83M813.48,598.76l2.83-2.83M807.81,606.98l2.83-2.83M813.48,601.31l2.83-2.83M807.81,609.52l2.83-2.83M813.48,603.85l2.83-2.83M807.81,612.07l2.83-2.83M813.48,606.4l2.83-2.83M807.81,614.61l2.83-2.83M813.48,608.94l2.83-2.83M807.95,617.02l2.69-2.69M813.48,611.49l2.83-2.83M810.5,617.02l.15-.15M813.48,614.03l2.83-2.83M813.48,616.58l2.83-2.83M815.59,617.02l.73-.73M1263.34,548.56l.71-.71M1263.34,551.1l2.83-2.83M1263.47,553.52l2.83-2.83M1269.01,547.98l.13-.13M1266.01,553.52l2.83-2.83M1269.01,550.53l2.67-2.67M1268.56,553.52l3.28-3.28M1271.1,553.52l.74-.74M1263.34,596.93l1.45-1.45M1263.34,599.47l4-4M1263.34,602.02l2.83-2.83M1267.05,598.31l2.83-2.83M1263.34,604.56l2.83-2.83M1269.01,598.89l2.83-2.83M1263.34,607.11l2.83-2.83M1269.01,601.44l2.83-2.83M1263.34,609.65l2.83-2.83M1269.01,603.98l2.83-2.83M1263.34,612.2l2.83-2.83M1269.01,606.53l2.83-2.83M1263.34,614.74l2.83-2.83M1269.01,609.07l2.83-2.83M1263.61,617.02l2.56-2.56M1269.01,611.62l2.83-2.83M1266.16,617.02l.02-.02M1269.01,614.17l2.83-2.83M1269.01,616.71l2.83-2.83M1271.25,617.02l.6-.6M1263.34,680.93l2.12-2.12M1263.34,683.47l4.66-4.66M1263.34,686.02l2.83-2.83M1267.71,681.65l2.83-2.83M1263.34,688.57l2.83-2.83M1269.01,682.9l2.83-2.83M1263.34,691.11l2.83-2.83M1269.01,685.44l2.83-2.83M1263.34,693.66l2.83-2.83M1269.01,687.99l2.83-2.83M1263.34,696.2l2.83-2.83M1269.01,690.53l2.83-2.83M1263.34,698.75l2.83-2.83M1269.01,693.08l2.83-2.83M1263.34,701.29l2.83-2.83M1269.01,695.62l2.83-2.83M1263.34,703.84l2.83-2.83M1269.01,698.17l2.83-2.83M1263.7,706.03l2.48-2.48M1269.01,700.72l2.83-2.83M1269.01,703.26l2.83-2.83M1269.01,705.81l2.83-2.83M1271.33,706.03l.51-.51M1263.34,762.39l2.5-2.5M1263.34,764.93l5.05-5.05M1263.34,767.48l2.83-2.83M1268.1,762.72l2.83-2.83M1263.34,770.02l2.83-2.83M1269.01,764.36l2.83-2.83M1263.34,772.57l2.83-2.83M1269.01,766.9l2.83-2.83M1263.34,775.12l2.83-2.83M1269.01,769.45l2.83-2.83M1263.34,777.66l2.83-2.83M1269.01,771.99l2.83-2.83M1263.34,780.21l2.83-2.83M1269.01,774.54l2.83-2.83M1263.34,782.75l2.83-2.83M1269.01,777.08l2.83-2.83M1263.34,785.3l2.83-2.83M1269.01,779.63l2.83-2.83M1263.34,787.84l2.83-2.83M1269.01,782.17l2.83-2.83M1263.34,790.39l2.83-2.83M1269.01,784.72l2.83-2.83M1263.34,792.94l2.83-2.83M1269.01,787.27l2.83-2.83M1263.34,795.48l2.83-2.83M1269.01,789.81l2.83-2.83M1263.34,798.03l2.83-2.83M1269.01,792.36l2.83-2.83M1263.34,800.57l2.83-2.83M1269.01,794.9l2.83-2.83M1263.34,803.12l2.83-2.83M1269.01,797.45l2.83-2.83M1263.34,805.66l2.83-2.83M1269.01,799.99l2.83-2.83M1263.34,808.21l2.83-2.83M1269.01,802.54l2.83-2.83M1265.17,808.92l1-1M1269.01,805.08l2.83-2.83M1269.01,807.63l2.83-2.83M1270.26,808.92l1.58-1.58"/>
    </g>
    <g id="au" data-name="LINE">
      <line class="ma" x1="831.34" y1="727" x2="831.34" y2="804.39"/>
    </g>
    <g id="av" data-name="LINE">
      <line class="ma" x1="831.62" y1="727" x2="831.62" y2="804.39"/>
    </g>
    <g id="aw" data-name="LINE">
      <line class="ma" x1="1007.94" y1="727" x2="1007.94" y2="804.39"/>
    </g>
    <g id="ax" data-name="LINE">
      <line class="ma" x1="1008.22" y1="727" x2="1008.22" y2="804.39"/>
    </g>
    <g id="ay" data-name="LINE">
      <line class="ma" x1="831.34" y1="637.99" x2="831.34" y2="701.49"/>
    </g>
    <g id="az" data-name="LINE">
      <line class="ma" x1="831.62" y1="637.99" x2="831.62" y2="701.49"/>
    </g>
    <g id="ba" data-name="LINE">
      <line class="ma" x1="1007.94" y1="637.99" x2="1007.94" y2="701.49"/>
    </g>
    <g id="bb" data-name="LINE">
      <line class="ma" x1="1008.22" y1="637.99" x2="1008.22" y2="701.49"/>
    </g>
    <g id="bc" data-name="LINE">
      <line class="ma" x1="923.75" y1="637.99" x2="923.75" y2="701.49"/>
    </g>
    <g id="bd" data-name="LINE">
      <line class="ma" x1="924.03" y1="637.99" x2="924.03" y2="701.49"/>
    </g>
    <g id="be" data-name="LINE">
      <line class="ma" x1="1086.74" y1="613.62" x2="1086.74" y2="547.85"/>
    </g>
    <g id="bf" data-name="LWPOLYLINE">
      <rect class="ma" x="783.15" y="727" width="92.41" height="77.39"/>
    </g>
    <g id="bg" data-name="LWPOLYLINE">
      <rect class="ma" x="972.22" y="727" width="75.12" height="77.39"/>
    </g>
    <g id="bh" data-name="LWPOLYLINE">
      <rect class="ma" x="972.22" y="637.99" width="75.12" height="63.5"/>
    </g>
    <g id="bi" data-name="LWPOLYLINE">
      <rect class="ma" x="886.33" y="637.99" width="75.12" height="63.5"/>
    </g>
    <g id="bj" data-name="LWPOLYLINE">
      <rect class="ma" x="783.15" y="637.99" width="92.41" height="63.5"/>
    </g>
    <g id="bk" data-name="LWPOLYLINE">
      <rect class="ma" x="1089.01" y="584.28" width=".57" height="11.34"/>
    </g>
    <g id="bl" data-name="LWPOLYLINE">
      <rect class="ma" x="1083.91" y="584.28" width=".57" height="11.34"/>
    </g>
    <g id="bm" data-name="LINE">
      <line class="ma" x1="776.63" y1="552.88" x2="776.66" y2="611.35"/>
    </g>
    <g id="bn" data-name="LINE">
      <line class="ma" x1="801.86" y1="470.68" x2="801.86" y2="516.67"/>
    </g>
    <g id="bo" data-name="LINE">
      <line class="ma" x1="794.77" y1="470.68" x2="794.77" y2="516.67"/>
    </g>
    <g id="bp" data-name="LINE">
      <line class="ma" x1="776.63" y1="470.68" x2="776.63" y2="547.21"/>
    </g>
    <g id="bq" data-name="LINE">
      <line class="ma" x1="784" y1="544.38" x2="776.63" y2="544.38"/>
    </g>
    <g id="br" data-name="LINE">
      <line class="ma" x1="784" y1="535.88" x2="776.63" y2="535.88"/>
    </g>
    <g id="bs" data-name="LWPOLYLINE">
      <rect class="ma" x="920.49" y="754.33" width=".85" height="51.02"/>
    </g>
    <g id="bt" data-name="LWPOLYLINE">
      <rect class="ma" x="926.44" y="754.33" width=".85" height="51.02"/>
    </g>
    <g id="bu" data-name="LINE">
      <line class="ma" x1="1261.92" y1="539.21" x2="1056.98" y2="539.21"/>
    </g>
    <g id="bv" data-name="LINE">
      <line class="ma" x1="1056.98" y1="545.73" x2="1261.92" y2="545.73"/>
    </g>
    <g id="bw" data-name="LINE">
      <line class="ma" x1="1261.92" y1="547.85" x2="1056.98" y2="547.85"/>
    </g>
    <g id="bx" data-name="LWPOLYLINE">
      <line class="ma" x1="1057.87" y1="539.21" x2="1068.04" y2="545.73"/>
    </g>
    <g id="by" data-name="LWPOLYLINE">
      <polyline class="ma" points="1069.1 545.73 1078.75 539.54 1088.4 545.73"/>
    </g>
    <g id="bz" data-name="LWPOLYLINE">
      <polyline class="ma" points="1089.45 545.73 1099.1 539.54 1108.75 545.73"/>
    </g>
    <g id="ca" data-name="LWPOLYLINE">
      <polyline class="ma" points="1109.8 545.73 1119.45 539.54 1129.1 545.73"/>
    </g>
    <g id="cb" data-name="LWPOLYLINE">
      <polyline class="ma" points="1130.15 545.73 1139.8 539.54 1149.46 545.73"/>
    </g>
    <g id="cc" data-name="LWPOLYLINE">
      <polyline class="ma" points="1150.51 545.73 1160.16 539.54 1169.81 545.73"/>
    </g>
    <g id="cd" data-name="LWPOLYLINE">
      <polyline class="ma" points="1170.86 545.73 1180.51 539.54 1190.16 545.73"/>
    </g>
    <g id="ce" data-name="LWPOLYLINE">
      <polyline class="ma" points="1191.21 545.73 1200.86 539.54 1210.51 545.73"/>
    </g>
    <g id="cf" data-name="LWPOLYLINE">
      <polyline class="ma" points="1211.56 545.73 1221.22 539.54 1230.87 545.73"/>
    </g>
    <g id="cg" data-name="LWPOLYLINE">
      <polyline class="ma" points="1231.92 545.73 1241.57 539.54 1251.22 545.73"/>
    </g>
    <g id="ch" data-name="LWPOLYLINE">
      <line class="ma" x1="1252.27" y1="545.73" x2="1261.92" y2="539.54"/>
    </g>
    <g id="ci" data-name="LWPOLYLINE">
      <polyline class="ma" points="1058.92 539.21 1068.57 545.39 1078.22 539.21"/>
    </g>
    <g id="cj" data-name="LWPOLYLINE">
      <polyline class="ma" points="1079.27 539.21 1088.92 545.39 1098.57 539.21"/>
    </g>
    <g id="ck" data-name="LWPOLYLINE">
      <polyline class="ma" points="1099.62 539.21 1109.28 545.39 1118.93 539.21"/>
    </g>
    <g id="cl" data-name="LWPOLYLINE">
      <polyline class="ma" points="1119.98 539.21 1129.63 545.39 1139.28 539.21"/>
    </g>
    <g id="cm" data-name="LWPOLYLINE">
      <polyline class="ma" points="1140.33 539.21 1149.98 545.39 1159.63 539.21"/>
    </g>
    <g id="cn" data-name="LWPOLYLINE">
      <polyline class="ma" points="1160.68 539.21 1170.33 545.39 1179.98 539.21"/>
    </g>
    <g id="co" data-name="LWPOLYLINE">
      <polyline class="ma" points="1181.04 539.21 1190.69 545.39 1200.34 539.21"/>
    </g>
    <g id="cp" data-name="LWPOLYLINE">
      <polyline class="ma" points="1201.39 539.21 1211.04 545.39 1220.69 539.21"/>
    </g>
    <g id="cq" data-name="LWPOLYLINE">
      <polyline class="ma" points="1221.74 539.21 1231.39 545.39 1241.04 539.21"/>
    </g>
    <g id="cr" data-name="LWPOLYLINE">
      <polyline class="ma" points="1242.09 539.21 1251.74 545.39 1261.4 539.21"/>
    </g>
    <g id="cs" data-name="LWPOLYLINE">
      <polyline class="ml" points="1056.98 801.27 1096.66 801.27 1096.66 805.52"/>
    </g>
    <g id="ct" data-name="LINE">
      <line class="ma" x1="1096.66" y1="801.27" x2="1096.66" y2="725.87"/>
    </g>
    <g id="cu" data-name="LINE">
      <line class="ma" x1="1123.59" y1="725.87" x2="1123.59" y2="805.52"/>
    </g>
    <g id="cv" data-name="LINE">
      <line class="ma" x1="1150.52" y1="725.87" x2="1150.52" y2="805.52"/>
    </g>
    <g id="cw" data-name="LINE">
      <line class="ma" x1="1177.45" y1="725.87" x2="1177.45" y2="805.52"/>
    </g>
    <g id="cx" data-name="LINE">
      <line class="ma" x1="1204.38" y1="725.87" x2="1204.38" y2="805.52"/>
    </g>
    <g id="cy" data-name="LINE">
      <line class="ma" x1="1233.86" y1="725.87" x2="1233.86" y2="805.52"/>
    </g>
    <g id="cz" data-name="LINE">
      <line class="ma" x1="1096.66" y1="702.62" x2="1096.66" y2="636.86"/>
    </g>
    <g id="da" data-name="LINE">
      <line class="ma" x1="1123.59" y1="636.86" x2="1123.59" y2="702.62"/>
    </g>
    <g id="db" data-name="LINE">
      <line class="ma" x1="1150.52" y1="636.86" x2="1150.52" y2="702.62"/>
    </g>
    <g id="dc" data-name="LINE">
      <line class="ma" x1="1177.45" y1="636.86" x2="1177.45" y2="702.62"/>
    </g>
    <g id="dd" data-name="LINE">
      <line class="ma" x1="1204.38" y1="636.86" x2="1204.38" y2="702.62"/>
    </g>
    <g id="de" data-name="LINE">
      <line class="ma" x1="1233.86" y1="636.86" x2="1233.86" y2="702.62"/>
    </g>
    <g id="df" data-name="LINE">
      <line class="ma" x1="1096.66" y1="613.62" x2="1096.66" y2="547.85"/>
    </g>
    <g id="dg" data-name="LINE">
      <line class="ml" x1="1259.37" y1="725.87" x2="1259.37" y2="805.52"/>
    </g>
    <g id="dh" data-name="LINE">
      <line class="ma" x1="1259.37" y1="743.07" x2="1096.66" y2="743.07"/>
    </g>
    <g id="di" data-name="LINE">
      <line class="ma" x1="1259.37" y1="640.18" x2="1096.66" y2="640.18"/>
    </g>
    <g id="dj" data-name="LINE">
      <line class="ml" x1="1259.37" y1="636.86" x2="1259.37" y2="702.62"/>
    </g>
    <g id="dk" data-name="LINE">
      <line class="ma" x1="1123.59" y1="613.62" x2="1123.59" y2="547.85"/>
    </g>
    <g id="dl" data-name="LINE">
      <line class="ma" x1="1150.52" y1="613.62" x2="1150.52" y2="547.85"/>
    </g>
    <g id="dm" data-name="LINE">
      <line class="ma" x1="1177.45" y1="613.62" x2="1177.45" y2="547.85"/>
    </g>
    <g id="dn" data-name="LINE">
      <line class="ma" x1="1204.38" y1="613.62" x2="1204.38" y2="547.85"/>
    </g>
    <g id="do" data-name="LINE">
      <line class="ma" x1="1233.86" y1="613.62" x2="1233.86" y2="547.85"/>
    </g>
    <g id="dp" data-name="LINE">
      <line class="ml" x1="1259.37" y1="613.62" x2="1259.37" y2="547.85"/>
    </g>
    <g id="dq" data-name="LWPOLYLINE">
      <line class="ml" x1="1056.98" y1="537.65" x2="1261.92" y2="537.65"/>
    </g>
    <g id="dr" data-name="LWPOLYLINE">
      <line class="ml" x1="1056.98" y1="537.08" x2="1261.92" y2="537.08"/>
    </g>
    <g id="ds" data-name="LWPOLYLINE">
      <polyline class="ml" points="817.73 550.69 1056.98 550.69 1056.98 547.85"/>
    </g>
    <g id="dt" data-name="LWPOLYLINE">
      <polyline class="ml" points="817.73 550.12 1056.41 550.12 1056.41 547.85"/>
    </g>
    <g id="du" data-name="LINE">
      <line class="md" x1="876.69" y1="725.87" x2="876.69" y2="805.52"/>
    </g>
    <g id="dv" data-name="LINE">
      <line class="md" x1="885.2" y1="725.87" x2="885.2" y2="805.52"/>
    </g>
    <g id="dw" data-name="LINE">
      <line class="md" x1="962.58" y1="725.87" x2="962.58" y2="805.52"/>
    </g>
    <g id="dx" data-name="LINE">
      <line class="md" x1="971.09" y1="725.87" x2="971.09" y2="805.52"/>
    </g>
    <g id="dy" data-name="LWPOLYLINE">
      <rect class="md" x="886.61" y="727.29" width="35.86" height="76.82"/>
    </g>
    <g id="dz" data-name="LWPOLYLINE">
      <rect class="md" x="925.31" y="727.29" width="35.86" height="76.82"/>
    </g>
    <g id="ea" data-name="LINE">
      <line class="md" x1="923.89" y1="725.87" x2="923.89" y2="805.52"/>
    </g>
    <g id="eb" data-name="LINE">
      <line class="md" x1="773.51" y1="725.87" x2="773.51" y2="805.79"/>
    </g>
    <g id="ec" data-name="LINE">
      <line class="md" x1="876.69" y1="636.86" x2="876.69" y2="702.62"/>
    </g>
    <g id="ed" data-name="LINE">
      <line class="md" x1="885.2" y1="636.86" x2="885.2" y2="702.62"/>
    </g>
    <g id="ee" data-name="LINE">
      <line class="md" x1="962.58" y1="636.86" x2="962.58" y2="702.62"/>
    </g>
    <g id="ef" data-name="LINE">
      <line class="md" x1="971.09" y1="636.86" x2="971.09" y2="702.62"/>
    </g>
    <g id="eg" data-name="LINE">
      <line class="mk" x1="781.45" y1="637.99" x2="781.45" y2="702.62"/>
    </g>
    <g id="eh" data-name="LINE">
      <line class="md" x1="773.51" y1="636.86" x2="773.51" y2="706.03"/>
    </g>
    <g id="ei" data-name="LWPOLYLINE">
      <line class="md" x1="807.24" y1="580.17" x2="807.24" y2="533.68"/>
    </g>
    <g id="ej" data-name="LWPOLYLINE">
      <polyline class="md" points="867.76 550.69 867.76 592.64 825.24 592.64 825.24 550.69"/>
    </g>
    <g id="ek" data-name="LWPOLYLINE">
      <rect class="md" x="826.66" y="552.1" width="39.69" height="39.12"/>
    </g>
    <g id="el" data-name="LWPOLYLINE">
      <polyline class="md" points="949.4 550.69 949.4 592.64 898.38 592.64 898.38 550.69"/>
    </g>
    <g id="em" data-name="LWPOLYLINE">
      <rect class="md" x="899.8" y="552.1" width="48.19" height="39.12"/>
    </g>
    <g id="en" data-name="LWPOLYLINE">
      <polyline class="md" points="1033.59 550.69 1033.59 592.64 982.57 592.64 982.57 550.69"/>
    </g>
    <g id="eo" data-name="LWPOLYLINE">
      <rect class="md" x="983.98" y="552.1" width="48.19" height="39.12"/>
    </g>
    <g id="ep" data-name="LWPOLYLINE">
      <line class="md" x1="786.83" y1="573.65" x2="807.24" y2="573.65"/>
    </g>
    <g id="eq" data-name="LWPOLYLINE">
      <line class="md" x1="786.83" y1="567.13" x2="807.24" y2="567.13"/>
    </g>
    <g id="er" data-name="LWPOLYLINE">
      <line class="md" x1="786.83" y1="560.61" x2="807.24" y2="560.61"/>
    </g>
    <g id="es" data-name="LWPOLYLINE">
      <line class="md" x1="786.83" y1="554.09" x2="807.24" y2="554.09"/>
    </g>
    <g id="et" data-name="LWPOLYLINE">
      <line class="md" x1="786.83" y1="547.57" x2="807.24" y2="547.57"/>
    </g>
    <g id="eu" data-name="LWPOLYLINE">
      <line class="md" x1="786.83" y1="541.05" x2="807.24" y2="541.05"/>
    </g>
    <g id="ev" data-name="LWPOLYLINE">
      <line class="md" x1="786.83" y1="534.53" x2="807.24" y2="534.53"/>
    </g>
    <g id="ew" data-name="LINE">
      <line class="md" x1="786.83" y1="552.67" x2="786.83" y2="533.68"/>
    </g>
    <g id="ex" data-name="LINE">
      <line class="md" x1="784" y1="552.67" x2="784" y2="533.68"/>
    </g>
    <g id="ey" data-name="LINE">
      <line class="mk" x1="781.31" y1="727" x2="781.31" y2="805.52"/>
    </g>
    <g id="ez" data-name="LWPOLYLINE">
      <polygon class="lz" points="773.51 808.92 1275.24 808.92 1275.24 831.6 1262.49 831.6 1262.49 817.43 786.27 817.43 786.27 831.6 773.51 831.6 773.51 808.92"/>
    </g>
    <g id="fa" data-name="LWPOLYLINE">
      <polygon class="lz" points="962.58 711.69 885.2 711.69 885.2 725.87 876.69 725.87 876.69 711.69 782.02 711.69 782.02 725.87 773.51 725.87 773.51 706.03 1275.24 706.03 1275.24 725.87 1263.34 725.87 1263.34 711.69 1056.98 711.69 1056.98 725.87 1048.47 725.87 1048.47 711.69 971.09 711.69 971.09 725.87 962.58 725.87 962.58 711.69"/>
    </g>
    <g id="fb" data-name="LWPOLYLINE">
      <polyline class="lz" points="779.18 617.02 1275.24 617.02 1275.24 636.86 1263.34 636.86 1263.34 622.69 1056.98 622.69 1056.98 636.86 1048.47 636.86 1048.47 622.69 971.09 622.69 971.09 636.86 962.58 636.86 962.58 622.69 885.2 622.69 885.2 636.86 876.69 636.86 876.69 622.69 782.02 622.69 782.02 636.86 773.51 636.86 773.51 611.34 779.18 611.36 779.18 617.03"/>
    </g>
    <g id="fc" data-name="LWPOLYLINE">
      <rect class="lz" x="1263.34" y="528.01" width="8.5" height="19.84"/>
    </g>
    <g id="fd" data-name="LWPOLYLINE">
      <polyline class="lz" points="786.83 586.69 807.24 586.69 807.24 580.17 786.83 580.17"/>
    </g>
    <g id="fe" data-name="LWPOLYLINE">
      <rect class="lz" x="784" y="552.67" width="2.83" height="34.02"/>
    </g>
    <g id="ff" data-name="LWPOLYLINE">
      <polygon class="lz" points="1051.31 528.01 1051.31 515.82 1056.98 515.82 1056.98 547.85 1048.47 547.85 1048.47 533.68 971.09 533.68 971.09 547.85 962.58 547.85 962.58 533.68 885.2 533.68 885.2 547.85 876.69 547.85 876.69 533.68 816.31 533.68 816.31 547.85 807.81 547.85 807.81 533.68 784 533.68 784 515.82 789.67 515.82 789.67 528.01 1051.31 528.01"/>
    </g>
    <g id="fg" data-name="LINE">
      <line class="ma" x1="1264.76" y1="727.29" x2="1264.76" y2="758.47"/>
    </g>
    <g id="fh" data-name="LINE">
      <line class="ma" x1="780.74" y1="727" x2="780.74" y2="805.52"/>
    </g>
    <g id="fi" data-name="LINE">
      <line class="mk" x1="779.89" y1="727" x2="779.89" y2="805.52"/>
    </g>
    <g id="fj" data-name="LINE">
      <line class="ma" x1="1264.76" y1="638.28" x2="1264.76" y2="677.4"/>
    </g>
    <g id="fk" data-name="LINE">
      <line class="ma" x1="780.88" y1="637.99" x2="780.88" y2="702.62"/>
    </g>
    <g id="fl" data-name="LINE">
      <line class="mk" x1="780.03" y1="637.99" x2="780.03" y2="702.62"/>
    </g>
    <g id="fm" data-name="LINE">
      <line class="ma" x1="1264.76" y1="554.94" x2="1264.76" y2="594.06"/>
    </g>
    <g id="fn" data-name="LINE">
      <line class="ma" x1="767.73" y1="465.58" x2="767.73" y2="549.91"/>
    </g>
    <g id="fo" data-name="LINE">
      <line class="ma" x1="768.01" y1="465.58" x2="768.01" y2="549.91"/>
    </g>
    <g id="fp" data-name="LINE">
      <line class="ma" x1="767.73" y1="550.19" x2="767.73" y2="632.75"/>
    </g>
    <g id="fq" data-name="LINE">
      <line class="ma" x1="768.01" y1="550.19" x2="768.01" y2="632.75"/>
    </g>
    <g id="fr" data-name="LINE">
      <line class="ml" x1="1263.34" y1="727.29" x2="1263.34" y2="758.47"/>
    </g>
    <g id="fs" data-name="LINE">
      <line class="ml" x1="1266.17" y1="727.29" x2="1266.17" y2="758.47"/>
    </g>
    <g id="ft" data-name="LINE">
      <line class="ml" x1="1263.34" y1="638.28" x2="1263.34" y2="677.4"/>
    </g>
    <g id="fu" data-name="LINE">
      <line class="ml" x1="1266.17" y1="638.28" x2="1266.17" y2="677.4"/>
    </g>
    <g id="fv" data-name="LINE">
      <line class="ml" x1="1263.34" y1="554.94" x2="1263.34" y2="594.06"/>
    </g>
    <g id="fw" data-name="LINE">
      <line class="ml" x1="1266.17" y1="554.94" x2="1266.17" y2="594.06"/>
    </g>
    <g id="fx" data-name="LWPOLYLINE">
      <g>
        <line class="mk" x1="923.89" y1="725.87" x2="923.19" y2="726.59"/>
        <line class="mn" x1="922.51" y1="727.28" x2="886.23" y2="764.63"/>
        <polyline class="mk" points="885.89 764.98 885.2 765.69 885.89 766.41"/>
        <line class="mn" x1="886.57" y1="767.11" x2="922.85" y2="804.46"/>
        <polyline class="mk" points="923.19 804.8 923.89 805.52 924.59 804.8"/>
        <line class="mn" x1="925.26" y1="804.11" x2="961.55" y2="766.76"/>
        <polyline class="mk" points="961.89 766.41 962.58 765.69 961.89 764.98"/>
        <line class="mn" x1="961.21" y1="764.28" x2="924.93" y2="726.93"/>
        <line class="mk" x1="924.59" y1="726.59" x2="923.89" y2="725.87"/>
      </g>
    </g>
    <g id="fy" data-name="LWPOLYLINE">
      <g>
        <line class="ma" x1="1233.86" y1="743.07" x2="1234.49" y2="743.85"/>
        <line class="mi" x1="1235.15" y1="744.65" x2="1258.41" y2="773.12"/>
        <polyline class="ma" points="1258.74 773.52 1259.37 774.3 1258.74 775.07"/>
        <line class="mi" x1="1258.08" y1="775.87" x2="1234.82" y2="804.35"/>
        <line class="ma" x1="1234.49" y1="804.75" x2="1233.86" y2="805.52"/>
      </g>
    </g>
    <g id="fz" data-name="LWPOLYLINE">
      <g>
        <line class="ma" x1="1233.86" y1="640.18" x2="1234.49" y2="640.95"/>
        <line class="mi" x1="1235.15" y1="641.75" x2="1258.41" y2="670.23"/>
        <polyline class="ma" points="1258.74 670.63 1259.37 671.4 1258.74 672.17"/>
        <line class="mi" x1="1258.08" y1="672.98" x2="1234.82" y2="701.45"/>
        <line class="ma" x1="1234.49" y1="701.85" x2="1233.86" y2="702.62"/>
      </g>
    </g>
    <g id="ga" data-name="LWPOLYLINE">
      <g>
        <line class="ma" x1="1233.86" y1="550.69" x2="1234.49" y2="551.47"/>
        <line class="mc" x1="1235.09" y1="552.22" x2="1258.44" y2="581.24"/>
        <polyline class="ma" points="1258.74 581.61 1259.37 582.39 1258.74 583.17"/>
        <line class="mi" x1="1258.08" y1="583.97" x2="1234.82" y2="612.44"/>
        <line class="ma" x1="1234.49" y1="612.84" x2="1233.86" y2="613.62"/>
      </g>
    </g>
    <g id="gb" data-name="LWPOLYLINE">
      <g>
        <line class="ma" x1="1086.74" y1="547.85" x2="1086.07" y2="548.59"/>
        <line class="mm" x1="1085.41" y1="549.32" x2="1057.98" y2="579.63"/>
        <polyline class="ma" points="1057.65 579.99 1056.98 580.73 1057.65 581.48"/>
        <line class="mm" x1="1058.31" y1="582.21" x2="1085.74" y2="612.51"/>
        <line class="ma" x1="1086.07" y1="612.87" x2="1086.74" y2="613.62"/>
      </g>
    </g>
    <g id="gc" data-name="LWPOLYLINE">
      <polyline class="ml" points="816.31 547.85 820.57 547.85 820.57 537.93 872.44 537.93 872.44 547.85 876.69 547.85"/>
    </g>
    <g id="gd" data-name="LWPOLYLINE">
      <polyline class="ml" points="885.2 547.85 889.45 547.85 889.45 537.93 958.33 537.93 958.33 547.85 962.58 547.85"/>
    </g>
    <g id="ge" data-name="LWPOLYLINE">
      <polyline class="ml" points="971.09 547.85 975.34 547.85 975.34 537.93 1044.22 537.93 1044.22 547.85 1048.47 547.85"/>
    </g>
    <g id="gf" data-name="LINE">
      <line class="me" x1="1261.92" y1="725.87" x2="1056.98" y2="725.87"/>
    </g>
    <g id="gg" data-name="LINE">
      <line class="me" x1="1048.47" y1="725.87" x2="971.09" y2="725.87"/>
    </g>
    <g id="gh" data-name="LINE">
      <line class="me" x1="962.58" y1="725.87" x2="885.2" y2="725.87"/>
    </g>
    <g id="gi" data-name="LINE">
      <line class="me" x1="876.69" y1="725.87" x2="782.02" y2="725.87"/>
    </g>
    <g id="gj" data-name="LINE">
      <line class="me" x1="1261.92" y1="636.86" x2="1056.98" y2="636.86"/>
    </g>
    <g id="gk" data-name="LINE">
      <line class="me" x1="1048.47" y1="636.86" x2="971.09" y2="636.86"/>
    </g>
    <g id="gl" data-name="LINE">
      <line class="me" x1="962.58" y1="636.86" x2="885.2" y2="636.86"/>
    </g>
    <g id="gm" data-name="LINE">
      <line class="me" x1="876.69" y1="636.86" x2="782.02" y2="636.86"/>
    </g>
    <g id="gn" data-name="LINE">
      <line class="me" x1="1044.22" y1="547.85" x2="975.34" y2="547.85"/>
    </g>
    <g id="go" data-name="LINE">
      <line class="me" x1="958.33" y1="547.85" x2="889.45" y2="547.85"/>
    </g>
    <g id="gp" data-name="LINE">
      <line class="me" x1="872.44" y1="547.85" x2="820.57" y2="547.85"/>
    </g>
    <g id="gq" data-name="LINE">
      <line class="me" x1="807.81" y1="611.35" x2="779.18" y2="611.35"/>
    </g>
    <g id="gr" data-name="LWPOLYLINE">
      <rect class="md" x="1263.34" y="725.87" width="2.83" height="1.42"/>
    </g>
    <g id="gs" data-name="LWPOLYLINE">
      <rect class="md" x="1263.34" y="758.47" width="2.83" height="1.42"/>
    </g>
    <g id="gt" data-name="LWPOLYLINE">
      <rect class="md" x="1263.34" y="636.86" width="2.83" height="1.42"/>
    </g>
    <g id="gu" data-name="LWPOLYLINE">
      <rect class="md" x="1263.34" y="677.4" width="2.83" height="1.42"/>
    </g>
    <g id="gv" data-name="LWPOLYLINE">
      <rect class="md" x="1263.34" y="553.52" width="2.83" height="1.42"/>
    </g>
    <g id="gw" data-name="LWPOLYLINE">
      <rect class="md" x="1263.34" y="594.06" width="2.83" height="1.42"/>
    </g>
    <g id="gx" data-name="LWPOLYLINE">
      <rect class="md" x="780.03" y="636.86" width="1.42" height="1.13"/>
    </g>
    <g id="gy" data-name="LWPOLYLINE">
      <rect class="md" x="780.03" y="702.62" width="1.42" height="1.13"/>
    </g>
    <g id="gz" data-name="LWPOLYLINE">
      <rect class="md" x="779.89" y="725.87" width="1.42" height="1.13"/>
    </g>
    <g id="ha" data-name="LWPOLYLINE">
      <rect class="md" x="779.89" y="805.52" width="1.42" height="1.13"/>
    </g>
    <g id="hb" data-name="LWPOLYLINE">
      <rect class="md" x="768.13" y="465.01" width="1.42" height=".85"/>
    </g>
    <g id="hc" data-name="LINE">
      <line class="md" x1="768.13" y1="465.58" x2="767.73" y2="465.58"/>
    </g>
    <g id="hd" data-name="LINE">
      <line class="md" x1="768.13" y1="465.29" x2="767.73" y2="465.29"/>
    </g>
    <g id="he" data-name="LWPOLYLINE">
      <rect class="md" x="768.13" y="549.34" width="1.42" height="1.42"/>
    </g>
    <g id="hf" data-name="LINE">
      <line class="md" x1="768.13" y1="550.19" x2="767.73" y2="550.19"/>
    </g>
    <g id="hg" data-name="LINE">
      <line class="md" x1="768.13" y1="549.91" x2="767.73" y2="549.91"/>
    </g>
    <g id="hh" data-name="LWPOLYLINE">
      <rect class="md" x="768.13" y="632.47" width="1.42" height=".85"/>
    </g>
    <g id="hi" data-name="LINE">
      <line class="md" x1="768.13" y1="633.03" x2="767.73" y2="633.03"/>
    </g>
    <g id="hj" data-name="LINE">
      <line class="md" x1="768.13" y1="632.75" x2="767.73" y2="632.75"/>
    </g>
    <g id="hk" data-name="LINE">
      <line class="lx" x1="1271.84" y1="759.88" x2="1271.84" y2="725.87"/>
    </g>
    <g id="hl" data-name="LINE">
      <line class="lx" x1="1261.92" y1="759.88" x2="1261.92" y2="725.87"/>
    </g>
    <g id="hm" data-name="LINE">
      <line class="lx" x1="1056.98" y1="725.87" x2="1056.98" y2="805.52"/>
    </g>
    <g id="hn" data-name="LINE">
      <line class="lx" x1="1048.47" y1="725.87" x2="1048.47" y2="805.52"/>
    </g>
    <g id="ho" data-name="LINE">
      <line class="lx" x1="1271.84" y1="678.81" x2="1271.84" y2="636.86"/>
    </g>
    <g id="hp" data-name="LINE">
      <line class="lx" x1="1261.92" y1="678.81" x2="1261.92" y2="636.86"/>
    </g>
    <g id="hq" data-name="LINE">
      <line class="lx" x1="1056.98" y1="636.86" x2="1056.98" y2="702.62"/>
    </g>
    <g id="hr" data-name="LINE">
      <line class="lx" x1="1048.47" y1="636.86" x2="1048.47" y2="702.62"/>
    </g>
    <g id="hs" data-name="LINE">
      <line class="lx" x1="1271.84" y1="595.47" x2="1271.84" y2="553.52"/>
    </g>
    <g id="ht" data-name="LINE">
      <line class="lx" x1="1261.92" y1="595.47" x2="1261.92" y2="553.52"/>
    </g>
    <g id="hu" data-name="LINE">
      <line class="lx" x1="1056.98" y1="550.69" x2="1056.98" y2="613.62"/>
    </g>
    <g id="hv" data-name="LINE">
      <line class="lx" x1="1048.47" y1="547.85" x2="1048.47" y2="613.62"/>
    </g>
    <g id="hw" data-name="LWPOLYLINE">
      <polyline class="lx" points="811.5 528.01 811.5 516.67 807.24 516.67 807.24 528.01"/>
    </g>
    <g id="hx" data-name="LWPOLYLINE">
      <polyline class="lx" points="767.42 817.39 767.42 806.09 779.89 805.52 779.89 808.92"/>
    </g>
    <g id="hy" data-name="LWPOLYLINE">
      <polyline class="lx" points="790.38 516.39 790.38 515.54 783.29 515.11 783.29 516.39"/>
    </g>
    <g>
      <g id="hz" data-name="LWPOLYLINE">
        <polyline class="lx" points="1056.98 515.9 1065.62 514.55 1074.17 512.76 1082.77 511.17 1091.39 509.71 1099.94 507.88 1108.54 506.3 1117.19 505.02 1125.75 503.27 1134.35 501.65 1142.99 500.27 1151.51 498.25 1160.16 497.13 1168.74 498.35 1177.27 500.12 1185.8 501.9 1194.44 503.07 1203.02 504.53 1211.59 506.07 1220.15 507.66 1228.62 509.74 1237.26 510.94 1245.76 512.85 1254.38 514.14 1262.96 515.69"/>
      </g>
      <g id="ia" data-name="LWPOLYLINE">
        <polyline class="lx" points="1056.93 520.82 1065.57 519.47 1074.12 517.63 1082.74 516.17 1091.31 514.46 1099.95 513.09 1108.6 511.83 1117.19 510.22 1125.8 508.7 1134.35 506.86 1142.9 505.01 1151.53 503.53 1160.16 502.25 1169.4 503.84 1178.71 505.24 1187.91 507.2 1197.11 509.14 1206.4 510.64 1215.65 512.33 1224.87 514.16 1234.17 515.61 1243.43 517.32 1252.63 519.32 1261.92 520.85"/>
      </g>
      <g id="ib" data-name="LWPOLYLINE">
        <polyline class="lx" points="1150.69 503.95 1144.61 508.31 1138.28 512.31 1132.39 516.95 1126.14 521.08 1120.03 525.41 1114 529.86 1107.69 533.97 1103.21 527.31 1098.46 520.88 1093.73 514.43"/>
      </g>
      <g id="ic" data-name="LWPOLYLINE">
        <polyline class="lx" points="1157.87 503.61 1152.19 508.12 1146.15 512.11 1140.21 516.23 1134.37 520.51 1128.53 524.79 1122.33 528.55 1116.44 532.78 1110.69 537.2"/>
      </g>
      <g id="id" data-name="LWPOLYLINE">
        <polyline class="lx" points="1104.96 536.93 1100.9 531.63 1097.34 525.96 1093.55 520.46 1089.49 515.13"/>
      </g>
      <g id="ie" data-name="LWPOLYLINE">
        <polyline class="lx" points="1169.73 503.79 1175.75 508.24 1182.01 512.36 1188.13 516.66 1194.32 520.86 1200.24 525.47 1206.63 529.41 1212.59 533.82 1217.09 527.3 1221.83 520.86 1226.45 514.33"/>
      </g>
      <g id="if" data-name="LWPOLYLINE">
        <polyline class="lx" points="1162.23 503.93 1168.19 508.03 1174.04 512.28 1179.92 516.51 1186.14 520.23 1191.79 524.78 1197.81 528.8 1203.82 532.85 1209.81 536.92"/>
      </g>
      <g id="ig" data-name="LWPOLYLINE">
        <polyline class="lx" points="1215.82 537.24 1219.57 531.69 1223.34 526.15 1227.11 520.6 1231.16 515.25"/>
      </g>
      <g id="ih" data-name="LINE">
        <polyline class="lx" points="1162.33 502.48 1162.21 509.4 1162.09 516.31 1162 523.23 1162.29 530.16 1162.36 537.08"/>
      </g>
      <g id="ii" data-name="LINE">
        <polyline class="lx" points="1157.99 502.48 1157.93 509.4 1157.98 516.31 1157.92 523.23 1158.12 530.16 1157.97 537.08"/>
      </g>
    </g>
    <g id="ij" data-name="LINE">
      <line class="ly" x1="781.31" y1="805.52" x2="1261.92" y2="805.52"/>
    </g>
    <g id="ik" data-name="LWPOLYLINE">
      <polyline class="ly" points="1261.92 808.92 1261.92 759.88 1263.34 759.88"/>
    </g>
    <g id="il" data-name="LWPOLYLINE">
      <polyline class="ly" points="1263.34 725.87 1261.92 725.87 1261.92 711.69"/>
    </g>
    <g id="im" data-name="LINE">
      <line class="ly" x1="781.45" y1="702.62" x2="1261.92" y2="702.62"/>
    </g>
    <g id="in" data-name="LWPOLYLINE">
      <polyline class="ly" points="1261.92 706.03 1261.92 678.81 1263.34 678.81"/>
    </g>
    <g id="io" data-name="LWPOLYLINE">
      <polyline class="ly" points="1263.34 636.86 1261.92 636.86 1261.92 622.69"/>
    </g>
    <g id="ip" data-name="LINE">
      <line class="ly" x1="817.73" y1="613.62" x2="1261.92" y2="613.62"/>
    </g>
    <g id="iq" data-name="LWPOLYLINE">
      <polyline class="ly" points="1261.92 617.02 1261.92 595.47 1263.34 595.47"/>
    </g>
    <g id="ir" data-name="LWPOLYLINE">
      <line class="ly" x1="817.73" y1="547.85" x2="817.73" y2="617.02"/>
    </g>
    <g id="is" data-name="LWPOLYLINE">
      <polyline class="ly" points="1051.31 515.82 1045.64 515.82 1045.64 528.01"/>
    </g>
    <g id="it" data-name="LWPOLYLINE">
      <polyline class="ly" points="1263.34 553.52 1261.92 553.52 1261.92 515.82 1274.68 515.82 1274.68 547.85 1271.84 547.85"/>
    </g>
    <g id="iu" data-name="LWPOLYLINE">
      <path class="ly" d="M1062.71,513.33l-.06-.35c-.03-.15.07-.3.23-.33l.7-.13c.15-.03.3.07.33.23l.28,1.53c.03.15-.07.3-.23.33l-.7.13c-.15.03-.3-.07-.33-.23l-.06-.35"/>
    </g>
    <g id="iv" data-name="LWPOLYLINE">
      <path class="ly" d="M1075.26,511.02l-.06-.35c-.03-.15.07-.3.23-.33l.7-.13c.15-.03.3.07.33.23l.28,1.53c.03.15-.07.3-.23.33l-.7.13c-.15.03-.3-.07-.33-.23l-.06-.35"/>
    </g>
    <g id="iw" data-name="LWPOLYLINE">
      <path class="ly" d="M1087.8,508.71l-.06-.35c-.03-.15.07-.3.23-.33l.7-.13c.15-.03.3.07.33.23l.28,1.53c.03.15-.07.3-.23.33l-.7.13c-.15.03-.3-.07-.33-.23l-.06-.35"/>
    </g>
    <g id="ix" data-name="LWPOLYLINE">
      <path class="ly" d="M1100.35,506.4l-.06-.35c-.03-.15.07-.3.23-.33l.7-.13c.15-.03.3.07.33.23l.28,1.53c.03.15-.07.3-.23.33l-.7.13c-.15.03-.3-.07-.33-.23l-.06-.35"/>
    </g>
    <g id="iy" data-name="LWPOLYLINE">
      <path class="ly" d="M1112.89,504.09l-.06-.35c-.03-.15.07-.3.23-.33l.7-.13c.15-.03.3.07.33.23l.28,1.53c.03.15-.07.3-.23.33l-.7.13c-.15.03-.3-.07-.33-.23l-.06-.35"/>
    </g>
    <g id="iz" data-name="LWPOLYLINE">
      <path class="ly" d="M1125.44,501.78l-.06-.35c-.03-.15.07-.3.23-.33l.7-.13c.15-.03.3.07.33.23l.28,1.53c.03.15-.07.3-.23.33l-.7.13c-.15.03-.3-.07-.33-.23l-.06-.35"/>
    </g>
    <g id="ja" data-name="LWPOLYLINE">
      <path class="ly" d="M1137.98,499.47l-.06-.35c-.03-.15.07-.3.23-.33l.7-.13c.15-.03.3.07.33.23l.28,1.53c.03.15-.07.3-.23.33l-.7.13c-.15.03-.3-.07-.33-.23l-.06-.35"/>
    </g>
    <g id="jb" data-name="LWPOLYLINE">
      <path class="ly" d="M1150.53,497.16l-.06-.35c-.03-.15.07-.3.23-.33l.7-.13c.15-.03.3.07.33.23l.28,1.53c.03.15-.07.3-.23.33l-.7.13c-.15.03-.3-.07-.33-.23l-.06-.35"/>
    </g>
    <g id="jc" data-name="LWPOLYLINE">
      <path class="ly" d="M1063.14,535.59v-.35c0-.16.13-.28.28-.28h.71c.16,0,.28.13.28.28v1.56c0,.16-.13.28-.28.28h-.71c-.16,0-.28-.13-.28-.28v-.35"/>
    </g>
    <g id="jd" data-name="LWPOLYLINE">
      <path class="ly" d="M1075.9,535.59v-.35c0-.16.13-.28.28-.28h.71c.16,0,.28.13.28.28v1.56c0,.16-.13.28-.28.28h-.71c-.16,0-.28-.13-.28-.28v-.35"/>
    </g>
    <g id="je" data-name="LWPOLYLINE">
      <path class="ly" d="M1088.65,535.59v-.35c0-.16.13-.28.28-.28h.71c.16,0,.28.13.28.28v1.56c0,.16-.13.28-.28.28h-.71c-.16,0-.28-.13-.28-.28v-.35"/>
    </g>
    <g id="jf" data-name="LWPOLYLINE">
      <path class="ly" d="M1101.41,535.59v-.35c0-.16.13-.28.28-.28h.71c.16,0,.28.13.28.28v1.56c0,.16-.13.28-.28.28h-.71c-.16,0-.28-.13-.28-.28v-.35"/>
    </g>
    <g id="jg" data-name="LWPOLYLINE">
      <path class="ly" d="M1114.17,535.59v-.35c0-.16.13-.28.28-.28h.71c.16,0,.28.13.28.28v1.56c0,.16-.13.28-.28.28h-.71c-.16,0-.28-.13-.28-.28v-.35"/>
    </g>
    <g id="jh" data-name="LWPOLYLINE">
      <path class="ly" d="M1126.92,535.59v-.35c0-.16.13-.28.28-.28h.71c.16,0,.28.13.28.28v1.56c0,.16-.13.28-.28.28h-.71c-.16,0-.28-.13-.28-.28v-.35"/>
    </g>
    <g id="ji" data-name="LWPOLYLINE">
      <path class="ly" d="M1139.68,535.59v-.35c0-.16.13-.28.28-.28h.71c.16,0,.28.13.28.28v1.56c0,.16-.13.28-.28.28h-.71c-.16,0-.28-.13-.28-.28v-.35"/>
    </g>
    <g id="jj" data-name="LWPOLYLINE">
      <path class="ly" d="M1152.43,535.59v-.35c0-.16.13-.28.28-.28h.71c.16,0,.28.13.28.28v1.56c0,.16-.13.28-.28.28h-.71c-.16,0-.28-.13-.28-.28v-.35"/>
    </g>
    <g id="jk" data-name="LWPOLYLINE">
      <path class="ly" d="M1165.19,535.59v-.35c0-.16.13-.28.28-.28h.71c.16,0,.28.13.28.28v1.56c0,.16-.13.28-.28.28h-.71c-.16,0-.28-.13-.28-.28v-.35"/>
    </g>
    <g id="jl" data-name="LWPOLYLINE">
      <path class="ly" d="M1177.94,535.59v-.35c0-.16.13-.28.28-.28h.71c.16,0,.28.13.28.28v1.56c0,.16-.13.28-.28.28h-.71c-.16,0-.28-.13-.28-.28v-.35"/>
    </g>
    <g id="jm" data-name="LWPOLYLINE">
      <path class="ly" d="M1190.7,535.59v-.35c0-.16.13-.28.28-.28h.71c.16,0,.28.13.28.28v1.56c0,.16-.13.28-.28.28h-.71c-.16,0-.28-.13-.28-.28v-.35"/>
    </g>
    <g id="jn" data-name="LWPOLYLINE">
      <path class="ly" d="M1203.46,535.59v-.35c0-.16.13-.28.28-.28h.71c.16,0,.28.13.28.28v1.56c0,.16-.13.28-.28.28h-.71c-.16,0-.28-.13-.28-.28v-.35"/>
    </g>
    <g id="jo" data-name="LWPOLYLINE">
      <path class="ly" d="M1216.21,535.59v-.35c0-.16.13-.28.28-.28h.71c.16,0,.28.13.28.28v1.56c0,.16-.13.28-.28.28h-.71c-.16,0-.28-.13-.28-.28v-.35"/>
    </g>
    <g id="jp" data-name="LWPOLYLINE">
      <path class="ly" d="M1228.97,535.59v-.35c0-.16.13-.28.28-.28h.71c.16,0,.28.13.28.28v1.56c0,.16-.13.28-.28.28h-.71c-.16,0-.28-.13-.28-.28v-.35"/>
    </g>
    <g id="jq" data-name="LWPOLYLINE">
      <path class="ly" d="M1241.72,535.59v-.35c0-.16.13-.28.28-.28h.71c.16,0,.28.13.28.28v1.56c0,.16-.13.28-.28.28h-.71c-.16,0-.28-.13-.28-.28v-.35"/>
    </g>
    <g id="jr" data-name="LWPOLYLINE">
      <path class="ly" d="M1254.48,535.59v-.35c0-.16.13-.28.28-.28h.71c.16,0,.28.13.28.28v1.56c0,.16-.13.28-.28.28h-.71c-.16,0-.28-.13-.28-.28v-.35"/>
    </g>
    <g id="js" data-name="LINE">
      <line class="ly" x1="780.6" y1="703.76" x2="780.6" y2="706.03"/>
    </g>
    <g id="jt" data-name="LWPOLYLINE">
      <path class="ly" d="M1257.6,513.33l.06-.35c.03-.15-.07-.3-.23-.33l-.7-.13c-.15-.03-.3.07-.33.23l-.28,1.53c-.03.15.07.3.23.33l.7.13c.15.03.3-.07.33-.23l.06-.35"/>
    </g>
    <g id="ju" data-name="LWPOLYLINE">
      <path class="ly" d="M1245.06,511.02l.06-.35c.03-.15-.07-.3-.23-.33l-.7-.13c-.15-.03-.3.07-.33.23l-.28,1.53c-.03.15.07.3.23.33l.7.13c.15.03.3-.07.33-.23l.06-.35"/>
    </g>
    <g id="jv" data-name="LWPOLYLINE">
      <path class="ly" d="M1232.51,508.71l.06-.35c.03-.15-.07-.3-.23-.33l-.7-.13c-.15-.03-.3.07-.33.23l-.28,1.53c-.03.15.07.3.23.33l.7.13c.15.03.3-.07.33-.23l.06-.35"/>
    </g>
    <g id="jw" data-name="LWPOLYLINE">
      <path class="ly" d="M1219.97,506.4l.06-.35c.03-.15-.07-.3-.23-.33l-.7-.13c-.15-.03-.3.07-.33.23l-.28,1.53c-.03.15.07.3.23.33l.7.13c.15.03.3-.07.33-.23l.06-.35"/>
    </g>
    <g id="jx" data-name="LWPOLYLINE">
      <path class="ly" d="M1207.42,504.09l.06-.35c.03-.15-.07-.3-.23-.33l-.7-.13c-.15-.03-.3.07-.33.23l-.28,1.53c-.03.15.07.3.23.33l.7.13c.15.03.3-.07.33-.23l.06-.35"/>
    </g>
    <g id="jy" data-name="LWPOLYLINE">
      <path class="ly" d="M1194.88,501.78l.06-.35c.03-.15-.07-.3-.23-.33l-.7-.13c-.15-.03-.3.07-.33.23l-.28,1.53c-.03.15.07.3.23.33l.7.13c.15.03.3-.07.33-.23l.06-.35"/>
    </g>
    <g id="jz" data-name="LWPOLYLINE">
      <path class="ly" d="M1182.33,499.47l.06-.35c.03-.15-.07-.3-.23-.33l-.7-.13c-.15-.03-.3.07-.33.23l-.28,1.53c-.03.15.07.3.23.33l.7.13c.15.03.3-.07.33-.23l.06-.35"/>
    </g>
    <g id="ka" data-name="LWPOLYLINE">
      <path class="ly" d="M1169.79,497.16l.06-.35c.03-.15-.07-.3-.23-.33l-.7-.13c-.15-.03-.3.07-.33.23l-.28,1.53c-.03.15.07.3.23.33l.7.13c.15.03.3-.07.33-.23l.06-.35"/>
    </g>
    <g id="kb" data-name="LWPOLYLINE">
      <polyline class="mb" points="1271.84 808.92 1271.84 759.88 1263.34 759.88 1263.34 808.92"/>
    </g>
    <g id="kc" data-name="LWPOLYLINE">
      <polyline class="mb" points="1269.01 808.92 1269.01 762.72 1266.17 762.72 1266.17 808.92"/>
    </g>
    <g id="kd" data-name="LWPOLYLINE">
      <polyline class="mb" points="1271.84 706.03 1271.84 678.81 1263.34 678.81 1263.34 706.03"/>
    </g>
    <g id="ke" data-name="LWPOLYLINE">
      <polyline class="mb" points="1269.01 706.03 1269.01 681.65 1266.17 681.65 1266.17 706.03"/>
    </g>
    <g id="kf" data-name="LWPOLYLINE">
      <polyline class="mb" points="1271.84 617.02 1271.84 595.47 1263.34 595.47 1263.34 617.02"/>
    </g>
    <g id="kg" data-name="LWPOLYLINE">
      <polyline class="mb" points="1269.01 617.02 1269.01 598.31 1266.17 598.31 1266.17 617.02"/>
    </g>
    <g id="kh" data-name="LWPOLYLINE">
      <line class="mb" x1="813.48" y1="617.03" x2="813.48" y2="547.85"/>
    </g>
    <g id="ki" data-name="LWPOLYLINE">
      <line class="mb" x1="810.65" y1="617.03" x2="810.65" y2="547.85"/>
    </g>
    <g id="kj" data-name="LWPOLYLINE">
      <line class="mb" x1="807.81" y1="617.03" x2="807.81" y2="547.85"/>
    </g>
    <g id="kk" data-name="LWPOLYLINE">
      <line class="mb" x1="816.31" y1="547.85" x2="816.31" y2="617.03"/>
    </g>
    <g id="kl" data-name="LWPOLYLINE">
      <polyline class="mb" points="1263.34 547.85 1263.34 553.52 1271.84 553.52 1271.84 547.85"/>
    </g>
    <g id="km" data-name="LWPOLYLINE">
      <polyline class="mb" points="1266.17 547.85 1266.17 550.69 1269.01 550.69 1269.01 547.85"/>
    </g>
    <g id="kn" data-name="LINE">
      <line class="mb" x1="772.38" y1="547.21" x2="784" y2="547.21"/>
    </g>
    <g id="ko" data-name="LINE">
      <line class="mb" x1="772.38" y1="552.88" x2="784" y2="552.88"/>
    </g>
    <g id="kp" data-name="LINE">
      <line class="mb" x1="772.38" y1="465.01" x2="799.02" y2="465.01"/>
    </g>
    <g id="kq" data-name="LINE">
      <line class="mb" x1="772.38" y1="470.68" x2="799.02" y2="470.68"/>
    </g>
    <g id="kr" data-name="LINE">
      <line class="mb" x1="772.38" y1="470.68" x2="772.38" y2="547.21"/>
    </g>
    <g id="ks" data-name="LINE">
      <line class="mb" x1="772.38" y1="552.88" x2="772.38" y2="627.65"/>
    </g>
    <g id="kt" data-name="LINE">
      <line class="mb" x1="769.54" y1="552.88" x2="769.54" y2="627.65"/>
    </g>
    <g id="ku" data-name="LINE">
      <line class="mb" x1="769.54" y1="470.68" x2="769.54" y2="547.21"/>
    </g>
    <g id="kv" data-name="LINE">
      <line class="mb" x1="772.38" y1="627.65" x2="773.51" y2="627.65"/>
    </g>
    <g id="kw" data-name="LINE">
      <line class="mb" x1="772.38" y1="633.32" x2="773.51" y2="633.32"/>
    </g>
    <g id="kx" data-name="LWPOLYLINE">
      <rect class="mb" x="769.54" y="627.65" width="2.83" height="5.67"/>
    </g>
    <g id="ky" data-name="LWPOLYLINE">
      <rect class="mb" x="769.8" y="627.9" width="2.32" height="5.16"/>
    </g>
    <g id="kz" data-name="LWPOLYLINE">
      <rect class="mb" x="769.54" y="547.21" width="2.83" height="5.67"/>
    </g>
    <g id="la" data-name="LWPOLYLINE">
      <rect class="mb" x="769.8" y="547.47" width="2.32" height="5.16"/>
    </g>
    <g id="lb" data-name="LWPOLYLINE">
      <rect class="mb" x="769.54" y="465.01" width="2.83" height="5.67"/>
    </g>
    <g id="lc" data-name="LWPOLYLINE">
      <rect class="mb" x="769.8" y="465.26" width="2.32" height="5.16"/>
    </g>
    <g id="ld" data-name="LWPOLYLINE">
      <rect class="mb" x="799.02" y="465.01" width="2.83" height="5.67"/>
    </g>
    <g id="le" data-name="LWPOLYLINE">
      <rect class="mb" x="799.28" y="465.26" width="2.32" height="5.16"/>
    </g>
    <g id="lf" data-name="LWPOLYLINE">
      <polygon class="mb" points="1042.48 512.08 1160.16 490.42 1277.83 512.08 1277.06 516.26 1160.16 494.74 1043.25 516.26 1042.48 512.08"/>
    </g>
    <g id="lg" data-name="LWPOLYLINE">
      <polyline class="mb" points="1274.68 515.82 1274.68 519.99 1280.35 519.99 1280.35 515.82"/>
    </g>
    <g id="lh" data-name="LINE">
      <line class="mj" x1="-.24" y1="817.43" x2="773.51" y2="817.43"/>
    </g>
    <g id="li" data-name="LINE">
      <line class="mj" x1="1275.24" y1="817.43" x2="2000" y2="817.43"/>
    </g>
    <line class="md" x1="807.24" y1="516.67" x2="789.67" y2="516.67"/>
    <line class="ma" x1="811.5" y1="516.67" x2="1045.64" y2="516.67"/>
  </g>
  <g id="lp" data-name="SCALE">
    <g>
      <g id="lq" data-name="MTEXT">
        <path class="mo" d="M281.36,1108.4c-.64-.5-1.13-1.2-1.49-2.1-.36-.9-.54-1.92-.54-3.06s.18-2.15.54-3.04c.36-.9.85-1.6,1.49-2.1.63-.5,1.36-.75,2.17-.75s1.53.25,2.17.75c.63.5,1.13,1.2,1.49,2.1.36.9.54,1.91.54,3.04s-.18,2.16-.54,3.05c-.36.89-.85,1.59-1.49,2.1-.64.51-1.36.76-2.17.76s-1.54-.25-2.17-.75ZM285.02,1107.36c.44-.41.78-.96,1.02-1.67s.36-1.52.36-2.44-.12-1.74-.36-2.45c-.24-.72-.58-1.27-1.02-1.67-.44-.4-.93-.6-1.49-.6s-1.05.2-1.48.6c-.43.4-.77.96-1.02,1.67-.25.71-.37,1.53-.37,2.43s.12,1.75.37,2.46c.25.71.58,1.27,1.02,1.67.43.41.93.61,1.48.61s1.05-.2,1.49-.61Z"/>
      </g>
      <g id="lr" data-name="MTEXT">
        <path class="mo" d="M336.68,1107.21c.19-.17.42-.38.71-.64.93-.85,1.68-1.57,2.24-2.15.57-.58,1.05-1.17,1.44-1.78.39-.6.59-1.16.59-1.67,0-.48-.09-.9-.28-1.27-.19-.37-.45-.66-.78-.86s-.71-.31-1.15-.31c-.47,0-.93.16-1.37.48s-.78.73-1,1.23l-1.2-.51c.3-.71.79-1.28,1.46-1.73.67-.45,1.38-.67,2.11-.67.69,0,1.31.16,1.85.46s.96.74,1.26,1.29.45,1.18.45,1.9-.22,1.41-.67,2.14c-.45.73-.98,1.41-1.6,2.04-.62.63-1.42,1.39-2.42,2.27-.49.45-.96.88-1.39,1.3l-.94-.85c.28-.27.51-.49.7-.66ZM335.99,1107.87h7.22v1.19h-7.05l-.18-1.19Z"/>
      </g>
      <g id="ls" data-name="MTEXT">
        <path class="mo" d="M423.16,1101.84c.55-.25,1.08-.38,1.59-.38.77,0,1.45.16,2.06.49.6.33,1.07.78,1.41,1.35.34.58.5,1.24.5,1.99s-.17,1.43-.5,2.02c-.33.59-.8,1.05-1.4,1.39-.6.34-1.29.5-2.07.5-.6,0-1.16-.12-1.69-.38-.53-.25-.98-.6-1.35-1.05-.37-.45-.62-.96-.74-1.52l1.3-.3c.13.59.42,1.07.89,1.43s1,.55,1.59.55c.5,0,.95-.11,1.35-.34.4-.22.72-.54.94-.94.23-.41.34-.86.34-1.36s-.11-.95-.34-1.34-.54-.69-.94-.91-.85-.33-1.35-.33c-.33,0-.68.09-1.04.26-.36.18-.66.4-.9.68l-.99-.86c.34-.38.79-.7,1.34-.95ZM421.48,1103.47l.37-6.04h5.93v1.18h-4.64l-.32,5.04-1.33-.19Z"/>
      </g>
      <g id="lt" data-name="MTEXT">
        <path class="mo" d="M312,1109.04h-1.35v-10.09l-1.86,1.2-.67-1.07,2.55-1.62h1.33v11.58Z"/>
      </g>
      <g id="lu" data-name="MTEXT">
        <g>
          <path class="mo" d="M561.37,1109.04h-1.35v-10.09l-1.86,1.2-.67-1.07,2.55-1.62h1.33v11.58Z"/>
          <path class="mo" d="M565.83,1108.4c-.64-.5-1.13-1.2-1.49-2.1s-.54-1.92-.54-3.06.18-2.15.54-3.04.85-1.6,1.49-2.1c.63-.5,1.36-.75,2.17-.75s1.53.25,2.17.75,1.13,1.2,1.49,2.1.54,1.91.54,3.04-.18,2.16-.54,3.05-.85,1.59-1.49,2.1c-.64.51-1.36.76-2.17.76s-1.54-.25-2.17-.75ZM569.49,1107.36c.44-.41.78-.96,1.02-1.67s.36-1.52.36-2.44-.12-1.74-.36-2.45c-.24-.72-.58-1.27-1.02-1.67-.44-.4-.93-.6-1.49-.6s-1.05.2-1.48.6c-.43.4-.77.96-1.02,1.67-.25.71-.37,1.53-.37,2.43s.12,1.75.37,2.46.58,1.27,1.02,1.67c.43.41.93.61,1.48.61s1.05-.2,1.49-.61Z"/>
          <path class="mo" d="M583.38,1103.3c-.29-.34-.67-.5-1.13-.5-.35,0-.66.07-.94.22-.27.14-.49.34-.65.6s-.24.55-.24.88v4.58h-1.33v-4.45c0-.54-.14-.98-.43-1.32-.29-.34-.66-.5-1.12-.5-.34,0-.65.09-.94.26-.28.18-.5.42-.66.72-.15.3-.23.63-.23.99v4.31h-1.33v-7.46h1.33v1.31l-.14-.05c.22-.37.52-.68.9-.91.37-.23.75-.35,1.14-.35.46,0,.9.13,1.32.38.42.26.74.59.95.99.25-.41.59-.74,1.04-.99.45-.26.9-.38,1.36-.38.56,0,1.05.13,1.49.38s.78.59,1.02,1.02.37.93.37,1.5v4.56h-1.35v-4.45c0-.54-.15-.98-.44-1.32Z"/>
        </g>
      </g>
      <g id="lv" data-name="LWPOLYLINE">
        <polyline class="ly" points="566.32 1076.38 566.32 1093.39 424.59 1093.39 424.59 1076.38 339.55 1076.38 339.55 1093.39 311.2 1093.39 311.2 1076.38 282.85 1076.38 282.85 1093.39"/>
      </g>
    </g>
  </g>
  <g id="lw" data-name="">
    <g>
      <text class="mg" transform="translate(1768.65 1091.55)"><tspan x="0" y="0"> </tspan><tspan x="0" y="18"></tspan></text>
      <text class="mg" transform="translate(1751.75 1091.55)"><tspan x="0" y="0">1</tspan><tspan x="-1.58" y="18">2</tspan></text>
    </g>
    <path class="mf" d="M963.14,580.87c.17-.16.37-.35.58-.56.72-.68,1.3-1.25,1.73-1.7.44-.46.81-.93,1.12-1.43.31-.5.47-.96.47-1.38s-.08-.77-.24-1.09c-.16-.32-.38-.57-.67-.75-.28-.18-.61-.27-.97-.27-.4,0-.78.14-1.15.41-.36.28-.64.63-.82,1.06l-.54-.23c.22-.52.57-.94,1.03-1.27.46-.33.96-.49,1.48-.49.47,0,.89.11,1.26.34s.66.54.87.94c.21.4.32.85.32,1.36s-.16,1.01-.49,1.55-.72,1.05-1.18,1.54c-.46.48-1.06,1.07-1.79,1.76-.5.47-.89.84-1.16,1.12l-.41-.34c.2-.21.39-.39.56-.56ZM962.58,581.43h5.16v.5h-5.09l-.07-.5Z"/>
    <path class="mf" d="M1142.15,773.78h-.58v-8.02l-1.08.74-.31-.42,1.39-.97h.58v8.66Z"/>
    <path class="mf" d="M1142.15,678.97h-.58v-8.02l-1.08.74-.31-.42,1.39-.97h.58v8.66Z"/>
  </g>
</svg>