<?xml version="1.0" encoding="UTF-8"?>
<svg xmlns="http://www.w3.org/2000/svg" viewBox="0 0 2000 1250">
  <defs>
    <style>
      .sh {
        stroke-width: .45px;
      }

      .sh, .si, .sj, .sk, .sl, .sm, .sn, .so, .sp, .sq, .sr, .ss, .st, .su, .sv {
        fill: none;
        stroke-miterlimit: 10;
      }

      .sh, .si, .sj, .sk, .sl, .sm, .sn, .so, .sp, .sq, .sr, .ss, .st, .su, .sv, .sw {
        stroke: #000;
      }

      .si {
        stroke-dasharray: 2.05 1.02;
      }

      .si, .sn, .so, .sr, .su, .sv {
        stroke-width: .3px;
      }

      .sj, .sw {
        stroke-width: .5px;
      }

      .sl {
        stroke-width: .2px;
      }

      .sx {
        fill: #d6d6d6;
        fill-rule: evenodd;
      }

      .sm {
        stroke-width: .75px;
      }

      .sn {
        stroke-dasharray: 1.97 .98;
      }

      .so {
        stroke-dasharray: 1.95 .97;
      }

      .sp {
        stroke-width: .4px;
      }

      .sq {
        stroke-width: .35px;
      }

      .sr {
        stroke-dasharray: 2.07 1.04;
      }

      .ss {
        stroke-width: 2px;
      }

      .st {
        stroke-width: .25px;
      }

      .sv {
        stroke-dasharray: 2.03 1.01;
      }

      .sw {
        fill: #040000;
      }
    </style>
  </defs>
  <g id="as" data-name="SEC A">
    <g id="at" data-name="HATCH">
      <path class="st" d="M728.16,579.84l2.22-2.22M728.16,582.38l4.77-4.77M728.16,584.93l2.83-2.83M732.63,580.45l2.83-2.83M728.16,587.47l2.83-2.83M733.83,581.8l2.83-2.83M728.16,590.02l2.83-2.83M733.83,584.35l2.83-2.83M728.16,592.56l2.83-2.83M733.83,586.9l2.83-2.83M728.16,595.11l2.83-2.83M733.83,589.44l2.83-2.83M728.16,597.66l2.83-2.83M733.83,591.99l2.83-2.83M728.16,600.2l2.83-2.83M733.83,594.53l2.83-2.83M728.16,602.75l2.83-2.83M733.83,597.08l2.83-2.83M728.16,605.29l2.83-2.83M733.83,599.62l2.83-2.83M728.16,607.84l2.83-2.83M733.83,602.17l2.83-2.83M728.16,610.38l2.83-2.83M733.83,604.71l2.83-2.83M728.16,612.93l2.83-2.83M733.83,607.26l2.83-2.83M728.16,615.47l2.83-2.83M733.83,609.81l2.83-2.83M729.16,617.02l1.83-1.83M733.83,612.35l2.83-2.83M733.83,614.9l2.83-2.83M734.25,617.02l2.41-2.41M728.16,679.11l.3-.3M728.16,681.66l2.85-2.85M728.16,684.21l5.39-5.39M728.16,686.75l2.83-2.83M733.26,681.65l2.83-2.83M728.16,689.3l2.83-2.83M733.83,683.63l2.83-2.83M728.16,691.84l2.83-2.83M733.83,686.17l2.83-2.83M728.16,694.39l2.83-2.83M733.83,688.72l2.83-2.83M728.16,696.93l2.83-2.83M733.83,691.26l2.83-2.83M728.16,699.48l2.83-2.83M733.83,693.81l2.83-2.83M728.16,702.02l2.83-2.83M733.83,696.36l2.83-2.83M728.16,704.57l2.83-2.83M733.83,698.9l2.83-2.83M729.25,706.03l1.74-1.74M733.83,701.45l2.83-2.83M733.83,703.99l2.83-2.83M734.34,706.03l2.32-2.32M728.16,727.48l1.61-1.61M728.16,730.03l2.83-2.83M728.16,732.57l2.83-2.83M733.83,726.9l1.03-1.03M728.16,735.12l2.83-2.83M733.83,729.45l2.83-2.83M728.16,737.66l2.83-2.83M733.83,731.99l2.83-2.83M728.16,740.21l2.83-2.83M733.83,734.54l2.83-2.83M728.16,742.75l2.83-2.83M733.83,737.08l2.83-2.83M728.16,745.3l2.83-2.83M733.83,739.63l2.83-2.83M728.16,747.85l2.83-2.83M733.83,742.18l2.83-2.83M728.16,750.39l2.83-2.83M733.83,744.72l2.83-2.83M728.16,752.94l2.83-2.83M733.83,747.27l2.83-2.83M728.16,755.48l2.83-2.83M733.83,749.81l2.83-2.83M728.16,758.03l2.83-2.83M733.83,752.36l2.83-2.83M728.16,760.57l2.83-2.83M733.83,754.9l2.83-2.83M728.16,763.12l2.83-2.83M733.83,757.45l2.83-2.83M728.16,765.66l2.83-2.83M733.83,760l2.83-2.83M728.16,768.21l2.83-2.83M733.83,762.54l2.83-2.83M728.16,770.76l2.83-2.83M733.83,765.09l2.83-2.83M728.16,773.3l2.83-2.83M733.83,767.63l2.83-2.83M728.16,775.85l2.83-2.83M733.83,770.18l2.83-2.83M728.16,778.39l2.83-2.83M733.83,772.72l2.83-2.83M728.16,780.94l2.83-2.83M733.83,775.27l2.83-2.83M728.16,783.48l2.83-2.83M733.83,777.81l2.83-2.83M728.16,786.03l2.83-2.83M733.83,780.36l2.83-2.83M728.16,788.57l2.83-2.83M733.83,782.91l2.83-2.83M728.16,791.12l2.83-2.83M733.83,785.45l2.83-2.83M728.16,793.67l2.83-2.83M733.83,788l2.83-2.83M728.16,796.21l2.83-2.83M733.83,790.54l2.83-2.83M728.16,798.76l2.83-2.83M733.83,793.09l2.83-2.83M728.16,801.3l2.83-2.83M733.83,795.63l2.83-2.83M728.16,803.85l2.83-2.83M733.83,798.18l2.83-2.83M728.16,806.39l2.83-2.83M733.83,800.72l2.83-2.83M728.17,808.92l2.82-2.82M733.83,803.27l2.83-2.83M730.72,808.92l.27-.27M733.83,805.82l2.83-2.83M733.83,808.36l2.83-2.83M735.81,808.92l.85-.85"/>
    </g>
    <g id="au" data-name="HATCH">
      <path class="sx" d="M951.62,528.01h-2.93v-12.19h-5.67v32.03h8.6v-19.84M736.66,528.01h-8.5v19.84h8.5v-19.84M798.46,617.02h-73.7v19.84h11.91v-14.17h61.8v-5.67M887.9,622.69h55.13s0,14.17,0,14.17h8.5v-14.17h12.76v-5.67h-77.1v2.14h-7.65s0,4.97,0,4.97h-7.65v4.97h-7.65v4.97h-7.65v4.97h-7.65v4.97h-7.66s0,4.97,0,4.97h-7.65v4.98h-40.82v6.01h37.72l57.39-37.3M951.53,706.03h-64.35v2.14h-7.65s0,4.97,0,4.97h-7.65v4.97h-7.65v4.97h-7.65v4.97h-7.65s0,4.97,0,4.97h-7.66v4.97s-7.65,0-7.65,0v4.98h-18.78v4.97h-22.04v5.08h31.49l63.62-41.35h55.13s0,14.17,0,14.17h8.5v-19.84M798.46,706.03h-73.7v19.84h11.91v-14.17h61.8v-5.67M954.93,805.52h-59.64v3.4h-170.53v22.68h12.76v-14.17h205.51v14.17h11.91v-26.08M982.43,811.47h-13.54v-5.95h-13.96v11.91h27.5v-5.95Z"/>
    </g>
    <g id="av" data-name="LINE">
      <line class="sl" x1="964.28" y1="617.02" x2="1007.37" y2="617.02"/>
    </g>
    <g id="aw" data-name="LINE">
      <line class="sl" x1="1014.46" y1="617.02" x2="1020.65" y2="617.02"/>
    </g>
    <g id="ax" data-name="LINE">
      <line class="sl" x1="1036.02" y1="617.02" x2="1137.76" y2="617.02"/>
    </g>
    <g id="ay" data-name="LINE">
      <line class="sl" x1="1144.85" y1="617.02" x2="1144.91" y2="617.02"/>
    </g>
    <g id="az" data-name="LINE">
      <line class="sl" x1="1155.12" y1="617.02" x2="1198.14" y2="617.02"/>
    </g>
    <g id="ba" data-name="LINE">
      <line class="sl" x1="1205.23" y1="617.02" x2="1223.37" y2="617.02"/>
    </g>
    <g id="bb" data-name="LINE">
      <line class="sl" x1="1232.61" y1="814.03" x2="982.43" y2="814.03"/>
    </g>
    <g id="bc" data-name="LINE">
      <line class="sl" x1="1168.66" y1="637.99" x2="1168.66" y2="701.49"/>
    </g>
    <g id="bd" data-name="LINE">
      <line class="sl" x1="1168.38" y1="637.99" x2="1168.38" y2="701.49"/>
    </g>
    <g id="be" data-name="LINE">
      <line class="sl" x1="992.06" y1="637.99" x2="992.06" y2="701.49"/>
    </g>
    <g id="bf" data-name="LINE">
      <line class="sl" x1="991.78" y1="637.99" x2="991.78" y2="701.49"/>
    </g>
    <g id="bg" data-name="LINE">
      <line class="sl" x1="1076.25" y1="637.99" x2="1076.25" y2="701.49"/>
    </g>
    <g id="bh" data-name="LINE">
      <line class="sl" x1="1075.97" y1="637.99" x2="1075.97" y2="701.49"/>
    </g>
    <g id="bi" data-name="LWPOLYLINE">
      <line class="sl" x1="954.93" y1="701.49" x2="1007.37" y2="701.49"/>
    </g>
    <g id="bj" data-name="LWPOLYLINE">
      <polyline class="sl" points="1014.46 701.49 1027.78 701.49 1027.78 637.99 1014.46 637.99"/>
    </g>
    <g id="bk" data-name="LWPOLYLINE">
      <line class="sl" x1="1007.37" y1="637.99" x2="954.93" y2="637.99"/>
    </g>
    <g id="bl" data-name="LWPOLYLINE">
      <rect class="sl" x="1038.55" y="637.99" width="75.12" height="63.5"/>
    </g>
    <g id="bm" data-name="LWPOLYLINE">
      <polyline class="sl" points="1144.85 701.49 1216.85 701.49 1216.85 637.99 1144.85 637.99"/>
    </g>
    <g id="bn" data-name="LWPOLYLINE">
      <polyline class="sl" points="1137.76 637.99 1124.44 637.99 1124.44 701.49 1137.76 701.49"/>
    </g>
    <g id="bo" data-name="LINE">
      <line class="sl" x1="1168.66" y1="727" x2="1168.66" y2="804.39"/>
    </g>
    <g id="bp" data-name="LINE">
      <line class="sl" x1="1168.38" y1="727" x2="1168.38" y2="804.39"/>
    </g>
    <g id="bq" data-name="LINE">
      <line class="sl" x1="992.06" y1="727" x2="992.06" y2="804.39"/>
    </g>
    <g id="br" data-name="LINE">
      <line class="sl" x1="991.78" y1="727" x2="991.78" y2="804.39"/>
    </g>
    <g id="bs" data-name="LWPOLYLINE">
      <polyline class="sl" points="1137.76 727 1124.44 727 1124.44 804.39 1216.85 804.39 1216.85 727 1144.85 727"/>
    </g>
    <g id="bt" data-name="LWPOLYLINE">
      <polyline class="sl" points="954.93 804.39 1027.78 804.39 1027.78 727 1014.46 727"/>
    </g>
    <g id="bu" data-name="LWPOLYLINE">
      <line class="sl" x1="1007.37" y1="727" x2="954.93" y2="727"/>
    </g>
    <g id="bv" data-name="LWPOLYLINE">
      <rect class="sl" x="1072.71" y="754.33" width=".85" height="51.02"/>
    </g>
    <g id="bw" data-name="LWPOLYLINE">
      <rect class="sl" x="1078.66" y="754.33" width=".85" height="51.02"/>
    </g>
    <g id="bx" data-name="LWPOLYLINE">
      <line class="su" x1="1075.94" y1="725.87" x2="1075.94" y2="720.2"/>
    </g>
    <g id="by" data-name="LWPOLYLINE">
      <line class="su" x1="1076.28" y1="725.87" x2="1076.28" y2="720.2"/>
    </g>
    <g id="bz" data-name="LWPOLYLINE">
      <line class="su" x1="1033" y1="725.87" x2="1033" y2="720.2"/>
    </g>
    <g id="ca" data-name="LWPOLYLINE">
      <line class="su" x1="1033.34" y1="725.87" x2="1033.34" y2="720.2"/>
    </g>
    <g id="cb" data-name="LWPOLYLINE">
      <line class="su" x1="1054.47" y1="725.87" x2="1054.47" y2="720.2"/>
    </g>
    <g id="cc" data-name="LWPOLYLINE">
      <line class="su" x1="1054.81" y1="725.87" x2="1054.81" y2="720.2"/>
    </g>
    <g id="cd" data-name="LWPOLYLINE">
      <line class="su" x1="1119.23" y1="725.87" x2="1119.23" y2="720.2"/>
    </g>
    <g id="ce" data-name="LWPOLYLINE">
      <line class="su" x1="1118.89" y1="725.87" x2="1118.89" y2="720.2"/>
    </g>
    <g id="cf" data-name="LWPOLYLINE">
      <line class="su" x1="1097.75" y1="725.87" x2="1097.75" y2="720.2"/>
    </g>
    <g id="cg" data-name="LWPOLYLINE">
      <line class="su" x1="1097.41" y1="725.87" x2="1097.41" y2="720.2"/>
    </g>
    <g id="ch" data-name="LWPOLYLINE">
      <rect class="su" x="1019.42" y="725.87" width="113.39" height=".34"/>
    </g>
    <g id="ci" data-name="LINE">
      <line class="sl" x1="738.08" y1="539.21" x2="792.79" y2="539.21"/>
    </g>
    <g id="cj" data-name="LINE">
      <line class="sl" x1="943.02" y1="545.73" x2="798.46" y2="545.73"/>
    </g>
    <g id="ck" data-name="LINE">
      <line class="sl" x1="792.79" y1="545.73" x2="738.08" y2="545.73"/>
    </g>
    <g id="cl" data-name="LINE">
      <line class="sl" x1="738.08" y1="547.85" x2="792.79" y2="547.85"/>
    </g>
    <g id="cm" data-name="LINE">
      <line class="sl" x1="798.46" y1="547.85" x2="943.02" y2="547.85"/>
    </g>
    <g id="cn" data-name="LWPOLYLINE">
      <line class="sl" x1="942.13" y1="539.21" x2="931.96" y2="545.73"/>
    </g>
    <g id="co" data-name="LWPOLYLINE">
      <polyline class="sl" points="930.9 545.73 921.25 539.54 911.6 545.73"/>
    </g>
    <g id="cp" data-name="LWPOLYLINE">
      <polyline class="sl" points="910.55 545.73 900.9 539.54 891.25 545.73"/>
    </g>
    <g id="cq" data-name="LWPOLYLINE">
      <polyline class="sl" points="890.2 545.73 880.55 539.54 870.9 545.73"/>
    </g>
    <g id="cr" data-name="LWPOLYLINE">
      <polyline class="sl" points="869.85 545.73 860.2 539.54 850.54 545.73"/>
    </g>
    <g id="cs" data-name="LWPOLYLINE">
      <polyline class="sl" points="849.49 545.73 839.84 539.54 830.19 545.73"/>
    </g>
    <g id="ct" data-name="LWPOLYLINE">
      <polyline class="sl" points="829.14 545.73 819.49 539.54 809.84 545.73"/>
    </g>
    <g id="cu" data-name="LWPOLYLINE">
      <line class="sl" x1="808.79" y1="545.73" x2="798.61" y2="539.21"/>
    </g>
    <g id="cv" data-name="LWPOLYLINE">
      <polyline class="sl" points="941.08 539.21 931.43 545.39 921.78 539.21"/>
    </g>
    <g id="cw" data-name="LWPOLYLINE">
      <polyline class="sl" points="920.73 539.21 911.08 545.39 901.43 539.21"/>
    </g>
    <g id="cx" data-name="LWPOLYLINE">
      <polyline class="sl" points="900.38 539.21 890.72 545.39 881.07 539.21"/>
    </g>
    <g id="cy" data-name="LWPOLYLINE">
      <polyline class="sl" points="880.02 539.21 870.37 545.39 860.72 539.21"/>
    </g>
    <g id="cz" data-name="LWPOLYLINE">
      <polyline class="sl" points="859.67 539.21 850.02 545.39 840.37 539.21"/>
    </g>
    <g id="da" data-name="LWPOLYLINE">
      <polyline class="sl" points="839.32 539.21 829.67 545.39 820.02 539.21"/>
    </g>
    <g id="db" data-name="LWPOLYLINE">
      <polyline class="sl" points="818.96 539.21 809.31 545.39 799.66 539.21"/>
    </g>
    <g id="dc" data-name="LWPOLYLINE">
      <line class="sl" x1="738.08" y1="539.56" x2="746.71" y2="545.73"/>
    </g>
    <g id="dd" data-name="LWPOLYLINE">
      <polyline class="sl" points="747.68 545.73 756.31 539.56 764.95 545.73"/>
    </g>
    <g id="de" data-name="LWPOLYLINE">
      <polyline class="sl" points="765.92 545.73 774.55 539.56 783.18 545.73"/>
    </g>
    <g id="df" data-name="LWPOLYLINE">
      <line class="sl" x1="784.16" y1="545.73" x2="792.79" y2="539.56"/>
    </g>
    <g id="dg" data-name="LWPOLYLINE">
      <polyline class="sl" points="738.57 539.21 747.2 545.38 755.83 539.21"/>
    </g>
    <g id="dh" data-name="LWPOLYLINE">
      <polyline class="sl" points="756.8 539.21 765.43 545.38 774.06 539.21"/>
    </g>
    <g id="di" data-name="LWPOLYLINE">
      <polyline class="sl" points="775.04 539.21 783.67 545.38 792.3 539.21"/>
    </g>
    <g id="dj" data-name="LINE">
      <line class="sl" x1="792.79" y1="537.65" x2="738.08" y2="537.65"/>
    </g>
    <g id="dk" data-name="LINE">
      <line class="sl" x1="833.69" y1="729.11" x2="840.69" y2="733.53"/>
    </g>
    <g id="dl" data-name="LWPOLYLINE">
      <polyline class="sl" points="847.6 737.89 901.92 772.2 901.92 797.71"/>
    </g>
    <g id="dm" data-name="LINE">
      <line class="sl" x1="833.04" y1="729.88" x2="840.69" y2="734.71"/>
    </g>
    <g id="dn" data-name="LWPOLYLINE">
      <polyline class="sl" points="846.67 738.49 900.93 772.74 900.93 797.71"/>
    </g>
    <g id="do" data-name="LINE">
      <line class="sl" x1="834.69" y1="746.28" x2="866.49" y2="766.35"/>
    </g>
    <g id="dp" data-name="LINE">
      <line class="sl" x1="867.48" y1="766.98" x2="900.93" y2="788.09"/>
    </g>
    <g id="dq" data-name="LINE">
      <line class="sl" x1="835.61" y1="745.68" x2="866.49" y2="765.18"/>
    </g>
    <g id="dr" data-name="LINE">
      <line class="sl" x1="867.48" y1="765.8" x2="900.93" y2="786.92"/>
    </g>
    <g id="ds" data-name="LINE">
      <line class="sl" x1="866.49" y1="751" x2="866.49" y2="777.81"/>
    </g>
    <g id="dt" data-name="LINE">
      <line class="sl" x1="867.48" y1="751.63" x2="867.48" y2="777.81"/>
    </g>
    <g id="du" data-name="LWPOLYLINE">
      <line class="sl" x1="833.04" y1="629.2" x2="840.62" y2="633.98"/>
    </g>
    <g id="dv" data-name="LWPOLYLINE">
      <line class="sl" x1="841.52" y1="634.56" x2="848.35" y2="638.87"/>
    </g>
    <g id="dw" data-name="LWPOLYLINE">
      <polyline class="sl" points="855.78 643.56 901.92 672.7 901.92 698.22"/>
    </g>
    <g id="dx" data-name="LWPOLYLINE">
      <line class="sl" x1="833.04" y1="630.39" x2="839.73" y2="634.61"/>
    </g>
    <g id="dy" data-name="LWPOLYLINE">
      <line class="sl" x1="840.64" y1="635.18" x2="848.35" y2="640.05"/>
    </g>
    <g id="dz" data-name="LWPOLYLINE">
      <polyline class="sl" points="854.86 644.16 900.93 673.25 900.93 698.22"/>
    </g>
    <g id="ea" data-name="LINE">
      <line class="sl" x1="833.04" y1="645.74" x2="837.32" y2="648.44"/>
    </g>
    <g id="eb" data-name="LINE">
      <line class="sl" x1="842.88" y1="651.95" x2="866.49" y2="666.85"/>
    </g>
    <g id="ec" data-name="LINE">
      <line class="sl" x1="867.48" y1="667.48" x2="885.47" y2="678.84"/>
    </g>
    <g id="ed" data-name="LINE">
      <line class="sl" x1="833.04" y1="644.56" x2="839.18" y2="648.44"/>
    </g>
    <g id="ee" data-name="LINE">
      <line class="sl" x1="843.79" y1="651.35" x2="866.49" y2="665.68"/>
    </g>
    <g id="ef" data-name="LINE">
      <line class="sl" x1="867.48" y1="666.31" x2="886.34" y2="678.22"/>
    </g>
    <g id="eg" data-name="LINE">
      <line class="sl" x1="866.49" y1="651.5" x2="866.49" y2="678.32"/>
    </g>
    <g id="eh" data-name="LINE">
      <line class="sl" x1="867.48" y1="652.13" x2="867.48" y2="678.32"/>
    </g>
    <g id="ei" data-name="LINE">
      <line class="sl" x1="887.89" y1="680.37" x2="900.93" y2="688.6"/>
    </g>
    <g id="ej" data-name="LINE">
      <line class="sl" x1="887.89" y1="679.19" x2="900.93" y2="687.42"/>
    </g>
    <g id="ek" data-name="LINE">
      <line class="su" x1="738.08" y1="725.87" x2="792.79" y2="725.87"/>
    </g>
    <g id="el" data-name="LINE">
      <line class="su" x1="798.46" y1="725.87" x2="832.05" y2="725.87"/>
    </g>
    <g id="em" data-name="LINE">
      <line class="su" x1="833.04" y1="725.87" x2="836.55" y2="725.87"/>
    </g>
    <g id="en" data-name="LINE">
      <line class="su" x1="838.27" y1="725.87" x2="856" y2="725.87"/>
    </g>
    <g id="eo" data-name="LINE">
      <line class="su" x1="866.09" y1="725.87" x2="943.02" y2="725.87"/>
    </g>
    <g id="ep" data-name="LINE">
      <line class="su" x1="738.08" y1="636.86" x2="792.79" y2="636.86"/>
    </g>
    <g id="eq" data-name="LINE">
      <line class="su" x1="798.46" y1="636.86" x2="832.05" y2="636.86"/>
    </g>
    <g id="er" data-name="LINE">
      <line class="su" x1="833.04" y1="636.86" x2="836.55" y2="636.86"/>
    </g>
    <g id="es" data-name="LINE">
      <line class="su" x1="838.27" y1="636.86" x2="843.3" y2="636.86"/>
    </g>
    <g id="et" data-name="LINE">
      <line class="su" x1="845.17" y1="636.86" x2="856" y2="636.86"/>
    </g>
    <g id="eu" data-name="LINE">
      <line class="su" x1="866.09" y1="636.86" x2="943.02" y2="636.86"/>
    </g>
    <g id="ev" data-name="LWPOLYLINE">
      <polyline class="su" points="1232.61 809.77 982.45 809.77 982.45 805.52"/>
    </g>
    <g id="ew" data-name="LINE">
      <line class="su" x1="798.46" y1="706.03" x2="847.32" y2="706.03"/>
    </g>
    <g id="ex" data-name="LINE">
      <line class="su" x1="849.03" y1="706.03" x2="859.47" y2="706.03"/>
    </g>
    <g id="ey" data-name="LINE">
      <line class="su" x1="860.46" y1="706.03" x2="864.58" y2="706.03"/>
    </g>
    <g id="ez" data-name="LINE">
      <line class="su" x1="866.3" y1="706.03" x2="886.9" y2="706.03"/>
    </g>
    <g id="fa" data-name="LINE">
      <line class="su" x1="903.34" y1="725.87" x2="903.34" y2="802.12"/>
    </g>
    <g id="fb" data-name="LINE">
      <line class="su" x1="903.34" y1="636.86" x2="903.34" y2="702.62"/>
    </g>
    <g id="fc" data-name="LWPOLYLINE">
      <rect class="su" x="740.63" y="743.07" width="25.51" height="62.45"/>
    </g>
    <g id="fd" data-name="CIRCLE">
      <circle class="su" cx="764.21" cy="780.09" r=".57"/>
    </g>
    <g id="fe" data-name="LWPOLYLINE">
      <rect class="su" x="740.63" y="640.18" width="25.51" height="62.45"/>
    </g>
    <g id="ff" data-name="CIRCLE">
      <circle class="su" cx="764.21" cy="677.2" r=".57"/>
    </g>
    <g id="fg" data-name="LINE">
      <line class="su" x1="798.46" y1="539.21" x2="943.02" y2="539.21"/>
    </g>
    <g id="fh" data-name="LWPOLYLINE">
      <rect class="su" x="738.12" y="551.74" width="24.09" height="62.45"/>
    </g>
    <g id="fi" data-name="CIRCLE">
      <circle class="su" cx="760.29" cy="588.76" r=".57"/>
    </g>
    <g id="fj" data-name="LWPOLYLINE">
      <polyline class="su" points="767.25 702.62 767.25 668.61 768.95 668.61 768.95 702.62"/>
    </g>
    <g id="fk" data-name="LWPOLYLINE">
      <rect class="su" x="768.54" y="782.84" width="22.96" height="5.39"/>
    </g>
    <g id="fl" data-name="LWPOLYLINE">
      <polyline class="su" points="779.31 782.84 779.31 778.88 780.73 778.88 780.73 782.84"/>
    </g>
    <g id="fm" data-name="LINE">
      <line class="su" x1="903.34" y1="613.62" x2="903.34" y2="547.85"/>
    </g>
    <g id="fn" data-name="LINE">
      <line class="su" x1="839.37" y1="622.69" x2="798.46" y2="622.69"/>
      <line class="su" x1="856.57" y1="622.69" x2="840.93" y2="622.69"/>
      <line class="su" x1="859.47" y1="622.69" x2="858.29" y2="622.69"/>
      <line class="su" x1="878.96" y1="622.69" x2="860.46" y2="622.69"/>
    </g>
    <g id="fo" data-name="LINE">
      <line class="su" x1="913.26" y1="613.62" x2="913.26" y2="547.85"/>
    </g>
    <g id="fp" data-name="LWPOLYLINE">
      <rect class="su" x="910.43" y="584.28" width=".57" height="11.34"/>
    </g>
    <g id="fq" data-name="LWPOLYLINE">
      <rect class="su" x="915.53" y="584.28" width=".57" height="11.34"/>
    </g>
    <g id="fr" data-name="LWPOLYLINE">
      <polyline class="su" points="775.47 603.47 775.47 601.63 786.1 601.63 786.1 603.47"/>
    </g>
    <g id="fs" data-name="LINE">
      <line class="su" x1="780.73" y1="779.73" x2="779.31" y2="779.73"/>
    </g>
    <g id="ft" data-name="LWPOLYLINE">
      <polygon class="su" points="777.06 693.74 777.06 680.55 785.56 680.55 785.56 693.74 781.91 697.3 780.7 697.3 777.06 693.74"/>
    </g>
    <g id="fu" data-name="LWPOLYLINE">
      <polygon class="su" points="786.1 603.47 775.47 603.47 775.47 611.35 777.74 612.77 783.83 612.77 786.1 611.35 786.1 603.47"/>
    </g>
    <g id="fv" data-name="LWPOLYLINE">
      <polyline class="su" points="887.89 702.62 887.89 677.11 832.05 716.91 832.05 742.42"/>
    </g>
    <g id="fw" data-name="LWPOLYLINE">
      <polyline class="su" points="886.9 702.62 886.9 679.04 833.04 717.42 833.04 742.42"/>
    </g>
    <g id="fx" data-name="LINE">
      <line class="su" x1="859.47" y1="698.58" x2="859.47" y2="722.52"/>
    </g>
    <g id="fy" data-name="LINE">
      <line class="su" x1="860.46" y1="697.88" x2="860.46" y2="722.52"/>
    </g>
    <g id="fz" data-name="LINE">
      <line class="su" x1="886.9" y1="691.44" x2="860.46" y2="710.15"/>
    </g>
    <g id="ga" data-name="LINE">
      <line class="su" x1="859.47" y1="710.86" x2="833.04" y2="729.57"/>
    </g>
    <g id="gb" data-name="LINE">
      <line class="su" x1="886.9" y1="690.22" x2="860.46" y2="708.94"/>
    </g>
    <g id="gc" data-name="LINE">
      <line class="su" x1="859.47" y1="709.64" x2="833.04" y2="728.36"/>
    </g>
    <g id="gd" data-name="LWPOLYLINE">
      <polyline class="su" points="887.89 613.62 887.89 588.1 832.05 627.9 832.05 653.41"/>
    </g>
    <g id="ge" data-name="LWPOLYLINE">
      <polyline class="su" points="886.9 613.62 886.9 590.03 833.04 628.41 833.04 648.44"/>
    </g>
    <g id="gf" data-name="LINE">
      <line class="su" x1="859.47" y1="609.58" x2="859.47" y2="633.52"/>
    </g>
    <g id="gg" data-name="LINE">
      <line class="su" x1="860.46" y1="608.87" x2="860.46" y2="633.52"/>
    </g>
    <g id="gh" data-name="LINE">
      <line class="su" x1="886.9" y1="602.43" x2="860.46" y2="621.15"/>
    </g>
    <g id="gi" data-name="LINE">
      <line class="su" x1="859.47" y1="621.85" x2="833.04" y2="640.56"/>
    </g>
    <g id="gj" data-name="LINE">
      <line class="su" x1="886.9" y1="601.22" x2="860.46" y2="619.93"/>
    </g>
    <g id="gk" data-name="LINE">
      <line class="su" x1="859.47" y1="620.63" x2="833.04" y2="639.35"/>
    </g>
    <g id="gl" data-name="LINE">
      <line class="su" x1="792.79" y1="742.59" x2="738.08" y2="742.59"/>
    </g>
    <g id="gm" data-name="LINE">
      <line class="su" x1="792.79" y1="742.03" x2="738.08" y2="742.03"/>
    </g>
    <g id="gn" data-name="LWPOLYLINE">
      <polyline class="su" points="738.08 637.57 740.06 637.57 740.06 639.69 792.79 639.69"/>
    </g>
    <g id="go" data-name="LWPOLYLINE">
      <polyline class="su" points="738.08 637 740.63 637 740.63 639.13 792.79 639.13"/>
    </g>
    <g id="gp" data-name="LWPOLYLINE">
      <polyline class="su" points="886.9 707.6 878.96 707.6 878.96 712.57 871.31 712.57 871.31 717.55 863.65 717.55 863.65 722.52 856 722.52 856 727.5 848.35 727.5 848.35 732.47 840.69 732.47 840.69 737.44 833.04 737.45 833.04 742.42 814.26 742.42 814.26 747.4 798.46 747.4"/>
    </g>
    <g id="gq" data-name="LWPOLYLINE">
      <polyline class="su" points="886.9 618.59 878.96 618.59 878.96 623.57 871.31 623.57 871.31 628.54 863.65 628.54 863.65 633.52 856 633.52 856 638.49 848.35 638.49 848.35 643.46 840.69 643.46 840.69 648.44 833.04 648.44 833.04 653.41 798.46 653.41"/>
    </g>
    <g id="gr" data-name="LWPOLYLINE">
      <line class="su" x1="943.02" y1="537.65" x2="798.46" y2="537.65"/>
    </g>
    <g id="gs" data-name="LWPOLYLINE">
      <polyline class="su" points="792.79 551.25 740.06 551.25 740.06 548.56 738.08 548.56"/>
    </g>
    <g id="gt" data-name="LWPOLYLINE">
      <polyline class="su" points="792.79 550.69 740.63 550.69 740.63 547.99 738.08 547.99"/>
    </g>
    <g id="gu" data-name="LWPOLYLINE">
      <line class="su" x1="943.02" y1="537.08" x2="798.46" y2="537.08"/>
    </g>
    <g id="gv" data-name="LWPOLYLINE">
      <polyline class="sp" points="1078.66 804.1 1077.53 804.1 1077.53 727.29 1113.39 727.29 1113.39 804.1 1079.51 804.1"/>
    </g>
    <g id="gw" data-name="LWPOLYLINE">
      <polyline class="sp" points="1073.56 804.1 1074.69 804.1 1074.69 727.29 1038.83 727.29 1038.83 804.1 1072.71 804.1"/>
    </g>
    <g id="gx" data-name="LINE">
      <line class="sp" x1="1076.11" y1="726.21" x2="1076.11" y2="805.52"/>
    </g>
    <g id="gy" data-name="LWPOLYLINE">
      <polyline class="sp" points="1100.2 564.21 1100.2 552.1 1052.02 552.1 1052.02 591.22 1059.51 591.22"/>
    </g>
    <g id="gz" data-name="LWPOLYLINE">
      <polyline class="sp" points="1074.88 591.22 1100.2 591.22 1100.2 574.41"/>
    </g>
    <g id="ha" data-name="LWPOLYLINE">
      <polyline class="sp" points="1101.62 563.27 1101.62 550.69 1050.6 550.69 1050.6 592.64 1057.37 592.64"/>
    </g>
    <g id="hb" data-name="LWPOLYLINE">
      <polyline class="sp" points="1072.75 592.64 1101.62 592.64 1101.62 573.47"/>
    </g>
    <g id="hc" data-name="LWPOLYLINE">
      <polyline class="sp" points="1007.37 552.1 967.83 552.1 967.83 591.22 1007.37 591.22"/>
    </g>
    <g id="hd" data-name="LWPOLYLINE">
      <polyline class="sp" points="1014.46 591.22 1016.02 591.22 1016.02 552.1 1014.46 552.1"/>
    </g>
    <g id="he" data-name="LWPOLYLINE">
      <polyline class="sp" points="1007.37 550.69 966.41 550.69 966.41 592.64 1007.37 592.64"/>
    </g>
    <g id="hf" data-name="LWPOLYLINE">
      <polyline class="sp" points="1014.46 592.64 1017.43 592.64 1017.43 550.69 1014.46 550.69"/>
    </g>
    <g id="hg" data-name="LINE">
      <line class="sp" x1="1216" y1="611.35" x2="1216" y2="552.88"/>
    </g>
    <g id="hh" data-name="LINE">
      <line class="sp" x1="1216" y1="547.21" x2="1216" y2="544.38"/>
    </g>
    <g id="hi" data-name="LINE">
      <line class="sp" x1="1216" y1="535.88" x2="1216" y2="533.68"/>
    </g>
    <g id="hj" data-name="LINE">
      <line class="sp" x1="1213.17" y1="611.35" x2="1213.17" y2="552.88"/>
    </g>
    <g id="hk" data-name="LINE">
      <line class="sp" x1="1213.17" y1="547.21" x2="1213.17" y2="544.38"/>
    </g>
    <g id="hl" data-name="LINE">
      <line class="sp" x1="1213.17" y1="535.88" x2="1213.17" y2="533.68"/>
    </g>
    <g id="hm" data-name="LWPOLYLINE">
      <rect class="sp" x="945.36" y="728.49" width=".71" height="71.57"/>
    </g>
    <g id="hn" data-name="LWPOLYLINE">
      <polyline class="sp" points="968.92 805.52 1232.61 805.52 1232.61 817.43"/>
    </g>
    <g id="ho" data-name="LWPOLYLINE">
      <polyline class="sp" points="901.92 802.12 901.92 797.71 894.27 797.71 894.27 792.74 886.61 792.74 886.61 787.76 878.96 787.76 878.96 782.79 871.31 782.79 871.31 777.81 863.65 777.81 863.65 772.84 856 772.84 856 767.86 848.35 767.86 848.35 762.89 840.69 762.89 840.69 757.91 833.04 757.91 833.04 752.94 824.44 752.94"/>
    </g>
    <g id="hp" data-name="LWPOLYLINE">
      <polyline class="sp" points="798.46 754.51 820.09 754.51 895 802.51"/>
    </g>
    <g id="hq" data-name="LWPOLYLINE">
      <line class="sp" x1="832.05" y1="752.94" x2="832.05" y2="748"/>
    </g>
    <g id="hr" data-name="LWPOLYLINE">
      <line class="sp" x1="833.04" y1="752.94" x2="833.04" y2="747.35"/>
    </g>
    <g id="hs" data-name="LWPOLYLINE">
      <polyline class="sp" points="901.92 702.62 901.92 698.22 894.27 698.22 894.27 693.24 887.89 693.24"/>
    </g>
    <g id="ht" data-name="LWPOLYLINE">
      <polyline class="sp" points="886.9 693.24 886.61 693.24 886.61 691.64"/>
    </g>
    <g id="hu" data-name="LWPOLYLINE">
      <polyline class="sp" points="886.61 690.42 886.61 688.27 878.96 688.27 878.96 684.69"/>
    </g>
    <g id="hv" data-name="LWPOLYLINE">
      <polyline class="sp" points="878.96 683.48 878.96 683.29 871.31 683.29 871.31 678.32 863.65 678.32 863.65 673.34 856 673.34 856 668.37 848.35 668.37 848.35 663.39 840.69 663.39 840.69 658.42 833.04 658.42"/>
    </g>
    <g id="hw" data-name="LINE">
      <line class="sp" x1="827.86" y1="659.99" x2="872.12" y2="688.35"/>
    </g>
    <g id="hx" data-name="LINE">
      <line class="sp" x1="873.02" y1="688.93" x2="881.27" y2="694.21"/>
    </g>
    <g id="hy" data-name="LINE">
      <line class="sp" x1="882.17" y1="694.79" x2="886.9" y2="697.82"/>
    </g>
    <g id="hz" data-name="LINE">
      <line class="sp" x1="887.89" y1="698.45" x2="894.4" y2="702.62"/>
    </g>
    <g id="ia" data-name="LINE">
      <line class="sp" x1="886.38" y1="679.41" x2="886.9" y2="679.74"/>
    </g>
    <g id="ib" data-name="LWPOLYLINE">
      <line class="sp" x1="1144.85" y1="591.22" x2="1162.01" y2="591.22"/>
    </g>
    <g id="ic" data-name="LWPOLYLINE">
      <polyline class="sp" points="1172.21 591.22 1173.34 591.22 1173.34 589.51"/>
    </g>
    <g id="id" data-name="LWPOLYLINE">
      <polyline class="sp" points="1173.34 574.12 1173.34 552.1 1144.85 552.1"/>
    </g>
    <g id="ie" data-name="LWPOLYLINE">
      <polyline class="sp" points="1137.76 552.1 1133.65 552.1 1133.65 591.22 1137.76 591.22"/>
    </g>
    <g id="if" data-name="LWPOLYLINE">
      <line class="sp" x1="1144.85" y1="592.64" x2="1161.07" y2="592.64"/>
    </g>
    <g id="ig" data-name="LWPOLYLINE">
      <polyline class="sp" points="1171.27 592.64 1174.76 592.64 1174.76 587.37"/>
    </g>
    <g id="ih" data-name="LWPOLYLINE">
      <polyline class="sp" points="1174.76 571.98 1174.76 550.69 1144.85 550.69"/>
    </g>
    <g id="ii" data-name="LWPOLYLINE">
      <polyline class="sp" points="1132.24 553.15 1132.24 592.64 1137.76 592.64"/>
    </g>
    <g id="ij" data-name="LINE">
      <line class="sp" x1="1192.76" y1="611.35" x2="1192.76" y2="560.21"/>
    </g>
    <g id="ik" data-name="LINE">
      <line class="sp" x1="1192.76" y1="544.81" x2="1192.76" y2="544.38"/>
    </g>
    <g id="il" data-name="LINE">
      <line class="sp" x1="1192.76" y1="535.88" x2="1192.76" y2="533.68"/>
    </g>
    <g id="im" data-name="LWPOLYLINE">
      <polyline class="sk" points="954.93 805.52 895.28 805.52 895.28 808.92 724.76 808.92 724.76 831.6 737.51 831.6 737.51 817.43 943.02 817.43 943.02 831.6 954.93 831.6 954.93 805.52"/>
    </g>
    <g id="in" data-name="LWPOLYLINE">
      <rect class="sk" x="728.16" y="528.01" width="8.5" height="19.84"/>
    </g>
    <g id="io" data-name="LWPOLYLINE">
      <polyline class="sk" points="954.93 805.52 968.89 805.52 968.89 811.47 982.43 811.47 982.43 817.43"/>
    </g>
    <g id="ip" data-name="LWPOLYLINE">
      <polygon class="sk" points="798.46 706.03 724.76 706.03 724.76 725.87 736.66 725.87 736.66 711.69 798.46 711.69 798.46 706.03"/>
    </g>
    <g id="iq" data-name="LWPOLYLINE">
      <polygon class="sk" points="798.46 617.02 724.76 617.02 724.76 636.86 736.66 636.86 736.66 622.69 798.46 622.69 798.46 617.02"/>
    </g>
    <g id="ir" data-name="LWPOLYLINE">
      <polygon class="sk" points="887.9 711.69 943.02 711.69 943.02 725.87 951.53 725.87 951.53 706.03 887.18 706.03 887.18 708.17 879.53 708.17 879.53 713.14 871.87 713.14 871.87 718.12 864.22 718.12 864.22 723.09 856.57 723.09 856.57 728.06 848.91 728.06 848.91 733.04 841.26 733.04 841.26 738.01 833.61 738.01 833.61 742.99 814.83 742.99 814.83 747.96 792.79 747.96 792.79 753.05 824.28 753.05 887.9 711.69"/>
    </g>
    <g id="is" data-name="LWPOLYLINE">
      <polygon class="sk" points="792.79 659.99 830.51 659.99 887.9 622.69 943.02 622.69 943.02 636.86 951.53 636.86 951.53 622.69 964.28 622.69 964.28 617.02 887.18 617.02 887.18 619.16 879.53 619.16 879.53 624.13 871.87 624.13 871.87 629.11 864.22 629.11 864.22 634.08 856.57 634.08 856.57 639.06 848.91 639.06 848.91 644.03 841.26 644.03 841.26 649 833.61 649.01 833.61 653.98 792.79 653.98 792.79 659.99"/>
    </g>
    <g id="it" data-name="LWPOLYLINE">
      <polygon class="sk" points="948.69 515.82 948.69 528.01 951.62 528.01 951.62 547.85 943.02 547.85 943.02 515.82 948.69 515.82"/>
    </g>
    <g id="iu" data-name="LINE">
      <line class="sl" x1="943.87" y1="800.42" x2="943.87" y2="727.57"/>
    </g>
    <g id="iv" data-name="LINE">
      <line class="sl" x1="943.59" y1="637.99" x2="943.59" y2="701.49"/>
    </g>
    <g id="iw" data-name="LINE">
      <line class="sl" x1="944.44" y1="637.99" x2="944.44" y2="701.49"/>
    </g>
    <g id="ix" data-name="LINE">
      <line class="sl" x1="735.24" y1="638.28" x2="735.24" y2="677.4"/>
    </g>
    <g id="iy" data-name="LINE">
      <line class="sl" x1="735.24" y1="549.27" x2="735.24" y2="576.2"/>
    </g>
    <g id="iz" data-name="LINE">
      <line class="sl" x1="1232.27" y1="465.58" x2="1232.27" y2="549.91"/>
    </g>
    <g id="ja" data-name="LINE">
      <line class="sl" x1="1231.99" y1="465.58" x2="1231.99" y2="549.91"/>
    </g>
    <g id="jb" data-name="LINE">
      <line class="sl" x1="1232.27" y1="550.19" x2="1232.27" y2="632.75"/>
    </g>
    <g id="jc" data-name="LINE">
      <line class="sl" x1="1231.99" y1="550.19" x2="1231.99" y2="632.75"/>
    </g>
    <g id="jd" data-name="LINE">
      <line class="su" x1="944.72" y1="800.42" x2="944.72" y2="727.57"/>
    </g>
    <g id="je" data-name="LINE">
      <line class="su" x1="943.02" y1="727.57" x2="943.02" y2="800.42"/>
    </g>
    <g id="jf" data-name="LINE">
      <line class="su" x1="736.66" y1="638.28" x2="736.66" y2="677.4"/>
    </g>
    <g id="jg" data-name="LINE">
      <line class="su" x1="733.83" y1="638.28" x2="733.83" y2="677.4"/>
    </g>
    <g id="jh" data-name="LINE">
      <line class="su" x1="736.66" y1="549.27" x2="736.66" y2="577.62"/>
    </g>
    <g id="ji" data-name="LINE">
      <line class="su" x1="733.83" y1="549.27" x2="733.83" y2="577.62"/>
    </g>
    <g id="jj" data-name="LWPOLYLINE">
      <g>
        <line class="su" x1="1076.11" y1="726.21" x2="1076.81" y2="726.92"/>
        <line class="si" x1="1077.53" y1="727.65" x2="1113.74" y2="764.61"/>
        <polyline class="su" points="1114.1 764.98 1114.8 765.69 1114.11 766.41"/>
        <line class="so" x1="1113.43" y1="767.11" x2="1077.15" y2="804.46"/>
        <polyline class="su" points="1076.81 804.8 1076.11 805.52 1075.41 804.8"/>
        <line class="so" x1="1074.74" y1="804.11" x2="1038.45" y2="766.76"/>
        <polyline class="su" points="1038.11 766.41 1037.42 765.69 1038.12 764.98"/>
        <line class="si" x1="1038.83" y1="764.25" x2="1075.05" y2="727.29"/>
        <line class="su" x1="1075.41" y1="726.92" x2="1076.11" y2="726.21"/>
      </g>
    </g>
    <g id="jk" data-name="LWPOLYLINE">
      <g>
        <line class="su" x1="766.14" y1="743.07" x2="765.51" y2="743.85"/>
        <line class="sr" x1="764.85" y1="744.65" x2="741.59" y2="773.12"/>
        <polyline class="su" points="741.26 773.52 740.63 774.3 741.26 775.07"/>
        <line class="sr" x1="741.92" y1="775.87" x2="765.18" y2="804.35"/>
        <line class="su" x1="765.51" y1="804.75" x2="766.14" y2="805.52"/>
      </g>
    </g>
    <g id="jl" data-name="LWPOLYLINE">
      <g>
        <line class="su" x1="766.14" y1="640.18" x2="765.51" y2="640.95"/>
        <line class="sr" x1="764.85" y1="641.75" x2="741.59" y2="670.23"/>
        <polyline class="su" points="741.26 670.63 740.63 671.4 741.26 672.17"/>
        <line class="sr" x1="741.92" y1="672.98" x2="765.18" y2="701.45"/>
        <line class="su" x1="765.51" y1="701.85" x2="766.14" y2="702.62"/>
      </g>
    </g>
    <g id="jm" data-name="LWPOLYLINE">
      <g>
        <line class="su" x1="762.21" y1="551.74" x2="761.6" y2="552.53"/>
        <line class="sv" x1="760.98" y1="553.33" x2="739" y2="581.77"/>
        <polyline class="su" points="738.69 582.17 738.08 582.96 738.69 583.75"/>
        <line class="sv" x1="739.31" y1="584.55" x2="761.29" y2="612.99"/>
        <line class="su" x1="761.6" y1="613.39" x2="762.21" y2="614.18"/>
      </g>
    </g>
    <g id="jn" data-name="LWPOLYLINE">
      <g>
        <line class="su" x1="913.26" y1="547.85" x2="913.93" y2="548.59"/>
        <line class="sn" x1="914.59" y1="549.32" x2="942.02" y2="579.63"/>
        <polyline class="su" points="942.35 579.99 943.02 580.73 942.35 581.48"/>
        <line class="sn" x1="941.69" y1="582.21" x2="914.26" y2="612.51"/>
        <line class="su" x1="913.93" y1="612.87" x2="913.26" y2="613.62"/>
      </g>
    </g>
    <g id="jo" data-name="LINE">
      <line class="sq" x1="954.93" y1="725.87" x2="1007.37" y2="725.87"/>
    </g>
    <g id="jp" data-name="LINE">
      <line class="sq" x1="1014.46" y1="725.87" x2="1019.42" y2="725.87"/>
    </g>
    <g id="jq" data-name="LINE">
      <line class="sq" x1="1132.8" y1="725.87" x2="1137.76" y2="725.87"/>
    </g>
    <g id="jr" data-name="LINE">
      <line class="sq" x1="1144.85" y1="725.87" x2="1217.98" y2="725.87"/>
    </g>
    <g id="js" data-name="LINE">
      <line class="sq" x1="954.93" y1="636.86" x2="1007.37" y2="636.86"/>
    </g>
    <g id="jt" data-name="LINE">
      <line class="sq" x1="1014.46" y1="636.86" x2="1028.91" y2="636.86"/>
    </g>
    <g id="ju" data-name="LINE">
      <line class="sq" x1="1037.42" y1="636.86" x2="1114.8" y2="636.86"/>
    </g>
    <g id="jv" data-name="LINE">
      <line class="sq" x1="1123.31" y1="636.86" x2="1137.76" y2="636.86"/>
    </g>
    <g id="jw" data-name="LINE">
      <line class="sq" x1="1144.85" y1="636.86" x2="1217.98" y2="636.86"/>
    </g>
    <g id="jx" data-name="LINE">
      <line class="sq" x1="954.93" y1="706.03" x2="1007.37" y2="706.03"/>
    </g>
    <g id="jy" data-name="LINE">
      <line class="sq" x1="1014.46" y1="706.03" x2="1028.91" y2="706.03"/>
    </g>
    <g id="jz" data-name="LINE">
      <line class="sq" x1="1037.42" y1="706.03" x2="1114.8" y2="706.03"/>
    </g>
    <g id="ka" data-name="LINE">
      <line class="sq" x1="1123.31" y1="706.03" x2="1137.76" y2="706.03"/>
    </g>
    <g id="kb" data-name="LINE">
      <line class="sq" x1="1144.85" y1="706.03" x2="1217.98" y2="706.03"/>
    </g>
    <g id="kc" data-name="LINE">
      <line class="sq" x1="951.62" y1="611.35" x2="1007.37" y2="611.35"/>
    </g>
    <g id="kd" data-name="LINE">
      <line class="sq" x1="1014.46" y1="611.35" x2="1029.19" y2="611.35"/>
    </g>
    <g id="ke" data-name="LINE">
      <line class="sq" x1="1044.56" y1="611.35" x2="1137.76" y2="611.35"/>
    </g>
    <g id="kf" data-name="LINE">
      <line class="sq" x1="1144.85" y1="611.35" x2="1148.67" y2="611.35"/>
    </g>
    <g id="kg" data-name="LINE">
      <line class="sq" x1="1158.87" y1="611.35" x2="1198.14" y2="611.35"/>
    </g>
    <g id="kh" data-name="LINE">
      <line class="sq" x1="1205.23" y1="611.35" x2="1223.37" y2="611.35"/>
    </g>
    <g id="ki" data-name="LINE">
      <line class="sq" x1="964.28" y1="622.69" x2="1007.37" y2="622.69"/>
    </g>
    <g id="kj" data-name="LINE">
      <line class="sq" x1="1027.48" y1="622.69" x2="1137.76" y2="622.69"/>
    </g>
    <g id="kk" data-name="LINE">
      <line class="sq" x1="1151.36" y1="622.69" x2="1198.14" y2="622.69"/>
    </g>
    <g id="kl" data-name="LINE">
      <line class="sq" x1="1205.23" y1="622.69" x2="1223.37" y2="622.69"/>
    </g>
    <g id="km" data-name="LINE">
      <line class="sq" x1="954.36" y1="547.85" x2="1007.37" y2="547.85"/>
    </g>
    <g id="kn" data-name="LINE">
      <line class="sq" x1="1014.46" y1="547.85" x2="1124.84" y2="547.85"/>
    </g>
    <g id="ko" data-name="LINE">
      <line class="sq" x1="1144.85" y1="547.85" x2="1190.74" y2="547.85"/>
    </g>
    <g id="kp" data-name="LINE">
      <line class="sq" x1="1192.19" y1="611.35" x2="1192.19" y2="561.06"/>
    </g>
    <g id="kq" data-name="LINE">
      <line class="sq" x1="1192.19" y1="545.67" x2="1192.19" y2="544.38"/>
    </g>
    <g id="kr" data-name="LINE">
      <line class="sq" x1="1192.19" y1="535.88" x2="1192.19" y2="533.68"/>
    </g>
    <g id="ks" data-name="LWPOLYLINE">
      <rect class="sp" x="943.02" y="800.42" width="1.7" height="1.7"/>
    </g>
    <g id="kt" data-name="LWPOLYLINE">
      <rect class="sp" x="943.02" y="725.87" width="1.7" height="1.7"/>
    </g>
    <g id="ku" data-name="LWPOLYLINE">
      <rect class="sp" x="943.02" y="636.86" width="1.42" height="1.13"/>
    </g>
    <g id="kv" data-name="LWPOLYLINE">
      <rect class="sp" x="943.02" y="701.49" width="1.42" height="1.13"/>
    </g>
    <g id="kw" data-name="LWPOLYLINE">
      <rect class="sp" x="733.83" y="636.86" width="2.83" height="1.42"/>
    </g>
    <g id="kx" data-name="LWPOLYLINE">
      <rect class="sp" x="733.83" y="677.4" width="2.83" height="1.42"/>
    </g>
    <g id="ky" data-name="LWPOLYLINE">
      <rect class="sp" x="733.83" y="547.85" width="2.83" height="1.42"/>
    </g>
    <g id="kz" data-name="LWPOLYLINE">
      <rect class="sp" x="733.83" y="576.2" width="2.83" height="1.42"/>
    </g>
    <g id="la" data-name="LWPOLYLINE">
      <rect class="sp" x="1230.46" y="465.01" width="1.42" height=".85"/>
    </g>
    <g id="lb" data-name="LINE">
      <line class="sp" x1="1231.87" y1="465.58" x2="1232.27" y2="465.58"/>
    </g>
    <g id="lc" data-name="LINE">
      <line class="sp" x1="1231.87" y1="465.29" x2="1232.27" y2="465.29"/>
    </g>
    <g id="ld" data-name="LWPOLYLINE">
      <rect class="sp" x="1230.46" y="549.34" width="1.42" height="1.42"/>
    </g>
    <g id="le" data-name="LINE">
      <line class="sp" x1="1231.87" y1="550.19" x2="1232.27" y2="550.19"/>
    </g>
    <g id="lf" data-name="LINE">
      <line class="sp" x1="1231.87" y1="549.91" x2="1232.27" y2="549.91"/>
    </g>
    <g id="lg" data-name="LWPOLYLINE">
      <rect class="sp" x="1230.46" y="632.47" width="1.42" height=".85"/>
    </g>
    <g id="lh" data-name="LINE">
      <line class="sp" x1="1231.87" y1="633.03" x2="1232.27" y2="633.03"/>
    </g>
    <g id="li" data-name="LINE">
      <line class="sp" x1="1231.87" y1="632.75" x2="1232.27" y2="632.75"/>
    </g>
    <g id="lj" data-name="LINE">
      <line class="sh" x1="1123.31" y1="622.69" x2="1123.31" y2="624.81"/>
    </g>
    <g id="lk" data-name="LINE">
      <line class="sh" x1="1123.31" y1="633.32" x2="1123.31" y2="708.86"/>
    </g>
    <g id="ll" data-name="LINE">
      <line class="sh" x1="1123.31" y1="717.36" x2="1123.31" y2="725.87"/>
    </g>
    <g id="lm" data-name="LINE">
      <line class="sh" x1="1123.31" y1="726.21" x2="1123.31" y2="805.52"/>
    </g>
    <g id="ln" data-name="LINE">
      <line class="sh" x1="1114.8" y1="622.69" x2="1114.8" y2="624.81"/>
    </g>
    <g id="lo" data-name="LINE">
      <line class="sh" x1="1114.8" y1="633.32" x2="1114.8" y2="708.86"/>
    </g>
    <g id="lp" data-name="LINE">
      <line class="sh" x1="1114.8" y1="717.36" x2="1114.8" y2="725.87"/>
    </g>
    <g id="lq" data-name="LINE">
      <line class="sh" x1="1114.8" y1="726.21" x2="1114.8" y2="805.52"/>
    </g>
    <g id="lr" data-name="LINE">
      <line class="sh" x1="1037.42" y1="622.69" x2="1037.42" y2="624.81"/>
    </g>
    <g id="ls" data-name="LINE">
      <line class="sh" x1="1037.42" y1="633.32" x2="1037.42" y2="708.86"/>
    </g>
    <g id="lt" data-name="LINE">
      <line class="sh" x1="1037.42" y1="717.36" x2="1037.42" y2="725.87"/>
    </g>
    <g id="lu" data-name="LINE">
      <line class="sh" x1="1037.42" y1="726.21" x2="1037.42" y2="805.52"/>
    </g>
    <g id="lv" data-name="LINE">
      <line class="sh" x1="1028.91" y1="622.69" x2="1028.91" y2="624.81"/>
    </g>
    <g id="lw" data-name="LINE">
      <line class="sh" x1="1028.91" y1="633.32" x2="1028.91" y2="708.86"/>
    </g>
    <g id="lx" data-name="LINE">
      <line class="sh" x1="1028.91" y1="717.36" x2="1028.91" y2="725.87"/>
    </g>
    <g id="ly" data-name="LINE">
      <line class="sh" x1="1028.91" y1="726.21" x2="1028.91" y2="805.52"/>
    </g>
    <g id="lz" data-name="LINE">
      <line class="sh" x1="1217.98" y1="622.69" x2="1217.98" y2="624.81"/>
    </g>
    <g id="ma" data-name="LINE">
      <line class="sh" x1="1217.98" y1="633.32" x2="1217.98" y2="805.52"/>
    </g>
    <g id="mb" data-name="LINE">
      <line class="sh" x1="954.93" y1="622.69" x2="954.93" y2="802.69"/>
    </g>
    <g id="mc" data-name="LINE">
      <line class="sh" x1="1226.49" y1="633.32" x2="1226.49" y2="805.52"/>
    </g>
    <g id="md" data-name="LINE">
      <line class="sh" x1="943.02" y1="547.85" x2="943.02" y2="617.02"/>
    </g>
    <g id="me" data-name="LINE">
      <line class="sh" x1="951.62" y1="547.85" x2="951.62" y2="617.02"/>
    </g>
    <g id="mf" data-name="LINE">
      <line class="sh" x1="1037.42" y1="605.89" x2="1037.42" y2="547.85"/>
    </g>
    <g id="mg" data-name="LINE">
      <line class="sh" x1="1028.91" y1="611.35" x2="1028.91" y2="547.85"/>
    </g>
    <g id="mh" data-name="LINE">
      <line class="sh" x1="1123.31" y1="547.85" x2="1123.31" y2="548.87"/>
    </g>
    <g id="mi" data-name="LINE">
      <line class="sh" x1="1123.31" y1="559.08" x2="1123.31" y2="611.35"/>
    </g>
    <g id="mj" data-name="LINE">
      <line class="sh" x1="1114.8" y1="547.85" x2="1114.8" y2="554.52"/>
    </g>
    <g id="mk" data-name="LINE">
      <line class="sh" x1="1114.8" y1="564.72" x2="1114.8" y2="611.35"/>
    </g>
    <g id="ml" data-name="LWPOLYLINE">
      <polyline class="sh" points="963.67 533.68 1216 533.68 1216 515.82 963.67 515.82"/>
    </g>
    <g id="mm" data-name="LWPOLYLINE">
      <line class="sh" x1="960.04" y1="515.82" x2="956.83" y2="515.82"/>
    </g>
    <g id="mn" data-name="LINE">
      <line class="sh" x1="728.16" y1="678.81" x2="728.16" y2="636.86"/>
    </g>
    <g id="mo" data-name="LINE">
      <line class="sh" x1="738.08" y1="678.1" x2="738.08" y2="637.57"/>
    </g>
    <g id="mp" data-name="LINE">
      <line class="sh" x1="728.16" y1="577.62" x2="728.16" y2="547.85"/>
    </g>
    <g id="mq" data-name="LINE">
      <line class="sh" x1="738.08" y1="576.91" x2="738.08" y2="548.56"/>
    </g>
    <g id="mr" data-name="LINE">
      <line class="sh" x1="1198.14" y1="533.68" x2="1198.14" y2="544.38"/>
    </g>
    <g id="ms" data-name="LINE">
      <line class="sh" x1="1205.23" y1="533.68" x2="1205.23" y2="547.21"/>
    </g>
    <g id="mt" data-name="LINE">
      <line class="sh" x1="1227.62" y1="470.68" x2="1227.62" y2="547.21"/>
    </g>
    <g id="mu" data-name="LINE">
      <line class="sh" x1="1227.62" y1="552.88" x2="1227.62" y2="627.65"/>
    </g>
    <g id="mv" data-name="LINE">
      <line class="sh" x1="1230.46" y1="552.88" x2="1230.46" y2="627.65"/>
    </g>
    <g id="mw" data-name="LINE">
      <line class="sh" x1="1224.79" y1="547.21" x2="1203.81" y2="547.21"/>
    </g>
    <g id="mx" data-name="LINE">
      <line class="sh" x1="1224.79" y1="552.88" x2="1203.81" y2="552.88"/>
    </g>
    <g id="my" data-name="LWPOLYLINE">
      <polyline class="sh" points="954.93 805.52 954.93 802.69 944.72 802.12 944.72 805.52"/>
    </g>
    <g id="mz" data-name="LWPOLYLINE">
      <polyline class="sh" points="959.33 511.14 959.33 510.29 964.38 510.13 964.38 511.14"/>
    </g>
    <g id="na" data-name="LINE">
      <line class="sh" x1="1203.81" y1="633.32" x2="1224.79" y2="633.32"/>
    </g>
    <g id="nb" data-name="LINE">
      <line class="sh" x1="1230.46" y1="470.68" x2="1230.46" y2="547.21"/>
    </g>
    <g id="nc" data-name="LINE">
      <line class="sh" x1="1224.79" y1="627.65" x2="1203.81" y2="627.65"/>
    </g>
    <g id="nd" data-name="LINE">
      <line class="sh" x1="1224.79" y1="465.01" x2="1203.81" y2="465.01"/>
    </g>
    <g id="ne" data-name="LINE">
      <line class="sh" x1="1224.79" y1="470.68" x2="1203.81" y2="470.68"/>
    </g>
    <g>
      <g id="nf" data-name="LWPOLYLINE">
        <polyline class="sh" points="942.98 516.16 934.41 514.4 925.86 512.56 917.26 511.01 908.69 509.27 899.99 508.25 891.39 506.69 882.82 504.98 874.29 503.05 865.69 501.42 857.08 499.92 848.46 498.41 839.84 497.07 831.33 498.73 822.73 500.14 814.14 501.55 805.54 502.94 797.08 505.07 788.49 506.51 779.91 507.96 771.29 509.26 762.77 511.08 754.17 512.45 745.67 514.44 737.09 515.95"/>
      </g>
      <g id="ng" data-name="LWPOLYLINE">
        <polyline class="sh" points="849.26 504.02 855.59 508.03 861.55 512.56 867.77 516.72 873.86 521.07 880.11 525.2 886.17 529.62 892.3 533.96 896.81 527.33 901.57 520.9 905.99 514.23"/>
      </g>
      <g id="nh" data-name="LWPOLYLINE">
        <polyline class="sh" points="830.31 503.85 824.02 507.92 818.02 512.4 811.86 516.65 805.69 520.89 799.74 525.44 793.53 529.64 787.34 534.16 782.94 527.28 778.25 520.8 773.79 514.17"/>
      </g>
      <g id="ni" data-name="LWPOLYLINE">
        <polyline class="sh" points="942.08 521 933.61 519.18 925.09 517.63 916.54 516.23 908 514.73 899.5 513.09 891.02 511.28 882.5 509.76 873.94 508.4 865.45 506.63 856.85 505.48 848.35 503.79 839.84 501.93 831.32 503.44 822.85 505.11 814.37 506.69 805.94 508.58 797.37 509.68 788.96 511.63 780.45 513.04 771.93 514.46 763.42 515.9 754.96 517.62 746.45 519.1 738.02 520.98"/>
      </g>
      <g id="nj" data-name="LINE">
        <polyline class="sh" points="842.05 502.48 842.26 509.4 841.98 516.31 842.1 523.23 842.14 530.16 841.98 537.08"/>
      </g>
      <g id="nk" data-name="LINE">
        <polyline class="sh" points="837.81 502.48 837.99 509.4 837.45 516.31 837.81 523.23 837.99 530.16 837.8 537.08"/>
      </g>
      <g id="nl" data-name="LWPOLYLINE">
        <polyline class="sh" points="895.41 537.19 898.86 531.46 902.78 526.04 906.48 520.47 910.37 515.03"/>
      </g>
      <g id="nm" data-name="LWPOLYLINE">
        <polyline class="sh" points="837.6 503.67 831.77 508.18 825.66 512.29 819.49 516.31 813.69 520.86 807.7 525.13 801.66 529.34 795.46 533.33 789.38 537.49"/>
      </g>
      <g id="nn" data-name="LWPOLYLINE">
        <polyline class="sh" points="842.01 503.79 848.04 507.79 853.79 512.2 859.72 516.34 865.75 520.35 871.68 524.49 877.48 528.82 883.33 533.1 889.47 536.97"/>
      </g>
      <g id="no" data-name="LWPOLYLINE">
        <polyline class="sh" points="784.8 537.65 780.8 532.07 776.85 526.44 773.01 520.73 768.96 515.17"/>
      </g>
    </g>
    <g id="np" data-name="LINE">
      <line class="sj" x1="792.79" y1="805.52" x2="738.08" y2="805.52"/>
    </g>
    <g id="nq" data-name="LINE">
      <line class="sj" x1="792.79" y1="702.62" x2="738.08" y2="702.62"/>
    </g>
    <g id="nr" data-name="LINE">
      <line class="sj" x1="792.79" y1="614.18" x2="768.98" y2="614.18"/>
    </g>
    <g id="ns" data-name="LINE">
      <line class="sj" x1="766.14" y1="614.18" x2="738.08" y2="614.18"/>
    </g>
    <g id="nt" data-name="LINE">
      <line class="sj" x1="798.46" y1="659.99" x2="798.46" y2="747.96"/>
    </g>
    <g id="nu" data-name="LINE">
      <line class="sj" x1="798.46" y1="753.05" x2="798.46" y2="808.92"/>
    </g>
    <g id="nv" data-name="LINE">
      <line class="sj" x1="792.79" y1="622.69" x2="792.79" y2="706.03"/>
    </g>
    <g id="nw" data-name="LINE">
      <line class="sj" x1="792.79" y1="711.69" x2="792.79" y2="808.92"/>
    </g>
    <g id="nx" data-name="LINE">
      <line class="sj" x1="895" y1="805.52" x2="798.46" y2="805.52"/>
    </g>
    <g id="ny" data-name="LWPOLYLINE">
      <polyline class="sj" points="944.44 706.03 944.44 702.62 886.9 702.62 886.9 707.6"/>
    </g>
    <g id="nz" data-name="LWPOLYLINE">
      <polyline class="sj" points="944.72 802.12 895 802.12 895 805.52"/>
    </g>
    <g id="oa" data-name="LWPOLYLINE">
      <polyline class="sj" points="943.02 613.62 886.9 613.62 886.9 619.16"/>
    </g>
    <g id="ob" data-name="LWPOLYLINE">
      <polyline class="sj" points="798.46 653.98 798.46 537.08 792.79 537.08 792.79 617.02"/>
    </g>
    <g id="oc" data-name="LWPOLYLINE">
      <path class="sj" d="M937.29,513.33l.06-.35c.03-.15-.07-.3-.23-.33l-.7-.13c-.15-.03-.3.07-.33.23l-.28,1.53c-.03.15.07.3.23.33l.7.13c.15.03.3-.07.33-.23l.06-.35"/>
    </g>
    <g id="od" data-name="LWPOLYLINE">
      <path class="sj" d="M924.74,511.02l.06-.35c.03-.15-.07-.3-.23-.33l-.7-.13c-.15-.03-.3.07-.33.23l-.28,1.53c-.03.15.07.3.23.33l.7.13c.15.03.3-.07.33-.23l.06-.35"/>
    </g>
    <g id="oe" data-name="LWPOLYLINE">
      <path class="sj" d="M912.2,508.71l.06-.35c.03-.15-.07-.3-.23-.33l-.7-.13c-.15-.03-.3.07-.33.23l-.28,1.53c-.03.15.07.3.23.33l.7.13c.15.03.3-.07.33-.23l.06-.35"/>
    </g>
    <g id="of" data-name="LWPOLYLINE">
      <path class="sj" d="M899.65,506.4l.06-.35c.03-.15-.07-.3-.23-.33l-.7-.13c-.15-.03-.3.07-.33.23l-.28,1.53c-.03.15.07.3.23.33l.7.13c.15.03.3-.07.33-.23l.06-.35"/>
    </g>
    <g id="og" data-name="LWPOLYLINE">
      <path class="sj" d="M887.11,504.09l.06-.35c.03-.15-.07-.3-.23-.33l-.7-.13c-.15-.03-.3.07-.33.23l-.28,1.53c-.03.15.07.3.23.33l.7.13c.15.03.3-.07.33-.23l.06-.35"/>
    </g>
    <g id="oh" data-name="LWPOLYLINE">
      <path class="sj" d="M874.56,501.78l.06-.35c.03-.15-.07-.3-.23-.33l-.7-.13c-.15-.03-.3.07-.33.23l-.28,1.53c-.03.15.07.3.23.33l.7.13c.15.03.3-.07.33-.23l.06-.35"/>
    </g>
    <g id="oi" data-name="LWPOLYLINE">
      <path class="sj" d="M862.02,499.47l.06-.35c.03-.15-.07-.3-.23-.33l-.7-.13c-.15-.03-.3.07-.33.23l-.28,1.53c-.03.15.07.3.23.33l.7.13c.15.03.3-.07.33-.23l.06-.35"/>
    </g>
    <g id="oj" data-name="LWPOLYLINE">
      <path class="sj" d="M849.47,497.16l.06-.35c.03-.15-.07-.3-.23-.33l-.7-.13c-.15-.03-.3.07-.33.23l-.28,1.53c-.03.15.07.3.23.33l.7.13c.15.03.3-.07.33-.23l.06-.35"/>
    </g>
    <g id="ok" data-name="LWPOLYLINE">
      <path class="sj" d="M936.86,535.59v-.35c0-.16-.13-.28-.28-.28h-.71c-.16,0-.28.13-.28.28v1.56c0,.16.13.28.28.28h.71c.16,0,.28-.13.28-.28v-.35"/>
    </g>
    <g id="ol" data-name="LWPOLYLINE">
      <path class="sj" d="M924.1,535.59v-.35c0-.16-.13-.28-.28-.28h-.71c-.16,0-.28.13-.28.28v1.56c0,.16.13.28.28.28h.71c.16,0,.28-.13.28-.28v-.35"/>
    </g>
    <g id="om" data-name="LWPOLYLINE">
      <path class="sj" d="M911.35,535.59v-.35c0-.16-.13-.28-.28-.28h-.71c-.16,0-.28.13-.28.28v1.56c0,.16.13.28.28.28h.71c.16,0,.28-.13.28-.28v-.35"/>
    </g>
    <g id="on" data-name="LWPOLYLINE">
      <path class="sj" d="M898.59,535.59v-.35c0-.16-.13-.28-.28-.28h-.71c-.16,0-.28.13-.28.28v1.56c0,.16.13.28.28.28h.71c.16,0,.28-.13.28-.28v-.35"/>
    </g>
    <g id="oo" data-name="LWPOLYLINE">
      <path class="sj" d="M885.83,535.59v-.35c0-.16-.13-.28-.28-.28h-.71c-.16,0-.28.13-.28.28v1.56c0,.16.13.28.28.28h.71c.16,0,.28-.13.28-.28v-.35"/>
    </g>
    <g id="op" data-name="LWPOLYLINE">
      <path class="sj" d="M873.08,535.59v-.35c0-.16-.13-.28-.28-.28h-.71c-.16,0-.28.13-.28.28v1.56c0,.16.13.28.28.28h.71c.16,0,.28-.13.28-.28v-.35"/>
    </g>
    <g id="oq" data-name="LWPOLYLINE">
      <path class="sj" d="M860.32,535.59v-.35c0-.16-.13-.28-.28-.28h-.71c-.16,0-.28.13-.28.28v1.56c0,.16.13.28.28.28h.71c.16,0,.28-.13.28-.28v-.35"/>
    </g>
    <g id="or" data-name="LWPOLYLINE">
      <path class="sj" d="M847.57,535.59v-.35c0-.16-.13-.28-.28-.28h-.71c-.16,0-.28.13-.28.28v1.56c0,.16.13.28.28.28h.71c.16,0,.28-.13.28-.28v-.35"/>
    </g>
    <g id="os" data-name="LWPOLYLINE">
      <path class="sj" d="M834.81,535.59v-.35c0-.16-.13-.28-.28-.28h-.71c-.16,0-.28.13-.28.28v1.56c0,.16.13.28.28.28h.71c.16,0,.28-.13.28-.28v-.35"/>
    </g>
    <g id="ot" data-name="LWPOLYLINE">
      <path class="sj" d="M822.06,535.59v-.35c0-.16-.13-.28-.28-.28h-.71c-.16,0-.28.13-.28.28v1.56c0,.16.13.28.28.28h.71c.16,0,.28-.13.28-.28v-.35"/>
    </g>
    <g id="ou" data-name="LWPOLYLINE">
      <path class="sj" d="M809.3,535.59v-.35c0-.16-.13-.28-.28-.28h-.71c-.16,0-.28.13-.28.28v1.56c0,.16.13.28.28.28h.71c.16,0,.28-.13.28-.28v-.35"/>
    </g>
    <g id="ov" data-name="LWPOLYLINE">
      <path class="sj" d="M783.79,549.2v-.35c0-.16-.13-.28-.28-.28h-.71c-.16,0-.28.13-.28.28v1.56c0,.16.13.28.28.28h.71c.16,0,.28-.13.28-.28v-.35"/>
    </g>
    <g id="ow" data-name="LWPOLYLINE">
      <path class="sj" d="M771.03,549.2v-.35c0-.16-.13-.28-.28-.28h-.71c-.16,0-.28.13-.28.28v1.56c0,.16.13.28.28.28h.71c.16,0,.28-.13.28-.28v-.35"/>
    </g>
    <g id="ox" data-name="LWPOLYLINE">
      <path class="sj" d="M758.28,549.2v-.35c0-.16-.13-.28-.28-.28h-.71c-.16,0-.28.13-.28.28v1.56c0,.16.13.28.28.28h.71c.16,0,.28-.13.28-.28v-.35"/>
    </g>
    <g id="oy" data-name="LWPOLYLINE">
      <path class="sj" d="M745.52,549.2v-.35c0-.16-.13-.28-.28-.28h-.71c-.16,0-.28.13-.28.28v1.56c0,.16.13.28.28.28h.71c.16,0,.28-.13.28-.28v-.35"/>
    </g>
    <g id="oz" data-name="LWPOLYLINE">
      <path class="sj" d="M742.4,513.33l-.06-.35c-.03-.15.07-.3.23-.33l.7-.13c.15-.03.3.07.33.23l.28,1.53c.03.15-.07.3-.23.33l-.7.13c-.15.03-.3-.07-.33-.23l-.06-.35"/>
    </g>
    <g id="pa" data-name="LWPOLYLINE">
      <path class="sj" d="M754.94,511.02l-.06-.35c-.03-.15.07-.3.23-.33l.7-.13c.15-.03.3.07.33.23l.28,1.53c.03.15-.07.3-.23.33l-.7.13c-.15.03-.3-.07-.33-.23l-.06-.35"/>
    </g>
    <g id="pb" data-name="LWPOLYLINE">
      <path class="sj" d="M767.49,508.71l-.06-.35c-.03-.15.07-.3.23-.33l.7-.13c.15-.03.3.07.33.23l.28,1.53c.03.15-.07.3-.23.33l-.7.13c-.15.03-.3-.07-.33-.23l-.06-.35"/>
    </g>
    <g id="pc" data-name="LWPOLYLINE">
      <path class="sj" d="M780.03,506.4l-.06-.35c-.03-.15.07-.3.23-.33l.7-.13c.15-.03.3.07.33.23l.28,1.53c.03.15-.07.3-.23.33l-.7.13c-.15.03-.3-.07-.33-.23l-.06-.35"/>
    </g>
    <g id="pd" data-name="LWPOLYLINE">
      <path class="sj" d="M792.58,504.09l-.06-.35c-.03-.15.07-.3.23-.33l.7-.13c.15-.03.3.07.33.23l.28,1.53c.03.15-.07.3-.23.33l-.7.13c-.15.03-.3-.07-.33-.23l-.06-.35"/>
    </g>
    <g id="pe" data-name="LWPOLYLINE">
      <path class="sj" d="M805.12,501.78l-.06-.35c-.03-.15.07-.3.23-.33l.7-.13c.15-.03.3.07.33.23l.28,1.53c.03.15-.07.3-.23.33l-.7.13c-.15.03-.3-.07-.33-.23l-.06-.35"/>
    </g>
    <g id="pf" data-name="LWPOLYLINE">
      <path class="sj" d="M817.67,499.47l-.06-.35c-.03-.15.07-.3.23-.33l.7-.13c.15-.03.3.07.33.23l.28,1.53c.03.15-.07.3-.23.33l-.7.13c-.15.03-.3-.07-.33-.23l-.06-.35"/>
    </g>
    <g id="pg" data-name="LWPOLYLINE">
      <path class="sj" d="M830.21,497.16l-.06-.35c-.03-.15.07-.3.23-.33l.7-.13c.15-.03.3.07.33.23l.28,1.53c.03.15-.07.3-.23.33l-.7.13c-.15.03-.3-.07-.33-.23l-.06-.35"/>
    </g>
    <g id="ph" data-name="LWPOLYLINE">
      <line class="sj" x1="738.08" y1="808.92" x2="738.08" y2="711.69"/>
    </g>
    <g id="pi" data-name="LWPOLYLINE">
      <polyline class="sj" points="738.08 706.03 738.08 678.1 736.66 678.1"/>
    </g>
    <g id="pj" data-name="LWPOLYLINE">
      <polyline class="sj" points="736.66 637.57 738.08 637.57 738.08 622.69"/>
    </g>
    <g id="pk" data-name="LWPOLYLINE">
      <polyline class="sj" points="738.08 617.02 738.08 576.91 736.66 576.91"/>
    </g>
    <g id="pl" data-name="LWPOLYLINE">
      <polyline class="sj" points="736.66 548.56 738.08 548.56 738.08 515.82 725.32 515.82 725.32 547.85 728.16 547.85"/>
    </g>
    <g id="pm" data-name="LWPOLYLINE">
      <path class="sj" d="M783.79,637.64v-.35c0-.16-.13-.28-.28-.28h-.71c-.16,0-.28.13-.28.28v1.56c0,.16.13.28.28.28h.71c.16,0,.28-.13.28-.28v-.35"/>
    </g>
    <g id="pn" data-name="LWPOLYLINE">
      <path class="sj" d="M771.03,637.64v-.35c0-.16-.13-.28-.28-.28h-.71c-.16,0-.28.13-.28.28v1.56c0,.16.13.28.28.28h.71c.16,0,.28-.13.28-.28v-.35"/>
    </g>
    <g id="po" data-name="LWPOLYLINE">
      <path class="sj" d="M758.28,637.64v-.35c0-.16-.13-.28-.28-.28h-.71c-.16,0-.28.13-.28.28v1.56c0,.16.13.28.28.28h.71c.16,0,.28-.13.28-.28v-.35"/>
    </g>
    <g id="pp" data-name="LWPOLYLINE">
      <path class="sj" d="M745.52,637.64v-.35c0-.16-.13-.28-.28-.28h-.71c-.16,0-.28.13-.28.28v1.56c0,.16.13.28.28.28h.71c.16,0,.28-.13.28-.28v-.35"/>
    </g>
    <g id="pq" data-name="LWPOLYLINE">
      <path class="sj" d="M783.79,740.54v-.35c0-.16-.13-.28-.28-.28h-.71c-.16,0-.28.13-.28.28v1.56c0,.16.13.28.28.28h.71c.16,0,.28-.13.28-.28v-.35"/>
    </g>
    <g id="pr" data-name="LWPOLYLINE">
      <path class="sj" d="M771.03,740.54v-.35c0-.16-.13-.28-.28-.28h-.71c-.16,0-.28.13-.28.28v1.56c0,.16.13.28.28.28h.71c.16,0,.28-.13.28-.28v-.35"/>
    </g>
    <g id="ps" data-name="LWPOLYLINE">
      <path class="sj" d="M758.28,740.54v-.35c0-.16-.13-.28-.28-.28h-.71c-.16,0-.28.13-.28.28v1.56c0,.16.13.28.28.28h.71c.16,0,.28-.13.28-.28v-.35"/>
    </g>
    <g id="pt" data-name="LWPOLYLINE">
      <path class="sj" d="M745.52,740.54v-.35c0-.16-.13-.28-.28-.28h-.71c-.16,0-.28.13-.28.28v1.56c0,.16.13.28.28.28h.71c.16,0,.28-.13.28-.28v-.35"/>
    </g>
    <g id="pu" data-name="LWPOLYLINE">
      <polyline class="sj" points="768.98 617.02 768.98 551.25 766.14 551.25 766.14 617.02"/>
    </g>
    <g id="pv" data-name="LWPOLYLINE">
      <polyline class="sj" points="951.62 547.85 954.36 547.85 954.36 533.82 963.67 533.82 963.67 510.58 960.04 510.58 960.04 519.99 954.36 519.99 954.36 515.82 948.69 515.82"/>
    </g>
    <g id="pw" data-name="LWPOLYLINE">
      <line class="sm" x1="728.16" y1="808.92" x2="728.16" y2="725.87"/>
    </g>
    <g id="px" data-name="LWPOLYLINE">
      <line class="sm" x1="736.66" y1="725.87" x2="736.66" y2="808.92"/>
    </g>
    <g id="py" data-name="LWPOLYLINE">
      <line class="sm" x1="730.99" y1="808.92" x2="730.99" y2="725.87"/>
    </g>
    <g id="pz" data-name="LWPOLYLINE">
      <line class="sm" x1="733.83" y1="725.87" x2="733.83" y2="808.92"/>
    </g>
    <g id="qa" data-name="LWPOLYLINE">
      <polyline class="sm" points="728.16 706.03 728.16 678.81 736.66 678.81 736.66 706.03"/>
    </g>
    <g id="qb" data-name="LWPOLYLINE">
      <polyline class="sm" points="730.99 706.03 730.99 681.65 733.83 681.65 733.83 706.03"/>
    </g>
    <g id="qc" data-name="LWPOLYLINE">
      <polyline class="sm" points="728.16 617.02 728.16 577.62 736.66 577.62 736.66 617.02"/>
    </g>
    <g id="qd" data-name="LWPOLYLINE">
      <polyline class="sm" points="730.99 617.02 730.99 580.45 733.83 580.45 733.83 617.02"/>
    </g>
    <g id="qe" data-name="LINE">
      <line class="sm" x1="1223.37" y1="552.88" x2="1223.37" y2="624.81"/>
    </g>
    <g id="qf" data-name="LINE">
      <line class="sm" x1="1198.14" y1="470.68" x2="1198.14" y2="515.82"/>
    </g>
    <g id="qg" data-name="LINE">
      <line class="sm" x1="1014.46" y1="805.52" x2="1014.46" y2="533.68"/>
    </g>
    <g id="qh" data-name="LINE">
      <line class="sm" x1="1007.37" y1="805.52" x2="1007.37" y2="533.68"/>
    </g>
    <g id="qi" data-name="LINE">
      <line class="sm" x1="1144.85" y1="805.52" x2="1144.85" y2="533.68"/>
    </g>
    <g id="qj" data-name="LINE">
      <line class="sm" x1="1137.76" y1="805.52" x2="1137.76" y2="533.68"/>
    </g>
    <g id="qk" data-name="LINE">
      <line class="sm" x1="1205.23" y1="470.68" x2="1205.23" y2="515.82"/>
    </g>
    <g id="ql" data-name="LINE">
      <line class="sm" x1="1223.37" y1="470.68" x2="1223.37" y2="547.21"/>
    </g>
    <g id="qm" data-name="LINE">
      <line class="sm" x1="1137.76" y1="717.36" x2="1014.46" y2="717.36"/>
    </g>
    <g id="qn" data-name="LINE">
      <line class="sm" x1="1137.76" y1="708.86" x2="1014.46" y2="708.86"/>
    </g>
    <g id="qo" data-name="LINE">
      <line class="sm" x1="1198.14" y1="633.32" x2="1144.85" y2="633.32"/>
    </g>
    <g id="qp" data-name="LINE">
      <line class="sm" x1="1137.76" y1="633.32" x2="1014.46" y2="633.32"/>
    </g>
    <g id="qq" data-name="LINE">
      <line class="sm" x1="1198.14" y1="624.81" x2="1144.85" y2="624.81"/>
    </g>
    <g id="qr" data-name="LINE">
      <line class="sm" x1="1137.76" y1="624.81" x2="1014.46" y2="624.81"/>
    </g>
    <g id="qs" data-name="LINE">
      <line class="sm" x1="1137.76" y1="544.38" x2="1014.46" y2="544.38"/>
    </g>
    <g id="qt" data-name="LINE">
      <line class="sm" x1="1137.76" y1="535.88" x2="1014.46" y2="535.88"/>
    </g>
    <g id="qu" data-name="LINE">
      <line class="sm" x1="1137.76" y1="549.48" x2="1024.28" y2="624.81"/>
    </g>
    <g id="qv" data-name="LINE">
      <line class="sm" x1="1130.08" y1="544.38" x2="1014.46" y2="621.13"/>
    </g>
    <g id="qw" data-name="LINE">
      <line class="sm" x1="1227.62" y1="624.81" x2="1203.81" y2="624.81"/>
    </g>
    <g id="qx" data-name="LINE">
      <line class="sm" x1="1198.14" y1="552.88" x2="1198.14" y2="624.81"/>
    </g>
    <g id="qy" data-name="LINE">
      <line class="sm" x1="1205.23" y1="552.88" x2="1205.23" y2="624.81"/>
    </g>
    <g id="qz" data-name="LINE">
      <line class="sm" x1="1144.85" y1="544.38" x2="1198.14" y2="544.38"/>
    </g>
    <g id="ra" data-name="LINE">
      <line class="sm" x1="1205.23" y1="544.38" x2="1223.37" y2="544.38"/>
    </g>
    <g id="rb" data-name="LINE">
      <line class="sm" x1="1144.85" y1="535.88" x2="1198.14" y2="535.88"/>
    </g>
    <g id="rc" data-name="LINE">
      <line class="sm" x1="1205.23" y1="535.88" x2="1223.37" y2="535.88"/>
    </g>
    <g id="rd" data-name="LINE">
      <line class="sm" x1="1198.14" y1="552.08" x2="1149.95" y2="624.81"/>
    </g>
    <g id="re" data-name="LINE">
      <line class="sm" x1="1193.04" y1="544.38" x2="1144.85" y2="617.11"/>
    </g>
    <g id="rf" data-name="LWPOLYLINE">
      <rect class="sm" x="1224.79" y="627.65" width="5.67" height="5.67"/>
    </g>
    <g id="rg" data-name="LWPOLYLINE">
      <rect class="sm" x="1225.04" y="627.9" width="5.16" height="5.16"/>
    </g>
    <g id="rh" data-name="LWPOLYLINE">
      <rect class="sm" x="1198.14" y="624.81" width="5.67" height="8.5"/>
    </g>
    <g id="ri" data-name="LWPOLYLINE">
      <rect class="sm" x="1198.4" y="625.07" width="5.16" height="7.99"/>
    </g>
    <g id="rj" data-name="LWPOLYLINE">
      <rect class="sm" x="1224.79" y="547.21" width="5.67" height="5.67"/>
    </g>
    <g id="rk" data-name="LWPOLYLINE">
      <rect class="sm" x="1225.04" y="547.47" width="5.16" height="5.16"/>
    </g>
    <g id="rl" data-name="LWPOLYLINE">
      <rect class="sm" x="1198.14" y="544.38" width="5.67" height="8.5"/>
    </g>
    <g id="rm" data-name="LWPOLYLINE">
      <rect class="sm" x="1198.4" y="544.64" width="5.16" height="7.99"/>
    </g>
    <g id="rn" data-name="LWPOLYLINE">
      <polygon class="sm" points="957.52 512.08 839.84 490.42 722.17 512.08 722.94 516.26 839.84 494.74 956.75 516.26 957.52 512.08"/>
    </g>
    <g id="ro" data-name="LWPOLYLINE">
      <rect class="sm" x="1224.79" y="465.01" width="5.67" height="5.67"/>
    </g>
    <g id="rp" data-name="LWPOLYLINE">
      <rect class="sm" x="1225.04" y="465.26" width="5.16" height="5.16"/>
    </g>
    <g id="rq" data-name="LWPOLYLINE">
      <rect class="sm" x="1198.14" y="465.01" width="5.67" height="5.67"/>
    </g>
    <g id="rr" data-name="LWPOLYLINE">
      <rect class="sm" x="1198.4" y="465.26" width="5.16" height="5.16"/>
    </g>
    <g id="rs" data-name="LWPOLYLINE">
      <polyline class="sm" points="719.65 515.82 719.65 519.99 725.32 519.99 725.32 515.82"/>
    </g>
    <g id="rt" data-name="LINE">
      <line class="ss" x1="724.76" y1="817.43" x2="2.97" y2="817.43"/>
    </g>
    <g id="ru" data-name="LINE">
      <line class="ss" x1="2000" y1="817.43" x2="954.93" y2="817.43"/>
    </g>
  </g>
  <g id="sa" data-name="SCALE">
    <g>
      <g id="sb" data-name="MTEXT">
        <path class="sw" d="M281.36,1108.4c-.64-.5-1.13-1.2-1.49-2.1-.36-.9-.54-1.92-.54-3.06s.18-2.15.54-3.04c.36-.9.85-1.6,1.49-2.1.63-.5,1.36-.75,2.17-.75s1.53.25,2.17.75c.63.5,1.13,1.2,1.49,2.1.36.9.54,1.91.54,3.04s-.18,2.16-.54,3.05c-.36.89-.85,1.59-1.49,2.1-.64.51-1.36.76-2.17.76s-1.54-.25-2.17-.75ZM285.02,1107.36c.44-.41.78-.96,1.02-1.67s.36-1.52.36-2.44-.12-1.74-.36-2.45c-.24-.72-.58-1.27-1.02-1.67-.44-.4-.93-.6-1.49-.6s-1.05.2-1.48.6c-.43.4-.77.96-1.02,1.67-.25.71-.37,1.53-.37,2.43s.12,1.75.37,2.46c.25.71.58,1.27,1.02,1.67.43.41.93.61,1.48.61s1.05-.2,1.49-.61Z"/>
      </g>
      <g id="sc" data-name="MTEXT">
        <path class="sw" d="M336.68,1107.21c.19-.17.42-.38.71-.64.93-.85,1.68-1.57,2.24-2.15.57-.58,1.05-1.17,1.44-1.78.39-.6.59-1.16.59-1.67,0-.48-.09-.9-.28-1.27-.19-.37-.45-.66-.78-.86s-.71-.31-1.15-.31c-.47,0-.93.16-1.37.48s-.78.73-1,1.23l-1.2-.51c.3-.71.79-1.28,1.46-1.73.67-.45,1.38-.67,2.11-.67.69,0,1.31.16,1.85.46s.96.74,1.26,1.29.45,1.18.45,1.9-.22,1.41-.67,2.14c-.45.73-.98,1.41-1.6,2.04-.62.63-1.42,1.39-2.42,2.27-.49.45-.96.88-1.39,1.3l-.94-.85c.28-.27.51-.49.7-.66ZM335.99,1107.87h7.22v1.19h-7.05l-.18-1.19Z"/>
      </g>
      <g id="sd" data-name="MTEXT">
        <path class="sw" d="M423.16,1101.84c.55-.25,1.08-.38,1.59-.38.77,0,1.45.16,2.06.49.6.33,1.07.78,1.41,1.35.34.58.5,1.24.5,1.99s-.17,1.43-.5,2.02c-.33.59-.8,1.05-1.4,1.39-.6.34-1.29.5-2.07.5-.6,0-1.16-.12-1.69-.38-.53-.25-.98-.6-1.35-1.05-.37-.45-.62-.96-.74-1.52l1.3-.3c.13.59.42,1.07.89,1.43s1,.55,1.59.55c.5,0,.95-.11,1.35-.34.4-.22.72-.54.94-.94.23-.41.34-.86.34-1.36s-.11-.95-.34-1.34-.54-.69-.94-.91-.85-.33-1.35-.33c-.33,0-.68.09-1.04.26-.36.18-.66.4-.9.68l-.99-.86c.34-.38.79-.7,1.34-.95ZM421.48,1103.47l.37-6.04h5.93v1.18h-4.64l-.32,5.04-1.33-.19Z"/>
      </g>
      <g id="se" data-name="MTEXT">
        <path class="sw" d="M312,1109.04h-1.35v-10.09l-1.86,1.2-.67-1.07,2.55-1.62h1.33v11.58Z"/>
      </g>
      <g id="sf" data-name="MTEXT">
        <g>
          <path class="sw" d="M561.37,1109.04h-1.35v-10.09l-1.86,1.2-.67-1.07,2.55-1.62h1.33v11.58Z"/>
          <path class="sw" d="M565.83,1108.4c-.64-.5-1.13-1.2-1.49-2.1s-.54-1.92-.54-3.06.18-2.15.54-3.04.85-1.6,1.49-2.1c.63-.5,1.36-.75,2.17-.75s1.53.25,2.17.75,1.13,1.2,1.49,2.1.54,1.91.54,3.04-.18,2.16-.54,3.05-.85,1.59-1.49,2.1c-.64.51-1.36.76-2.17.76s-1.54-.25-2.17-.75ZM569.49,1107.36c.44-.41.78-.96,1.02-1.67s.36-1.52.36-2.44-.12-1.74-.36-2.45c-.24-.72-.58-1.27-1.02-1.67-.44-.4-.93-.6-1.49-.6s-1.05.2-1.48.6c-.43.4-.77.96-1.02,1.67-.25.71-.37,1.53-.37,2.43s.12,1.75.37,2.46.58,1.27,1.02,1.67c.43.41.93.61,1.48.61s1.05-.2,1.49-.61Z"/>
          <path class="sw" d="M583.38,1103.3c-.29-.34-.67-.5-1.13-.5-.35,0-.66.07-.94.22-.27.14-.49.34-.65.6s-.24.55-.24.88v4.58h-1.33v-4.45c0-.54-.14-.98-.43-1.32-.29-.34-.66-.5-1.12-.5-.34,0-.65.09-.94.26-.28.18-.5.42-.66.72-.15.3-.23.63-.23.99v4.31h-1.33v-7.46h1.33v1.31l-.14-.05c.22-.37.52-.68.9-.91.37-.23.75-.35,1.14-.35.46,0,.9.13,1.32.38.42.26.74.59.95.99.25-.41.59-.74,1.04-.99.45-.26.9-.38,1.36-.38.56,0,1.05.13,1.49.38s.78.59,1.02,1.02.37.93.37,1.5v4.56h-1.35v-4.45c0-.54-.15-.98-.44-1.32Z"/>
        </g>
      </g>
      <g id="sg" data-name="LWPOLYLINE">
        <polyline class="sj" points="566.32 1076.38 566.32 1093.39 424.59 1093.39 424.59 1076.38 339.55 1076.38 339.55 1093.39 311.2 1093.39 311.2 1076.38 282.85 1076.38 282.85 1093.39"/>
      </g>
    </g>
  </g>
</svg>